<svg xmlns="http://www.w3.org/2000/svg" width="168" height="168" viewBox="0 0 168 168" fill="none">
  <path d="M78.6783 9.98158C80.9485 5.72355 87.0515 5.72355 89.3217 9.98158L95.9437 22.4021C97.586 25.4826 101.493 26.5294 104.455 24.6828L116.401 17.2373C120.496 14.6849 125.781 17.7364 125.618 22.559L125.142 36.6265C125.025 40.1155 127.885 42.9754 131.374 42.8575L145.441 42.3821C150.264 42.2191 153.315 47.5045 150.763 51.5995L143.317 63.5446C141.471 66.5072 142.517 70.414 145.598 72.0563L158.018 78.6783C162.276 80.9485 162.276 87.0515 158.018 89.3217L145.598 95.9437C142.517 97.586 141.471 101.493 143.317 104.455L150.763 116.401C153.315 120.496 150.264 125.781 145.441 125.618L131.374 125.142C127.885 125.025 125.025 127.885 125.142 131.374L125.618 145.441C125.781 150.264 120.496 153.315 116.401 150.763L104.455 143.317C101.493 141.471 97.586 142.517 95.9437 145.598L89.3217 158.018C87.0515 162.276 80.9485 162.276 78.6783 158.018L72.0563 145.598C70.414 142.517 66.5072 141.471 63.5446 143.317L51.5995 150.763C47.5045 153.315 42.2191 150.264 42.3821 145.441L42.8575 131.374C42.9754 127.885 40.1155 125.025 36.6265 125.142L22.559 125.618C17.7364 125.781 14.6849 120.496 17.2373 116.401L24.6828 104.455C26.5294 101.493 25.4826 97.586 22.4021 95.9437L9.98158 89.3217C5.72355 87.0515 5.72355 80.9485 9.98158 78.6783L22.4021 72.0563C25.4826 70.414 26.5294 66.5072 24.6828 63.5446L17.2373 51.5995C14.6849 47.5045 17.7364 42.2191 22.559 42.3821L36.6265 42.8575C40.1155 42.9754 42.9754 40.1155 42.8575 36.6265L42.3821 22.559C42.2191 17.7364 47.5045 14.6849 51.5995 17.2373L63.5446 24.6828C66.5072 26.5294 70.414 25.4826 72.0563 22.4021L78.6783 9.98158Z" fill="#4CE2A2"/>
  <path d="M83.3964 95.9208C83.9381 96.568 84.1819 97.0804 84.1277 97.458C83.9652 97.9974 83.5047 98.4559 82.7463 98.8334C81.9878 99.157 81.1752 99.3188 80.3085 99.3188C77.7623 99.3188 75.6766 98.6986 74.0514 97.458C72.4804 96.1635 71.6949 94.5184 71.6949 92.5227C71.6949 91.7676 71.8032 91.0664 72.0199 90.4192C72.5075 88.6932 73.4284 87.2908 74.7828 86.2121C76.1913 85.0794 78.2499 83.7309 80.9585 82.1667C83.8839 80.5486 86.1321 79.0653 87.7032 77.7169C89.2742 76.3685 90.3577 74.6155 90.9536 72.458C91.1161 71.7029 91.1973 71.0017 91.1973 70.3545C91.1973 68.5206 90.5744 67.1182 89.3284 66.1473C88.0824 65.1765 86.7551 64.691 85.3466 64.691C83.8297 64.691 82.5025 64.9068 81.3648 65.3383C81.9608 66.9025 82.2587 68.5475 82.2587 70.2735C82.2587 71.0826 82.1774 71.8108 82.0149 72.458C81.419 74.5076 80.3355 76.0988 78.7645 77.2315C77.1935 78.3642 75.1891 78.9305 72.7512 78.9305C69.8259 78.9305 67.4693 78.1484 65.6816 76.5842C63.8939 74.9661 63 72.9165 63 70.4354C63 69.5724 63.1083 68.7363 63.325 67.9273C64.1376 64.4753 66.5484 61.8323 70.5572 59.9985C74.6202 58.1107 79.7396 57.1667 85.9154 57.1667C91.1703 57.1667 95.775 58.0028 99.7297 59.6748C103.684 61.3469 106.718 63.5853 108.831 66.3901C110.944 69.1409 112 72.1074 112 75.2897C112 76.2606 111.865 77.3393 111.594 78.526C110.944 81.1689 109.806 83.2994 108.181 84.9176C106.61 86.4817 104.28 87.8032 101.192 88.882C98.1587 89.9068 93.9331 90.8776 88.5158 91.7946C86.4572 92.1721 85.0486 92.5227 84.2902 92.8464C83.5318 93.17 83.0442 93.6015 82.8275 94.1409L82.7463 94.4645C82.7463 94.7881 82.963 95.2735 83.3964 95.9208ZM76.8955 101.18C79.0625 101.18 80.8773 101.8 82.34 103.041C83.8027 104.227 84.534 105.71 84.534 107.49C84.5882 108.785 84.209 110.052 83.3964 111.293C82.6379 112.534 81.5545 113.558 80.1459 114.367C78.7374 115.123 77.1664 115.5 75.4328 115.5C73.2117 115.5 71.3698 114.88 69.9071 113.639C68.4986 112.345 67.7944 110.781 67.7944 108.947C67.7944 107.706 68.1736 106.493 68.932 105.306C69.7446 104.119 70.8281 103.148 72.1824 102.393C73.5909 101.584 75.162 101.18 76.8955 101.18Z" fill="white"/>
</svg>
