<svg width="139" height="180" viewBox="0 0 139 180" fill="none" xmlns="http://www.w3.org/2000/svg">
<rect width="139" height="180" rx="20" fill="#C388FF"/>
<mask id="mask0_1494_5050" style="mask-type:alpha" maskUnits="userSpaceOnUse" x="0" y="0" width="139" height="180">
<rect width="139" height="180" rx="20" fill="#35CA89"/>
</mask>
<g mask="url(#mask0_1494_5050)">
<rect x="12.8284" y="116.252" width="72" height="36" rx="7.45282" transform="rotate(-20.9779 12.8284 116.252)" fill="url(#paint0_linear_1494_5050)"/>
<rect x="48.4531" y="56.8789" width="78" height="36" rx="7.45282" transform="rotate(17.4094 48.4531 56.8789)" fill="url(#paint1_linear_1494_5050)"/>
</g>
<path d="M98.2352 16.3102C98.988 14.8981 101.012 14.8981 101.765 16.3102L103.986 20.477C104.531 21.4986 105.827 21.8458 106.809 21.2334L110.816 18.7356C112.175 17.8891 113.927 18.9011 113.873 20.5004L113.714 25.2198C113.675 26.3769 114.623 27.3253 115.78 27.2862L120.5 27.1267C122.099 27.0727 123.111 28.8255 122.264 30.1835L119.767 34.1908C119.154 35.1733 119.501 36.4689 120.523 37.0136L124.69 39.2352C126.102 39.988 126.102 42.012 124.69 42.7648L120.523 44.9864C119.501 45.5311 119.154 46.8267 119.767 47.8092L122.264 51.8165C123.111 53.1745 122.099 54.9273 120.5 54.8733L115.78 54.7138C114.623 54.6747 113.675 55.6231 113.714 56.7802L113.873 61.4996C113.927 63.0989 112.175 64.1109 110.816 63.2644L106.809 60.7666C105.827 60.1542 104.531 60.5014 103.986 61.5229L101.765 65.6898C101.012 67.1019 98.988 67.1019 98.2352 65.6898L96.0136 61.523C95.469 60.5014 94.1733 60.1542 93.1908 60.7666L89.1835 63.2644C87.8255 64.1109 86.0727 63.0989 86.1267 61.4996L86.2862 56.7802C86.3253 55.6231 85.3769 54.6747 84.2198 54.7138L79.5004 54.8733C77.9011 54.9273 76.8891 53.1745 77.7356 51.8165L80.2334 47.8092C80.8458 46.8267 80.4986 45.5311 79.4771 44.9864L75.3102 42.7648C73.8981 42.012 73.8981 39.988 75.3102 39.2352L79.477 37.0136C80.4986 36.469 80.8458 35.1733 80.2334 34.1908L77.7356 30.1835C76.8891 28.8255 77.9011 27.0727 79.5004 27.1267L84.2198 27.2862C85.3769 27.3253 86.3253 26.3769 86.2862 25.2198L86.1267 20.5004C86.0727 18.9011 87.8255 17.8891 89.1835 18.7356L93.1908 21.2334C94.1733 21.8458 95.4689 21.4986 96.0136 20.4771L98.2352 16.3102Z" fill="url(#paint2_linear_1494_5050)"/>
<defs>
<linearGradient id="paint0_linear_1494_5050" x1="6.71072" y1="149.006" x2="80.0958" y2="128.307" gradientUnits="userSpaceOnUse">
<stop stop-color="white" stop-opacity="0.9"/>
<stop offset="1" stop-color="#E8CFFF"/>
</linearGradient>
<linearGradient id="paint1_linear_1494_5050" x1="41.8257" y1="89.633" x2="120.322" y2="65.6474" gradientUnits="userSpaceOnUse">
<stop stop-color="white" stop-opacity="0.9"/>
<stop offset="1" stop-color="#E8CFFF"/>
</linearGradient>
<linearGradient id="paint2_linear_1494_5050" x1="67.2418" y1="63.9508" x2="127.658" y2="55.4303" gradientUnits="userSpaceOnUse">
<stop offset="0.265625" stop-color="white" stop-opacity="0.9"/>
<stop offset="1" stop-color="#E4C7FF"/>
</linearGradient>
</defs>
</svg>
