<svg width="139" height="180" viewBox="0 0 139 180" fill="none" xmlns="http://www.w3.org/2000/svg">
<rect width="139" height="180" rx="20" fill="#89D2FF"/>
<mask id="mask0_1494_5049" style="mask-type:alpha" maskUnits="userSpaceOnUse" x="0" y="0" width="139" height="180">
<rect width="139" height="180" rx="20" fill="#35CA89"/>
</mask>
<g mask="url(#mask0_1494_5049)">
<rect x="84.8398" y="56.0723" width="72" height="36" rx="7.45282" transform="rotate(15.0861 84.8398 56.0723)" fill="url(#paint0_linear_1494_5049)"/>
<rect x="7" y="35.6719" width="78" height="36" rx="7.45282" transform="rotate(-19.2165 7 35.6719)" fill="url(#paint1_linear_1494_5049)"/>
</g>
<path d="M43.2352 75.3102C43.988 73.8981 46.012 73.8981 46.7648 75.3102L48.9864 79.477C49.5311 80.4986 50.8267 80.8458 51.8092 80.2334L55.8165 77.7356C57.1745 76.8891 58.9273 77.9011 58.8733 79.5004L58.7138 84.2198C58.6747 85.3769 59.6231 86.3253 60.7802 86.2862L65.4996 86.1267C67.0989 86.0727 68.1109 87.8255 67.2644 89.1835L64.7666 93.1908C64.1542 94.1733 64.5014 95.4689 65.5229 96.0136L69.6898 98.2352C71.1019 98.988 71.1019 101.012 69.6898 101.765L65.523 103.986C64.5014 104.531 64.1542 105.827 64.7666 106.809L67.2644 110.816C68.1109 112.175 67.0989 113.927 65.4996 113.873L60.7802 113.714C59.6231 113.675 58.6747 114.623 58.7138 115.78L58.8733 120.5C58.9273 122.099 57.1745 123.111 55.8165 122.264L51.8092 119.767C50.8267 119.154 49.5311 119.501 48.9864 120.523L46.7648 124.69C46.012 126.102 43.988 126.102 43.2352 124.69L41.0136 120.523C40.469 119.501 39.1733 119.154 38.1908 119.767L34.1835 122.264C32.8255 123.111 31.0727 122.099 31.1267 120.5L31.2862 115.78C31.3253 114.623 30.3769 113.675 29.2198 113.714L24.5004 113.873C22.9011 113.927 21.8891 112.175 22.7356 110.816L25.2334 106.809C25.8458 105.827 25.4986 104.531 24.4771 103.986L20.3102 101.765C18.8981 101.012 18.8981 98.988 20.3102 98.2352L24.477 96.0136C25.4986 95.469 25.8458 94.1733 25.2334 93.1908L22.7356 89.1835C21.8891 87.8255 22.9011 86.0727 24.5004 86.1267L29.2198 86.2862C30.3769 86.3253 31.3253 85.3769 31.2862 84.2198L31.1267 79.5004C31.0727 77.9011 32.8255 76.8891 34.1835 77.7356L38.1908 80.2334C39.1733 80.8458 40.4689 80.4986 41.0136 79.4771L43.2352 75.3102Z" fill="url(#paint2_linear_1494_5049)"/>
<defs>
<linearGradient id="paint0_linear_1494_5049" x1="78.7222" y1="88.8264" x2="152.107" y2="68.1275" gradientUnits="userSpaceOnUse">
<stop offset="0.130208" stop-color="white" stop-opacity="0.9"/>
<stop offset="1" stop-color="#CFECFF"/>
</linearGradient>
<linearGradient id="paint1_linear_1494_5049" x1="57.1546" y1="37.6161" x2="9.24571" y2="70.3176" gradientUnits="userSpaceOnUse">
<stop stop-color="white" stop-opacity="0.9"/>
<stop offset="1" stop-color="#CFECFF"/>
</linearGradient>
<linearGradient id="paint2_linear_1494_5049" x1="12.2418" y1="122.951" x2="72.6584" y2="114.43" gradientUnits="userSpaceOnUse">
<stop offset="0.268573" stop-color="white" stop-opacity="0.9"/>
<stop offset="1" stop-color="#D0EDFF"/>
</linearGradient>
</defs>
</svg>
