<svg width="139" height="180" viewBox="0 0 139 180" fill="none" xmlns="http://www.w3.org/2000/svg">
<rect width="139" height="180" rx="20" fill="#FC9C47"/>
<mask id="mask0_1455_10809" style="mask-type:alpha" maskUnits="userSpaceOnUse" x="0" y="0" width="139" height="180">
<rect width="139" height="180" rx="20" fill="#35CA89"/>
</mask>
<g mask="url(#mask0_1455_10809)">
<rect x="10.3015" y="91.7942" width="118.473" height="41.6615" rx="20.8308" transform="rotate(-28.9443 10.3015 91.7942)" fill="url(#paint0_linear_1455_10809)"/>
<rect x="70.5964" y="111.912" width="78" height="40" rx="7.45282" transform="rotate(-12.4963 70.5964 111.912)" fill="url(#paint1_linear_1455_10809)"/>
</g>
<path d="M34.2352 13.3102C34.988 11.8981 37.012 11.8981 37.7648 13.3102L40.1647 17.8115C40.7094 18.8331 42.005 19.1803 42.9875 18.5679L47.3165 15.8696C48.6745 15.0231 50.4273 16.0351 50.3733 17.6344L50.201 22.7326C50.1619 23.8897 51.1103 24.8381 52.2674 24.799L57.3656 24.6267C58.9649 24.5727 59.9769 26.3255 59.1304 27.6835L56.4321 32.0125C55.8197 32.995 56.1669 34.2906 57.1885 34.8353L61.6898 37.2352C63.1019 37.988 63.1019 40.012 61.6898 40.7648L57.1885 43.1647C56.1669 43.7094 55.8197 45.005 56.4321 45.9875L59.1304 50.3165C59.9769 51.6745 58.9649 53.4273 57.3656 53.3733L52.2674 53.201C51.1103 53.1619 50.1619 54.1103 50.201 55.2674L50.3733 60.3656C50.4273 61.9649 48.6745 62.9769 47.3165 62.1304L42.9875 59.4321C42.005 58.8197 40.7094 59.1669 40.1647 60.1885L37.7648 64.6898C37.012 66.1019 34.988 66.1019 34.2352 64.6898L31.8353 60.1885C31.2906 59.1669 29.995 58.8197 29.0125 59.4321L24.6835 62.1304C23.3255 62.9769 21.5727 61.9649 21.6267 60.3656L21.799 55.2674C21.8381 54.1103 20.8897 53.1619 19.7326 53.201L14.6344 53.3733C13.0351 53.4273 12.0231 51.6745 12.8696 50.3165L15.5679 45.9875C16.1803 45.005 15.8331 43.7094 14.8115 43.1647L10.3102 40.7648C8.89811 40.012 8.89812 37.988 10.3102 37.2352L14.8115 34.8353C15.8331 34.2906 16.1803 32.995 15.5679 32.0125L12.8696 27.6835C12.0231 26.3255 13.0351 24.5727 14.6344 24.6267L19.7326 24.799C20.8897 24.8381 21.8381 23.8897 21.799 22.7326L21.6267 17.6344C21.5727 16.0351 23.3255 15.0231 24.6835 15.8696L29.0125 18.5679C29.995 19.1803 31.2906 18.8331 31.8353 17.8115L34.2352 13.3102Z" fill="url(#paint2_linear_1455_10809)"/>
<defs>
<linearGradient id="paint0_linear_1455_10809" x1="10.3015" y1="129.699" x2="116.008" y2="90.6262" gradientUnits="userSpaceOnUse">
<stop stop-color="white" stop-opacity="0.9"/>
<stop offset="1" stop-color="#FFECDB"/>
</linearGradient>
<linearGradient id="paint1_linear_1455_10809" x1="63.969" y1="148.306" x2="143.76" y2="126.362" gradientUnits="userSpaceOnUse">
<stop stop-color="white" stop-opacity="0.9"/>
<stop offset="1" stop-color="#FFECDB"/>
</linearGradient>
<linearGradient id="paint2_linear_1455_10809" x1="2.07189" y1="62.7705" x2="64.6462" y2="53.9457" gradientUnits="userSpaceOnUse">
<stop offset="0.268573" stop-color="white" stop-opacity="0.9"/>
<stop offset="1" stop-color="#FFECDB"/>
</linearGradient>
</defs>
</svg>
