<svg width="139" height="180" viewBox="0 0 139 180" fill="none" xmlns="http://www.w3.org/2000/svg">
<rect width="139" height="180" rx="20" fill="#35CA89"/>
<mask id="mask0_1489_10861" style="mask-type:alpha" maskUnits="userSpaceOnUse" x="0" y="0" width="139" height="180">
<rect width="139" height="180" rx="20" fill="#35CA89"/>
</mask>
<g mask="url(#mask0_1489_10861)">
<rect x="47.1462" y="120.087" width="118.473" height="41.6615" rx="20.8308" transform="rotate(-35.0626 47.1462 120.087)" fill="url(#paint0_linear_1489_10861)"/>
<path d="M-0.363596 41.704C1.71951 38.0015 6.37116 36.7554 10.0261 38.9208L58.1517 67.4327C60.3078 68.7101 61.7301 70.9714 61.9635 73.4929L63.4586 89.6461C63.7604 92.9074 62.0267 95.9888 59.1235 97.3512L44.7436 104.099C42.499 105.153 39.8794 105.019 37.7234 103.742L-10.4022 75.2301C-14.0572 73.0647 -15.3315 68.3078 -13.2484 64.6053L-0.363596 41.704Z" fill="url(#paint1_linear_1489_10861)"/>
<path d="M86.2352 19.3102C86.988 17.8981 89.012 17.8981 89.7648 19.3102L92.1647 23.8115C92.7094 24.8331 94.005 25.1803 94.9875 24.5679L99.3165 21.8696C100.675 21.0231 102.427 22.0351 102.373 23.6344L102.201 28.7326C102.162 29.8897 103.11 30.8381 104.267 30.799L109.366 30.6267C110.965 30.5727 111.977 32.3255 111.13 33.6835L108.432 38.0125C107.82 38.995 108.167 40.2906 109.188 40.8353L113.69 43.2352C115.102 43.988 115.102 46.012 113.69 46.7648L109.188 49.1647C108.167 49.7094 107.82 51.005 108.432 51.9875L111.13 56.3165C111.977 57.6745 110.965 59.4273 109.366 59.3733L104.267 59.201C103.11 59.1619 102.162 60.1103 102.201 61.2674L102.373 66.3656C102.427 67.9649 100.675 68.9769 99.3165 68.1304L94.9875 65.4321C94.005 64.8197 92.7094 65.1669 92.1647 66.1885L89.7648 70.6898C89.012 72.1019 86.988 72.1019 86.2352 70.6898L83.8353 66.1885C83.2906 65.1669 81.995 64.8197 81.0125 65.4321L76.6835 68.1304C75.3255 68.9769 73.5727 67.9649 73.6267 66.3656L73.799 61.2674C73.8381 60.1103 72.8897 59.1619 71.7326 59.201L66.6344 59.3733C65.0351 59.4273 64.0231 57.6745 64.8696 56.3165L67.5679 51.9875C68.1803 51.005 67.8331 49.7094 66.8115 49.1647L62.3102 46.7648C60.8981 46.012 60.8981 43.988 62.3102 43.2352L66.8115 40.8353C67.8331 40.2906 68.1803 38.995 67.5679 38.0125L64.8696 33.6835C64.0231 32.3255 65.0351 30.5727 66.6344 30.6267L71.7326 30.799C72.8897 30.8381 73.8381 29.8897 73.799 28.7326L73.6267 23.6344C73.5727 22.0351 75.3255 21.0231 76.6835 21.8696L81.0125 24.5679C81.995 25.1803 83.2906 24.8331 83.8353 23.8115L86.2352 19.3102Z" fill="url(#paint2_linear_1489_10861)"/>
</g>
<defs>
<linearGradient id="paint0_linear_1489_10861" x1="47.1462" y1="157.992" x2="152.853" y2="118.919" gradientUnits="userSpaceOnUse">
<stop stop-color="white" stop-opacity="0.9"/>
<stop offset="1" stop-color="#C9E5D9"/>
</linearGradient>
<linearGradient id="paint1_linear_1489_10861" x1="-21.1912" y1="64.4731" x2="62.9401" y2="85.2919" gradientUnits="userSpaceOnUse">
<stop stop-color="white" stop-opacity="0.9"/>
<stop offset="1" stop-color="#C9E5D9"/>
</linearGradient>
<linearGradient id="paint2_linear_1489_10861" x1="54.0719" y1="68.7705" x2="116.646" y2="59.9457" gradientUnits="userSpaceOnUse">
<stop offset="0.268573" stop-color="white" stop-opacity="0.9"/>
<stop offset="1" stop-color="#C9E6D9"/>
</linearGradient>
</defs>
</svg>
