<svg width="73" height="57" viewBox="0 0 73 57" fill="none" xmlns="http://www.w3.org/2000/svg">
<circle cx="48.2913" cy="31.607" r="19.8579" transform="rotate(16.2492 48.2913 31.607)" fill="#F1F3F5"/>
<circle cx="40.9385" cy="24.5753" r="1.44421" transform="rotate(16.2492 40.9385 24.5753)" fill="#DDE1E4"/>
<circle cx="49.9512" cy="27.2018" r="1.44421" transform="rotate(16.2492 49.9512 27.2018)" fill="#DDE1E4"/>
<path d="M41.1133 29.1392L47.3526 30.9577L45.4331 37.5436C44.9309 39.2666 43.1271 40.2562 41.4042 39.754C39.6812 39.2519 38.6916 37.4481 39.1938 35.7251L41.1133 29.1392Z" fill="#DDE1E4"/>
<path d="M2.63136 9.82034C1.1781 7.30322 2.04052 4.0846 4.55764 2.63134C7.07475 1.17808 10.2934 2.04051 11.7466 4.55763L22.7625 23.6376C23.1773 24.3561 23.361 25.1848 23.2889 26.0113L22.7881 31.7438C22.6973 32.7837 21.6005 33.4169 20.6545 32.9756L15.4396 30.543C14.6878 30.1923 14.062 29.6188 13.6472 28.9003L2.63136 9.82034Z" fill="#F1F3F5"/>
<path d="M2.63135 9.82033C1.17809 7.30322 2.04052 4.0846 4.55764 2.63134C7.07475 1.17808 10.2934 2.04051 11.7466 4.55763L22.1649 22.6025L17.6072 25.2339L13.0496 27.8652L2.63135 9.82033Z" fill="#DDE1E4"/>
<path d="M18.5362 36.7015C14.0793 36.7015 6.01636 36.4772 6.0166 40.5004C6.01687 45 12.3576 47.0216 30.7423 49.2856" stroke="url(#paint0_linear_1778_1888)" stroke-width="2.54702" stroke-linecap="round"/>
<defs>
<linearGradient id="paint0_linear_1778_1888" x1="10.2438" y1="36.7012" x2="36.563" y2="56.6529" gradientUnits="userSpaceOnUse">
<stop stop-color="#DDE1E4"/>
<stop offset="1" stop-color="#F1F3F5"/>
</linearGradient>
</defs>
</svg>
