<svg width="126" height="173" viewBox="0 0 126 173" fill="none" xmlns="http://www.w3.org/2000/svg" xmlns:xlink="http://www.w3.org/1999/xlink">
<style>.Frame_59 {
	animation: 1.2s linear 0s normal infinite running Frame_59;
		transform: translateX(29.61px) translateY(58.9px);
}
@keyframes Frame_59 {
	0% {
		transform: translateX(29.61px) translateY(58.9px);
	}
	25% {
		transform: translateX(29.61px) translateY(46.5px);
	}
	50% {
		transform: translateX(29.61px) translateY(58.9px);
	}
	75% {
		transform: translateX(29.61px) translateY(46.5px);
	}
	100% {
		transform: translateX(29.61px) translateY(58.9px);
	}
}._191 {
	animation: 1.2s linear 0s normal infinite running _191;
		transform: translateX(0px) translateY(0px);
}
@keyframes _191 {
	0% {
		transform: translateX(0px) translateY(0px);
	}
	75% {
		transform: translateX(-74px) translateY(0px);
	}
	100% {
		transform: translateX(-74px) translateY(0px);
	}
}._566 {
	animation: 1.2s linear 0s normal infinite running _566;
		transform: translateX(0px) translateY(0px);
}
@keyframes _566 {
	0% {
		transform: translateX(0px) translateY(0px);
	}
	50% {
		transform: translateX(0px) translateY(0px);
	}
	75% {
		transform: translateX(-74px) translateY(0px);
	}
	100% {
		transform: translateX(-74px) translateY(0px);
	}
}._989 {
	animation: 1.2s linear 0s normal infinite running _989;
		transform: translateX(0px) translateY(0px);
}
@keyframes _989 {
	0% {
		transform: translateX(0px) translateY(0px);
	}
	25% {
		transform: translateX(0px) translateY(0px);
	}
	50% {
		transform: translateX(-74px) translateY(0px);
	}
	100% {
		transform: translateX(-74px) translateY(0px);
	}
}._976 {
	animation: 1.2s linear 0s normal infinite running _976;
		transform: translateX(0px) translateY(0px);
}
@keyframes _976 {
	0% {
		transform: translateX(0px) translateY(0px);
	}
	25% {
		transform: translateX(-74px) translateY(0px);
	}
	100% {
		transform: translateX(-74px) translateY(0px);
	}
}.Draw_817 {
	animation: 1.2s linear 0s normal infinite running Draw_817;
		transform: translateX(29px) translateY(28.01px);
}
@keyframes Draw_817 {
	0% {
		transform: translateX(29px) translateY(28.01px);
	}
	25% {
		transform: translateX(29px) translateY(14.11px);
	}
	50% {
		transform: translateX(29px) translateY(28.01px);
	}
	75% {
		transform: translateX(29px) translateY(14.11px);
	}
	100% {
		transform: translateX(29px) translateY(28.01px);
	}
}
</style>
<g clip-path="url(#clip_0_604)" width="126" height="173" data-name="card loading">
	<g transform="translate(29.61 57.66)" clip-path="url(#clip_1_503)" class="Frame_59" width="68" height="87" data-name="Frame">
		<rect width="68" height="87" fill="#35CA89" data-name="Frame"/>
		<rect width="68" height="87" fill="#89D2FF" data-name="파랑" class="_191"/>
		<rect width="68" height="87" fill="#FC9C47" data-name="주황" class="_566"/>
		<rect width="68" height="87" fill="#C388FF" data-name="퍼플" class="_989"/>
		<rect width="68" height="87" fill="#35CA89" data-name="초록" class="_976"/>
		<path d="M9.71588 18.4554C9.97385 18.7636 10.0899 19.0076 10.0641 19.1874C9.98675 19.4443 9.76748 19.6626 9.40632 19.8424C9.04516 19.9965 8.65821 20.0735 8.24546 20.0735C7.033 20.0735 6.03982 19.7782 5.26591 19.1874C4.5178 18.571 4.14374 17.7876 4.14374 16.8373C4.14374 16.4777 4.19534 16.1438 4.29852 15.8356C4.5307 15.0137 4.96925 14.3459 5.61417 13.8322C6.28489 13.2928 7.26517 12.6507 8.55502 11.9059C9.94805 11.1353 11.0186 10.429 11.7667 9.7869C12.5149 9.14479 13.0308 8.31005 13.3146 7.28267C13.3919 6.92308 13.4306 6.58918 13.4306 6.28097C13.4306 5.4077 13.134 4.7399 12.5406 4.27758C11.9473 3.81526 11.3153 3.5841 10.6446 3.5841C9.92226 3.5841 9.29023 3.68684 8.7485 3.89231C9.03226 4.63716 9.17415 5.42054 9.17415 6.24244C9.17415 6.62771 9.13545 6.97445 9.05806 7.28267C8.77429 8.25868 8.25835 9.01637 7.51024 9.55574C6.76213 10.0951 5.80765 10.3648 4.64678 10.3648C3.25375 10.3648 2.13158 9.99238 1.28028 9.24753C0.428983 8.477 0.00333405 7.50098 0.00333405 6.3195C0.00333405 5.90855 0.0549278 5.51044 0.158116 5.12517C0.54507 3.48136 1.69303 2.22282 3.60201 1.34955C5.53678 0.450591 7.97459 0.00111198 10.9154 0.00111198C13.4177 0.00111198 15.6105 0.399222 17.4937 1.19544C19.3768 1.99166 20.8215 3.05757 21.8275 4.39316C22.8336 5.70307 23.3367 7.11572 23.3367 8.6311C23.3367 9.09342 23.2722 9.60711 23.1432 10.1722C22.8336 11.4307 22.2919 12.4452 21.518 13.2158C20.7699 13.9606 19.6606 14.5899 18.1902 15.1036C16.7455 15.5916 14.7334 16.0539 12.1537 16.4906C11.1734 16.6703 10.5027 16.8373 10.1415 16.9914C9.78037 17.1455 9.5482 17.351 9.44501 17.6078L9.40632 17.7619C9.40632 17.916 9.50951 18.1472 9.71588 18.4554ZM6.62025 21.9597C7.65213 21.9597 8.51632 22.255 9.21284 22.8458C9.90936 23.4108 10.2576 24.1172 10.2576 24.9647C10.2834 25.5812 10.1028 26.1848 9.71588 26.7755C9.35472 27.3662 8.83879 27.8542 8.16807 28.2395C7.49735 28.5991 6.74923 28.7789 5.92373 28.7789C4.86606 28.7789 3.98896 28.4835 3.29244 27.8928C2.62172 27.2763 2.28636 26.5315 2.28636 25.6582C2.28636 25.0675 2.46694 24.4896 2.8281 23.9245C3.21505 23.3595 3.73099 22.8971 4.37592 22.5376C5.04664 22.1523 5.79475 21.9597 6.62025 21.9597Z" fill="white" data-name="?" transform="translate(24 30)"/>
	</g>
	<path d="M11.817 0.613226C14.1568 0.613226 15.9195 1.06558 17.105 1.9703C18.2904 2.85942 18.8832 4.1697 18.8832 5.90114C18.8832 6.75906 18.7272 7.74957 18.4152 8.87267C17.9005 10.6821 17.2063 12.1172 16.3328 13.1779C15.4593 14.2386 14.305 15.0107 12.8699 15.4943C11.4505 15.9778 9.62544 16.2118 7.39485 16.1962L1.03063 16.1728C0.703061 16.1728 0.453484 16.1182 0.2819 16.009C0.0947168 15.8998 0.00112534 15.7516 0.00112534 15.5645C0.00112534 15.4709 0.0245232 15.3695 0.0713189 15.2603C0.118115 15.1199 0.188308 15.0185 0.2819 14.9561C0.359892 14.8937 0.484681 14.8079 0.656265 14.6987C0.905842 14.5583 1.10082 14.4024 1.24121 14.2308C1.3972 14.0592 1.52978 13.7862 1.63897 13.4119L4.49351 3.35077C4.55591 3.14799 4.5871 2.95301 4.5871 2.76583C4.5871 2.59424 4.55591 2.45386 4.49351 2.34467C4.44672 2.21988 4.37652 2.07949 4.28293 1.92351C4.14255 1.72072 4.07235 1.55694 4.07235 1.43215C4.07235 1.38535 4.08795 1.29956 4.11915 1.17477C4.18154 0.971993 4.31413 0.831606 4.51691 0.753613C4.73529 0.660022 5.06286 0.613226 5.49962 0.613226H11.817ZM12.4254 8.35791C12.8309 6.89165 13.0337 5.73736 13.0337 4.89503C13.0337 4.06831 12.8621 3.49896 12.519 3.18699C12.1758 2.87502 11.6845 2.71903 11.0449 2.71903H10.5302L7.37145 14.0904H7.933C8.65053 14.0904 9.25108 13.9422 9.73463 13.6458C10.2338 13.3339 10.6939 12.7723 11.1151 11.9612C11.5363 11.1345 11.973 9.93337 12.4254 8.35791Z" fill="#CAD0D6" data-name="Draw" class="Draw_817"/>
	<path d="M30.1717 3.81873C31.0453 3.81873 31.7394 4.08391 32.2541 4.61426C32.7845 5.14461 33.0497 5.79975 33.0497 6.57968C33.0497 6.87605 33.0185 7.14903 32.9561 7.3986C32.8001 8.03814 32.5037 8.5295 32.067 8.87267C31.6302 9.21584 31.1077 9.38742 30.4993 9.38742C29.9066 9.38742 29.4542 9.24703 29.1422 8.96626C28.8459 8.68548 28.5807 8.31112 28.3467 7.84316C28.2219 7.57799 28.1049 7.383 27.9957 7.25821C27.8866 7.13343 27.7618 7.07103 27.6214 7.07103C27.4654 7.07103 27.325 7.13343 27.2002 7.25821C27.091 7.383 26.9896 7.60138 26.896 7.91336L25.0944 13.7628C25.0632 13.8408 25.0476 13.9578 25.0476 14.1138C25.0476 14.3166 25.1022 14.4882 25.2114 14.6285C25.3362 14.7533 25.5 14.8781 25.7028 15.0029C25.8899 15.1277 26.0147 15.2291 26.0771 15.3071C26.1395 15.3851 26.1629 15.4865 26.1473 15.6112C26.1161 15.814 25.9991 15.9622 25.7963 16.0558C25.6092 16.1494 25.2816 16.1962 24.8136 16.1962H18.8238C18.4182 16.1962 18.1296 16.1338 17.9581 16.009C17.7709 15.8686 17.7007 15.6892 17.7475 15.4709C17.8099 15.2837 17.9737 15.1199 18.2388 14.9795C18.4728 14.8547 18.6678 14.7065 18.8238 14.5349C18.9798 14.3634 19.1124 14.0904 19.2215 13.716L21.304 6.95404C21.3352 6.87605 21.3507 6.76686 21.3507 6.62647C21.3507 6.45489 21.3118 6.3223 21.2338 6.22871C21.1714 6.13512 21.0622 6.01813 20.9062 5.87774C20.7502 5.75295 20.641 5.64376 20.5786 5.55017C20.5162 5.45658 20.5084 5.33179 20.5552 5.17581C20.6488 4.81704 21.1402 4.50507 22.0293 4.23989C22.9184 3.95912 23.8465 3.81873 24.8136 3.81873C25.4532 3.81873 25.9835 3.96692 26.4047 4.26329C26.8258 4.54407 27.0988 4.94963 27.2236 5.47998C27.9723 4.37248 28.9551 3.81873 30.1717 3.81873Z" fill="#CAD0D6" data-name="Draw" class="Draw_817"/>
	<path d="M40.1292 3.81873C41.923 3.81873 43.3581 4.1541 44.4344 4.82484C45.5107 5.47998 46.0488 6.48609 46.0488 7.84316C46.0488 8.35791 45.9552 8.94286 45.7681 9.598L44.8087 12.8269C44.7931 12.8893 44.7853 12.9673 44.7853 13.0609C44.7853 13.3105 44.8867 13.4352 45.0895 13.4352C45.2767 13.4352 45.4327 13.3573 45.5575 13.2013C45.6979 13.0297 45.7915 12.9439 45.8382 12.9439C45.9162 12.9439 45.9786 12.9985 46.0254 13.1077C46.0878 13.2169 46.119 13.3417 46.119 13.482C46.1346 13.9032 45.9708 14.3322 45.6277 14.7689C45.3001 15.2057 44.8555 15.5645 44.294 15.8452C43.7324 16.126 43.1163 16.2664 42.4456 16.2664C41.6344 16.2664 40.9403 16.1182 40.3631 15.8218C39.786 15.5255 39.3882 15.0887 39.1699 14.5115C38.7019 15.0731 38.1482 15.5099 37.5086 15.8218C36.8691 16.1182 36.1827 16.2664 35.4496 16.2664C34.6229 16.2664 33.9287 16.1104 33.3672 15.7984C32.8056 15.4709 32.3845 15.0575 32.1037 14.5583C31.8385 14.0436 31.7059 13.5054 31.7059 12.9439C31.7059 12.6943 31.7293 12.4525 31.7761 12.2186C32.0257 11.1423 32.5639 10.3311 33.3906 9.78518C34.2329 9.23923 35.2312 8.96626 36.3855 8.96626C37.6802 8.96626 38.9515 9.16904 40.1994 9.5746L40.7843 8.03034C40.9871 7.3752 41.0885 6.86825 41.0885 6.50948C41.0729 6.13512 40.9481 5.85434 40.7141 5.66716C40.4801 5.47998 40.1214 5.38639 39.6378 5.38639C39.7314 5.63596 39.7782 5.89334 39.7782 6.15852C39.7782 6.73566 39.5598 7.23482 39.1231 7.65598C38.6863 8.07714 38.0624 8.28772 37.2512 8.28772C36.4869 8.28772 35.8864 8.12394 35.4496 7.79637C35.0284 7.4532 34.8179 7.03204 34.8179 6.53288C34.8179 5.75295 35.2546 5.10561 36.1281 4.59086C37.0017 4.07611 38.3353 3.81873 40.1292 3.81873ZM38.8189 10.9083C38.3821 10.9083 38.0234 11.0799 37.7426 11.423C37.4774 11.7506 37.3448 12.1094 37.3448 12.4993C37.3448 12.7489 37.3994 12.9517 37.5086 13.1077C37.6334 13.2637 37.805 13.3417 38.0234 13.3417C38.2261 13.3417 38.4445 13.2637 38.6785 13.1077C38.9281 12.9361 39.1075 12.6865 39.2167 12.3589L39.708 10.9785C39.4428 10.9317 39.1465 10.9083 38.8189 10.9083Z" fill="#CAD0D6" data-name="Draw" class="Draw_817"/>
	<path d="M68.5989 7.14123C68.5989 8.5295 68.1153 9.94897 67.1482 11.3996C66.1811 12.8503 64.9566 14.0514 63.4747 15.0029C62.0085 15.9388 60.5656 16.4068 59.1461 16.4068C58.023 16.4068 57.0715 16.2118 56.2916 15.8218C55.5117 15.4319 55.0047 14.8703 54.7707 14.1372C54.1936 14.8391 53.5541 15.3695 52.8521 15.7282C52.1502 16.087 51.417 16.2664 50.6527 16.2664C49.592 16.2664 48.7263 16.009 48.0556 15.4943C47.4004 14.9639 47.0728 14.1918 47.0728 13.1779C47.0728 12.6475 47.1586 12.1016 47.3302 11.54L48.6405 6.95404C48.6717 6.82925 48.6873 6.73566 48.6873 6.67327C48.6873 6.51728 48.6483 6.3847 48.5703 6.27551C48.4923 6.16632 48.3831 6.04933 48.2427 5.92454C48.0088 5.72176 47.8918 5.54237 47.8918 5.38639C47.8762 5.16801 48.0088 4.93403 48.2895 4.68445C48.5703 4.43487 48.9603 4.23209 49.4594 4.07611C49.9742 3.90452 50.5513 3.81873 51.1909 3.81873C52.236 3.81873 53.0471 4.07611 53.6242 4.59086C54.217 5.09001 54.5134 5.74515 54.5134 6.55628C54.5134 6.91505 54.451 7.30501 54.3262 7.72617L53.1329 11.7038C53.0705 11.9222 53.0393 12.0704 53.0393 12.1484C53.0393 12.3511 53.0939 12.5071 53.2031 12.6163C53.3279 12.7255 53.4917 12.7801 53.6944 12.7801C53.9752 12.7801 54.2092 12.6865 54.3964 12.4993C54.5992 12.2966 54.7941 11.9768 54.9813 11.54L56.315 6.95404C56.3462 6.82925 56.3618 6.73566 56.3618 6.67327C56.3618 6.51728 56.3228 6.3847 56.2448 6.27551C56.1668 6.16632 56.0576 6.04933 55.9172 5.92454C55.6833 5.72176 55.5663 5.54237 55.5663 5.38639C55.5507 5.16801 55.6833 4.93403 55.964 4.68445C56.2448 4.43487 56.6348 4.23209 57.1339 4.07611C57.6487 3.90452 58.2258 3.81873 58.8654 3.81873C59.9261 3.81873 60.745 4.06831 61.3221 4.56746C61.8993 5.06662 62.1879 5.72956 62.1879 6.55628C62.1879 6.88385 62.1255 7.27381 62.0007 7.72617L60.4798 12.7333C60.4486 12.8113 60.433 12.9283 60.433 13.0843C60.433 13.2871 60.5032 13.443 60.6436 13.5522C60.784 13.6614 60.979 13.716 61.2285 13.716C61.5717 13.716 61.9695 13.5678 62.4218 13.2715C62.8898 12.9595 63.3422 12.5227 63.7789 11.9612C64.2313 11.384 64.5978 10.7055 64.8786 9.92557C64.2547 9.37962 63.8101 8.84147 63.5449 8.31112C63.2954 7.78077 63.1706 7.23482 63.1706 6.67327C63.1706 5.87774 63.3889 5.207 63.8257 4.66105C64.2625 4.09951 64.8942 3.81873 65.7209 3.81873C66.5477 3.81873 67.234 4.1151 67.7799 4.70785C68.3259 5.3006 68.5989 6.11172 68.5989 7.14123Z" fill="#CAD0D6" data-name="Draw" class="Draw_817"/>
</g>
<defs><clipPath id="clip_0_604"><rect width="126" height="173"/></clipPath><clipPath id="clip_1_503"><rect width="68" height="87"/></clipPath>
</defs>
</svg>
