<svg id="eGaEeP7lCzV1" xmlns="http://www.w3.org/2000/svg" xmlns:xlink="http://www.w3.org/1999/xlink" viewBox="0 0 69 128" shape-rendering="geometricPrecision" text-rendering="geometricPrecision"><path id="eGaEeP7lCzV2" d="M11.8159,0.05176c2.3398,0,4.1024.45236,5.2879,1.35707c1.1855.88912,1.7783,2.1994,1.7783,3.93084c0,.85792-.156,1.84843-.468,2.97153-.5147,1.8094-1.2089,3.2445-2.0824,4.3052s-2.0278,1.8328-3.4629,2.3164c-1.4195.4835-3.24448.7175-5.47508.7019l-6.36421-.0234c-.32757,0-.57715-.0546-.74874-.1638C0.09359,15.3384,0,15.1902,0,15.003c0-.0936.0234-.195.07019-.3042.04679-.1404.11699-.2418.21058-.3042.07799-.0624.20278-.1481.37437-.2573.24958-.1404.44456-.2964.58495-.468.15598-.1716.28857-.4446.39776-.8189L4.49239,2.78931c.06239-.20278.09359-.39777.09359-.58495c0-.17158-.0312-.31197-.09359-.42116-.0468-.12479-.11699-.26518-.21058-.42116-.14039-.20278-.21058-.36657-.21058-.49136c0-.04679.01559-.13259.04679-.25738.0624-.20278.19498-.34317.39777-.42116.21838-.09359.54595-.14039.98271-.14039l6.3174.00001Zm.6084,7.74469c.4055-1.46627.6083-2.62056.6083-3.46289c0-.82672-.1716-1.39607-.5148-1.70804-.3431-.31197-.8345-.46796-1.474-.46796h-.5148L7.37032,13.5289h.56155c.71754,0,1.31808-.1482,1.80164-.4445.49919-.312.95929-.8736,1.38049-1.6847.4211-.8267.8579-2.0278,1.3103-3.60325ZM30.1706,3.25726c.8735,0,1.5677.26518,2.0824.79553.5304.53035.7955,1.18549.7955,1.96542c0,.29637-.0311.56935-.0935.81892-.156.63955-.4524,1.1309-.8892,1.47407s-.9593.51475-1.5676.51475c-.5928,0-1.0451-.14039-1.3571-.42116-.2964-.28077-.5615-.65514-.7955-1.1231-.1248-.26517-.2418-.46015-.351-.58494s-.234-.18719-.3744-.18719c-.1559,0-.2963.0624-.4211.18719-.1092.12479-.2106.34317-.3042.65514L25.0933,13.2014c-.0312.0779-.0468.1949-.0468.3509c0,.2028.0546.3744.1638.5148.1248.1248.2885.2495.4913.3743.1872.1248.312.2262.3744.3042s.0858.1794.0702.3042c-.0312.2028-.1482.3509-.351.4445-.1872.0936-.5147.1404-.9827.1404h-5.9898c-.4056,0-.6942-.0624-.8658-.1872-.1871-.1403-.2573-.3197-.2105-.5381.0623-.1872.2261-.351.4913-.4914.234-.1248.429-.2729.585-.4445.1559-.1716.2885-.4446.3977-.8189l2.0824-6.76202c.0312-.078.0468-.18719.0468-.32757c0-.17159-.039-.30418-.117-.39777-.0624-.09359-.1715-.21058-.3275-.35097-.156-.12478-.2652-.23397-.3276-.32757s-.0702-.21838-.0234-.37436c.0936-.35877.5849-.67074,1.4741-.93592.8891-.28077,1.8172-.42116,2.7843-.42116.6395,0,1.1699.14819,1.5911.44456.4211.28078.6941.68634.8189,1.21669.7487-1.1075,1.7314-1.66125,2.9481-1.66125Zm9.9574,0c1.7939,0,3.2289.33537,4.3053,1.00611c1.0763.65514,1.6144,1.66125,1.6144,3.01832c0,.51476-.0936,1.0997-.2808,1.75484l-.9593,3.22887c-.0156.0624-.0234.1404-.0234.234c0,.2496.1014.3744.3042.3744.1872,0,.3432-.078.4679-.234.1404-.1716.234-.2574.2808-.2574.078,0,.1404.0546.1872.1638.0624.1092.0936.234.0936.3744.0156.4211-.1482.8501-.4914,1.2869-.3275.4367-.7721.7955-1.3336,1.0763-.5616.2807-1.1777.4211-1.8485.4211-.8111,0-1.5052-.1482-2.0824-.4445-.5771-.2964-.9749-.7332-1.1933-1.3103-.4679.5615-1.0217.9983-1.6612,1.3103-.6396.2963-1.3259.4445-2.059.4445-.8267,0-1.5209-.156-2.0824-.4679-.5616-.3276-.9827-.741-1.2635-1.2401-.2652-.5148-.3978-1.0529-.3978-1.6145c0-.2496.0234-.4913.0702-.7253.2496-1.0763.7877-1.88743,1.6145-2.43338.8423-.54595,1.8406-.81893,2.9949-.81893c1.2947,0,2.566.20278,3.8138.60834l.585-1.54425c.2028-.65514.3042-1.1621.3042-1.52086-.0156-.37437-.1404-.65514-.3744-.84233s-.5928-.28077-1.0763-.28077c.0936.24958.1404.50695.1404.77213c0,.57715-.2184,1.0763-.6552,1.49746-.4367.42116-1.0607.63174-1.8718.63174-.7643,0-1.3649-.16378-1.8016-.49135-.4212-.34317-.6318-.76433-.6318-1.26349c0-.77992.4368-1.42727,1.3103-1.94202s2.2072-.77213,4.001-.77213ZM38.8178,10.3468c-.4368,0-.7956.1716-1.0763.5148-.2652.3275-.3978.6863-.3978,1.0763c0,.2495.0546.4523.1638.6083.1248.156.2964.234.5147.234.2028,0,.4212-.078.6552-.234.2496-.1716.4289-.4212.5381-.7487l.4914-1.3805c-.2652-.0468-.5616-.0702-.8891-.0702ZM68.5977,6.57976c0,1.38827-.4835,2.80774-1.4506,4.25844-.9671,1.4506-2.1916,2.6517-3.6735,3.6032-1.4663.9359-2.9091,1.4039-4.3286,1.4039-1.1231,0-2.0746-.195-2.8545-.5849-.78-.39-1.2869-.9516-1.5209-1.6847-.5771.702-1.2167,1.2323-1.9186,1.5911-.7019.3587-1.4351.5381-2.1994.5381-1.0607,0-1.9264-.2574-2.5972-.7721-.6551-.5304-.9827-1.3025-.9827-2.3164c0-.5303.0858-1.0763.2574-1.6378l1.3103-4.58602c.0312-.12479.0468-.21838.0468-.28078c0-.15598-.039-.28857-.117-.39776s-.1872-.22618-.3276-.35097c-.234-.20278-.351-.38216-.351-.53815-.0156-.21838.117-.45236.3978-.70194s.6707-.45235,1.1699-.60834c.5148-.17158,1.0919-.25738,1.7314-.25738c1.0451,0,1.8563.25738,2.4334.77213.5928.49916.8891,1.1543.8891,1.96542c0,.35877-.0624.74873-.1871,1.16989l-1.1933,3.9776c-.0624.2184-.0936.3666-.0936.4446c0,.2028.0546.3588.1638.468.1247.1091.2885.1637.4913.1637.2808,0,.5148-.0936.7019-.2807.2028-.2028.3978-.5226.585-.9593l1.3337-4.58602c.0312-.12479.0468-.21838.0468-.28078c0-.15598-.039-.28857-.117-.39776s-.1872-.22618-.3276-.35097c-.234-.20278-.351-.38216-.351-.53815-.0156-.21838.117-.45236.3978-.70194s.6707-.45235,1.1699-.60834c.5147-.17158,1.0919-.25738,1.7314-.25738c1.0607,0,1.8797.24958,2.4568.74873.5772.49916.8657,1.1621.8657,1.98882c0,.32757-.0624.71754-.1872,1.16989l-1.5208,5.0071c-.0312.078-.0468.195-.0468.351c0,.2028.0702.3588.2106.468s.3353.1638.5849.1638c.3432,0,.741-.1482,1.1933-.4446.468-.312.9203-.7487,1.3571-1.3103.4523-.5771.8189-1.2557,1.0997-2.0356-.624-.54595-1.0685-1.0841-1.3337-1.61445-.2496-.53035-.3744-1.0763-.3744-1.63785c0-.79553.2184-1.46626.6552-2.01221.4367-.56155,1.0685-.84233,1.8952-.84233s1.5131.29638,2.059.88912.8189,1.40387.8189,2.43338Z" transform="translate(.000001 8.051475)" fill="#cad0d6"/><g id="eGaEeP7lCzV3" transform="translate(0-28.765709)" mask="url(#eGaEeP7lCzV10)"><rect width="68.5977" height="87" rx="0" ry="0" transform="matrix(1.005865 0 0 1-.000012 64.76571)" fill="#35ca89" stroke-width="0"/><rect id="eGaEeP7lCzV5" width="69.00002" height="87" rx="0" ry="0" transform="translate(.000001 64.76571)" fill="#89d2ff" stroke-width="0"/><rect id="eGaEeP7lCzV6" width="69.00002" height="87" rx="0" ry="0" transform="translate(.000001 64.76571)" fill="#fc9c47" stroke-width="0"/><rect id="eGaEeP7lCzV7" width="68.5977" height="87" rx="0" ry="0" transform="matrix(1.005865 0 0 1-.000012 64.765712)" fill="#c5a8fb" stroke-width="0"/><rect id="eGaEeP7lCzV8" width="59.15665" height="87" rx="0" ry="0" transform="matrix(1.166395 0 0 1-.402319 64.76571)" fill="#35ca89" stroke-width="0"/><path d="M34.186021,79.54599c.254314.31058.368656.556464.343225.737652-.076196.258883-.292362.478869-.648401.660057-.35594.15529-.737411.232885-1.144214.232885-1.195175,0-2.174184-.29758-2.937026-.892942-.737411-.62116-1.106067-1.410608-1.106067-2.368246c0-.362376.050764-.698855.15249-1.009434.228882-.828246.661215-1.501203,1.2969-2.018869.661117-.543565,1.62741-1.190623,2.898781-1.941173c1.373194-.77655,2.428399-1.488304,3.165809-2.135362.73751-.647057,1.246038-1.488202,1.525783-2.523535.076294-.362377.114441-.698855.114441-1.009434c0-.880043-.29246-1.553-.877283-2.018869s-1.207891-.698855-1.869008-.698855c-.711979,0-1.335047.103493-1.869007.31058.279745.750651.419617,1.539999.419617,2.368346c0,.388174-.038147.737652-.114441,1.048232-.279745.983536-.788273,1.747086-1.525684,2.29055-.737509.543565-1.678272.815348-2.822585.815348-1.373096,0-2.479261-.375276-3.318397-1.125927-.839137-.77645-1.258754-1.759986-1.258754-2.950608c0-.414073.050863-.815347.152588-1.203522.38147-1.656492,1.512969-2.92481,3.394692-3.804752c1.907154-.905941,4.310122-1.358912,7.209001-1.358912c2.466546,0,4.627915.401174,6.484207,1.203521c1.856193.802449,3.280251,1.876579,4.271975,3.222491.991626,1.320014,1.487537,2.743521,1.487537,4.270622c0,.46587-.063578.983536-.190735,1.552999-.305176,1.268218-.839136,2.290652-1.601978,3.067101-.737411.750551-1.830861,1.384709-3.280251,1.902376-1.423959.491768-3.407407.957637-5.950247,1.397709-.966293.181188-1.62741.349377-1.983449.504667s-.584823.362377-.686548.621159l-.038147.15529c0,.155391.101725.388275.305176.698855Zm-3.051368,3.531357c1.017057,0,1.868909.29758,2.555555.892942.686548.569363,1.029773,1.281217,1.029773,2.135261.025431.62126-.152588,1.22952-.53396,1.824781-.356039.595261-.864567,1.08713-1.525684,1.475304-.661117.362377-1.398626.543565-2.212331.543565-1.042488,0-1.907056-.297681-2.593604-.892942-.661215-.621159-.991724-1.371811-.991724-2.251854c0-.595261.178019-1.177623.53396-1.747086.38147-.569362.889999-1.035333,1.525684-1.397609.661117-.388274,1.398626-.582362,2.212331-.582362Z" transform="translate(-.540499 32.81651)" fill="#fff"/><mask id="eGaEeP7lCzV10" mask-type="luminance" x="-150%" y="-150%" height="400%" width="400%"><rect width="69.00002" height="87" rx="12" ry="12" transform="translate(.000001 64.76571)" fill="#d2dbed" stroke-width="0"/></mask></g>
<script><![CDATA[
!function(t,n){"object"==typeof exports&&"undefined"!=typeof module?module.exports=n():"function"==typeof __SVGATOR_DEFINE__&&__SVGATOR_DEFINE__.amd?__SVGATOR_DEFINE__(n):((t="undefined"!=typeof globalThis?globalThis:t||self).__SVGATOR_PLAYER__=t.__SVGATOR_PLAYER__||{},t.__SVGATOR_PLAYER__["5c7f360c"]=n())}(this,(function(){"use strict";function t(t,n){var e=Object.keys(t);if(Object.getOwnPropertySymbols){var r=Object.getOwnPropertySymbols(t);n&&(r=r.filter((function(n){return Object.getOwnPropertyDescriptor(t,n).enumerable}))),e.push.apply(e,r)}return e}function n(n){for(var e=1;e<arguments.length;e++){var r=null!=arguments[e]?arguments[e]:{};e%2?t(Object(r),!0).forEach((function(t){u(n,t,r[t])})):Object.getOwnPropertyDescriptors?Object.defineProperties(n,Object.getOwnPropertyDescriptors(r)):t(Object(r)).forEach((function(t){Object.defineProperty(n,t,Object.getOwnPropertyDescriptor(r,t))}))}return n}function e(t){return(e="function"==typeof Symbol&&"symbol"==typeof Symbol.iterator?function(t){return typeof t}:function(t){return t&&"function"==typeof Symbol&&t.constructor===Symbol&&t!==Symbol.prototype?"symbol":typeof t})(t)}function r(t,n){if(!(t instanceof n))throw new TypeError("Cannot call a class as a function")}function i(t,n){for(var e=0;e<n.length;e++){var r=n[e];r.enumerable=r.enumerable||!1,r.configurable=!0,"value"in r&&(r.writable=!0),Object.defineProperty(t,r.key,r)}}function o(t,n,e){return n&&i(t.prototype,n),e&&i(t,e),t}function u(t,n,e){return n in t?Object.defineProperty(t,n,{value:e,enumerable:!0,configurable:!0,writable:!0}):t[n]=e,t}function a(t){return(a=Object.setPrototypeOf?Object.getPrototypeOf:function(t){return t.__proto__||Object.getPrototypeOf(t)})(t)}function l(t,n){return(l=Object.setPrototypeOf||function(t,n){return t.__proto__=n,t})(t,n)}function s(){if("undefined"==typeof Reflect||!Reflect.construct)return!1;if(Reflect.construct.sham)return!1;if("function"==typeof Proxy)return!0;try{return Boolean.prototype.valueOf.call(Reflect.construct(Boolean,[],(function(){}))),!0}catch(t){return!1}}function f(t,n,e){return(f=s()?Reflect.construct:function(t,n,e){var r=[null];r.push.apply(r,n);var i=new(Function.bind.apply(t,r));return e&&l(i,e.prototype),i}).apply(null,arguments)}function c(t,n){if(n&&("object"==typeof n||"function"==typeof n))return n;if(void 0!==n)throw new TypeError("Derived constructors may only return object or undefined");return function(t){if(void 0===t)throw new ReferenceError("this hasn't been initialised - super() hasn't been called");return t}(t)}function h(t,n,e){return(h="undefined"!=typeof Reflect&&Reflect.get?Reflect.get:function(t,n,e){var r=function(t,n){for(;!Object.prototype.hasOwnProperty.call(t,n)&&null!==(t=a(t)););return t}(t,n);if(r){var i=Object.getOwnPropertyDescriptor(r,n);return i.get?i.get.call(e):i.value}})(t,n,e||t)}function v(t){return function(t){if(Array.isArray(t))return y(t)}(t)||function(t){if("undefined"!=typeof Symbol&&null!=t[Symbol.iterator]||null!=t["@@iterator"])return Array.from(t)}(t)||function(t,n){if(!t)return;if("string"==typeof t)return y(t,n);var e=Object.prototype.toString.call(t).slice(8,-1);"Object"===e&&t.constructor&&(e=t.constructor.name);if("Map"===e||"Set"===e)return Array.from(t);if("Arguments"===e||/^(?:Ui|I)nt(?:8|16|32)(?:Clamped)?Array$/.test(e))return y(t,n)}(t)||function(){throw new TypeError("Invalid attempt to spread non-iterable instance.\nIn order to be iterable, non-array objects must have a [Symbol.iterator]() method.")}()}function y(t,n){(null==n||n>t.length)&&(n=t.length);for(var e=0,r=new Array(n);e<n;e++)r[e]=t[e];return r}Number.isInteger||(Number.isInteger=function(t){return"number"==typeof t&&isFinite(t)&&Math.floor(t)===t}),Number.EPSILON||(Number.EPSILON=2220446049250313e-31);var g=d(Math.pow(10,-6));function d(t){var n=arguments.length>1&&void 0!==arguments[1]?arguments[1]:6;if(Number.isInteger(t))return t;var e=Math.pow(10,n);return Math.round((+t+Number.EPSILON)*e)/e}function p(t,n){var e=arguments.length>2&&void 0!==arguments[2]?arguments[2]:g;return Math.abs(t-n)<e}var m=Math.PI/180;function b(t){return t}function w(t,n,e){var r=1-e;return 3*e*r*(t*r+n*e)+e*e*e}function A(){var t=arguments.length>0&&void 0!==arguments[0]?arguments[0]:0,n=arguments.length>1&&void 0!==arguments[1]?arguments[1]:0,e=arguments.length>2&&void 0!==arguments[2]?arguments[2]:1,r=arguments.length>3&&void 0!==arguments[3]?arguments[3]:1;return t<0||t>1||e<0||e>1?null:p(t,n)&&p(e,r)?b:function(i){if(i<=0)return t>0?i*n/t:0===n&&e>0?i*r/e:0;if(i>=1)return e<1?1+(i-1)*(r-1)/(e-1):1===e&&t<1?1+(i-1)*(n-1)/(t-1):1;for(var o,u=0,a=1;u<a;){var l=w(t,e,o=(u+a)/2);if(p(i,l))break;l<i?u=o:a=o}return w(n,r,o)}}function _(){return 1}function x(t){return 1===t?1:0}function k(){var t=arguments.length>0&&void 0!==arguments[0]?arguments[0]:1,n=arguments.length>1&&void 0!==arguments[1]?arguments[1]:0;if(1===t){if(0===n)return x;if(1===n)return _}var e=1/t;return function(t){return t>=1?1:(t+=n*e)-t%e}}var S=Math.sin,O=Math.cos,j=Math.acos,E=Math.asin,M=Math.tan,P=Math.atan2,I=Math.PI/180,R=180/Math.PI,F=Math.sqrt,N=function(){function t(){var n=arguments.length>0&&void 0!==arguments[0]?arguments[0]:1,e=arguments.length>1&&void 0!==arguments[1]?arguments[1]:0,i=arguments.length>2&&void 0!==arguments[2]?arguments[2]:0,o=arguments.length>3&&void 0!==arguments[3]?arguments[3]:1,u=arguments.length>4&&void 0!==arguments[4]?arguments[4]:0,a=arguments.length>5&&void 0!==arguments[5]?arguments[5]:0;r(this,t),this.m=[n,e,i,o,u,a],this.i=null,this.w=null,this.s=null}return o(t,[{key:"determinant",get:function(){var t=this.m;return t[0]*t[3]-t[1]*t[2]}},{key:"isIdentity",get:function(){if(null===this.i){var t=this.m;this.i=1===t[0]&&0===t[1]&&0===t[2]&&1===t[3]&&0===t[4]&&0===t[5]}return this.i}},{key:"point",value:function(t,n){var e=this.m;return{x:e[0]*t+e[2]*n+e[4],y:e[1]*t+e[3]*n+e[5]}}},{key:"translateSelf",value:function(){var t=arguments.length>0&&void 0!==arguments[0]?arguments[0]:0,n=arguments.length>1&&void 0!==arguments[1]?arguments[1]:0;if(!t&&!n)return this;var e=this.m;return e[4]+=e[0]*t+e[2]*n,e[5]+=e[1]*t+e[3]*n,this.w=this.s=this.i=null,this}},{key:"rotateSelf",value:function(){var t=arguments.length>0&&void 0!==arguments[0]?arguments[0]:0;if(t%=360){var n=S(t*=I),e=O(t),r=this.m,i=r[0],o=r[1];r[0]=i*e+r[2]*n,r[1]=o*e+r[3]*n,r[2]=r[2]*e-i*n,r[3]=r[3]*e-o*n,this.w=this.s=this.i=null}return this}},{key:"scaleSelf",value:function(){var t=arguments.length>0&&void 0!==arguments[0]?arguments[0]:1,n=arguments.length>1&&void 0!==arguments[1]?arguments[1]:1;if(1!==t||1!==n){var e=this.m;e[0]*=t,e[1]*=t,e[2]*=n,e[3]*=n,this.w=this.s=this.i=null}return this}},{key:"skewSelf",value:function(t,n){if(n%=360,(t%=360)||n){var e=this.m,r=e[0],i=e[1],o=e[2],u=e[3];t&&(t=M(t*I),e[2]+=r*t,e[3]+=i*t),n&&(n=M(n*I),e[0]+=o*n,e[1]+=u*n),this.w=this.s=this.i=null}return this}},{key:"resetSelf",value:function(){var t=arguments.length>0&&void 0!==arguments[0]?arguments[0]:1,n=arguments.length>1&&void 0!==arguments[1]?arguments[1]:0,e=arguments.length>2&&void 0!==arguments[2]?arguments[2]:0,r=arguments.length>3&&void 0!==arguments[3]?arguments[3]:1,i=arguments.length>4&&void 0!==arguments[4]?arguments[4]:0,o=arguments.length>5&&void 0!==arguments[5]?arguments[5]:0,u=this.m;return u[0]=t,u[1]=n,u[2]=e,u[3]=r,u[4]=i,u[5]=o,this.w=this.s=this.i=null,this}},{key:"recomposeSelf",value:function(){var t=arguments.length>0&&void 0!==arguments[0]?arguments[0]:null,n=arguments.length>1&&void 0!==arguments[1]?arguments[1]:null,e=arguments.length>2&&void 0!==arguments[2]?arguments[2]:null,r=arguments.length>3&&void 0!==arguments[3]?arguments[3]:null,i=arguments.length>4&&void 0!==arguments[4]?arguments[4]:null;return this.isIdentity||this.resetSelf(),t&&(t.x||t.y)&&this.translateSelf(t.x,t.y),n&&this.rotateSelf(n),e&&(e.x&&this.skewSelf(e.x,0),e.y&&this.skewSelf(0,e.y)),!r||1===r.x&&1===r.y||this.scaleSelf(r.x,r.y),i&&(i.x||i.y)&&this.translateSelf(i.x,i.y),this}},{key:"decompose",value:function(){var t=arguments.length>0&&void 0!==arguments[0]?arguments[0]:0,n=arguments.length>1&&void 0!==arguments[1]?arguments[1]:0,e=this.m,r=e[0]*e[0]+e[1]*e[1],i=[[e[0],e[1]],[e[2],e[3]]],o=F(r);if(0===o)return{origin:{x:d(e[4]),y:d(e[5])},translate:{x:d(t),y:d(n)},scale:{x:0,y:0},skew:{x:0,y:0},rotate:0};i[0][0]/=o,i[0][1]/=o;var u=e[0]*e[3]-e[1]*e[2]<0;u&&(o=-o);var a=i[0][0]*i[1][0]+i[0][1]*i[1][1];i[1][0]-=i[0][0]*a,i[1][1]-=i[0][1]*a;var l=F(i[1][0]*i[1][0]+i[1][1]*i[1][1]);if(0===l)return{origin:{x:d(e[4]),y:d(e[5])},translate:{x:d(t),y:d(n)},scale:{x:d(o),y:0},skew:{x:0,y:0},rotate:0};i[1][0]/=l,i[1][1]/=l,a/=l;var s=0;return i[1][1]<0?(s=j(i[1][1])*R,i[0][1]<0&&(s=360-s)):s=E(i[0][1])*R,u&&(s=-s),a=P(a,F(i[0][0]*i[0][0]+i[0][1]*i[0][1]))*R,u&&(a=-a),{origin:{x:d(e[4]),y:d(e[5])},translate:{x:d(t),y:d(n)},scale:{x:d(o),y:d(l)},skew:{x:d(a),y:0},rotate:d(s)}}},{key:"clone",value:function(){var t=this.m;return new this.constructor(t[0],t[1],t[2],t[3],t[4],t[5])}},{key:"toString",value:function(){var t=arguments.length>0&&void 0!==arguments[0]?arguments[0]:" ";if(null===this.s){var n=this.m.map((function(t){return d(t)}));1===n[0]&&0===n[1]&&0===n[2]&&1===n[3]?this.s="translate("+n[4]+t+n[5]+")":this.s="matrix("+n.join(t)+")"}return this.s}}],[{key:"create",value:function(t){return t?Array.isArray(t)?f(this,v(t)):t instanceof this?t.clone():(new this).recomposeSelf(t.origin,t.rotate,t.skew,t.scale,t.translate):new this}}]),t}();function T(t,n,e){return t>=.5?e:n}function q(t,n,e){return 0===t||n===e?n:t*(e-n)+n}function B(t,n,e){var r=q(t,n,e);return r<=0?0:r}function D(t,n,e){var r=q(t,n,e);return r<=0?0:r>=1?1:r}function L(t,n,e){return 0===t?n:1===t?e:{x:q(t,n.x,e.x),y:q(t,n.y,e.y)}}function C(t,n,e){var r=function(t,n,e){return Math.round(q(t,n,e))}(t,n,e);return r<=0?0:r>=255?255:r}function V(t,n,e){return 0===t?n:1===t?e:{r:C(t,n.r,e.r),g:C(t,n.g,e.g),b:C(t,n.b,e.b),a:q(t,null==n.a?1:n.a,null==e.a?1:e.a)}}function G(t,n){for(var e=[],r=0;r<t;r++)e.push(n);return e}function z(t,n){if(--n<=0)return t;var e=(t=Object.assign([],t)).length;do{for(var r=0;r<e;r++)t.push(t[r])}while(--n>0);return t}var Y,$=function(){function t(n){r(this,t),this.list=n,this.length=n.length}return o(t,[{key:"setAttribute",value:function(t,n){for(var e=this.list,r=0;r<this.length;r++)e[r].setAttribute(t,n)}},{key:"removeAttribute",value:function(t){for(var n=this.list,e=0;e<this.length;e++)n[e].removeAttribute(t)}},{key:"style",value:function(t,n){for(var e=this.list,r=0;r<this.length;r++)e[r].style[t]=n}}]),t}(),U=/-./g,Q=function(t,n){return n.toUpperCase()};function H(t){return"function"==typeof t?t:T}function J(t){return t?"function"==typeof t?t:Array.isArray(t)?function(t){var n=arguments.length>1&&void 0!==arguments[1]?arguments[1]:b;if(!Array.isArray(t))return n;switch(t.length){case 1:return k(t[0])||n;case 2:return k(t[0],t[1])||n;case 4:return A(t[0],t[1],t[2],t[3])||n}return n}(t,null):function(t,n){var e=arguments.length>2&&void 0!==arguments[2]?arguments[2]:b;switch(t){case"linear":return b;case"steps":return k(n.steps||1,n.jump||0)||e;case"bezier":case"cubic-bezier":return A(n.x1||0,n.y1||0,n.x2||0,n.y2||0)||e}return e}(t.type,t.value,null):null}function Z(t,n,e){var r=arguments.length>3&&void 0!==arguments[3]&&arguments[3],i=n.length-1;if(t<=n[0].t)return r?[0,0,n[0].v]:n[0].v;if(t>=n[i].t)return r?[i,1,n[i].v]:n[i].v;var o,u=n[0],a=null;for(o=1;o<=i;o++){if(!(t>n[o].t)){a=n[o];break}u=n[o]}return null==a?r?[i,1,n[i].v]:n[i].v:u.t===a.t?r?[o,1,a.v]:a.v:(t=(t-u.t)/(a.t-u.t),u.e&&(t=u.e(t)),r?[o,t,e(t,u.v,a.v)]:e(t,u.v,a.v))}function K(t,n){var e=arguments.length>2&&void 0!==arguments[2]?arguments[2]:null;return t&&t.length?"function"!=typeof n?null:("function"!=typeof e&&(e=null),function(r){var i=Z(r,t,n);return null!=i&&e&&(i=e(i)),i}):null}function W(t,n){return t.t-n.t}function X(t,n,r,i,o){var u,a="@"===r[0],l="#"===r[0],s=Y[r],f=T;switch(a?(u=r.substr(1),r=u.replace(U,Q)):l&&(r=r.substr(1)),e(s)){case"function":if(f=s(i,o,Z,J,r,a,n,t),l)return f;break;case"string":f=K(i,H(s));break;case"object":if((f=K(i,H(s.i),s.f))&&"function"==typeof s.u)return s.u(n,f,r,a,t)}return f?function(t,n,e){if(arguments.length>3&&void 0!==arguments[3]&&arguments[3])return t instanceof $?function(r){return t.style(n,e(r))}:function(r){return t.style[n]=e(r)};if(Array.isArray(n)){var r=n.length;return function(i){var o=e(i);if(null==o)for(var u=0;u<r;u++)t[u].removeAttribute(n);else for(var a=0;a<r;a++)t[a].setAttribute(n,o)}}return function(r){var i=e(r);null==i?t.removeAttribute(n):t.setAttribute(n,i)}}(n,r,f,a):null}function tt(t,n,r,i){if(!i||"object"!==e(i))return null;var o=null,u=null;return Array.isArray(i)?u=function(t){if(!t||!t.length)return null;for(var n=0;n<t.length;n++)t[n].e&&(t[n].e=J(t[n].e));return t.sort(W)}(i):(u=i.keys,o=i.data||null),u?X(t,n,r,u,o):null}function nt(t,n,e){if(!e)return null;var r=[];for(var i in e)if(e.hasOwnProperty(i)){var o=tt(t,n,i,e[i]);o&&r.push(o)}return r.length?r:null}function et(t,n){if(!n.settings.duration||n.settings.duration<0)return null;var e,r,i,o,u,a=function(t,n){if(!n)return null;var e=[];if(Array.isArray(n))for(var r=n.length,i=0;i<r;i++){var o=n[i];if(2===o.length){var u=null;if("string"==typeof o[0])u=t.getElementById(o[0]);else if(Array.isArray(o[0])){u=[];for(var a=0;a<o[0].length;a++)if("string"==typeof o[0][a]){var l=t.getElementById(o[0][a]);l&&u.push(l)}u=u.length?1===u.length?u[0]:new $(u):null}if(u){var s=nt(t,u,o[1]);s&&(e=e.concat(s))}}}else for(var f in n)if(n.hasOwnProperty(f)){var c=t.getElementById(f);if(c){var h=nt(t,c,n[f]);h&&(e=e.concat(h))}}return e.length?e:null}(t,n.elements);return a?(e=a,r=n.settings,i=r.duration,o=e.length,u=null,function(t,n){var a=r.iterations||1/0,l=(r.alternate&&a%2==0)^r.direction>0?i:0,s=t%i,f=1+(t-s)/i;n*=r.direction,r.alternate&&f%2==0&&(n=-n);var c=!1;if(f>a)s=l,c=!0,-1===r.fill&&(s=r.direction>0?0:i);else if(n<0&&(s=i-s),s===u)return!1;u=s;for(var h=0;h<o;h++)e[h](s);return c}):null}function rt(t,n){for(var e=n.querySelectorAll("svg"),r=0;r<e.length;r++)if(e[r].id===t.root&&!e[r].svgatorAnimation)return e[r].svgatorAnimation=!0,e[r];return null}function it(t){var n=function(t){return t.shadowRoot};return document?Array.from(t.querySelectorAll(":not("+["a","area","audio","br","canvas","circle","datalist","embed","g","head","hr","iframe","img","input","link","object","path","polygon","rect","script","source","style","svg","title","track","video"].join()+")")).filter(n).map(n):[]}function ot(t){var n=arguments.length>1&&void 0!==arguments[1]?arguments[1]:document,e=arguments.length>2&&void 0!==arguments[2]?arguments[2]:0,r=rt(t,n);if(r)return r;if(e>=20)return null;for(var i=it(n),o=0;o<i.length;o++){var u=ot(t,i[o],e+1);if(u)return u}return null}function ut(t,n){if(Y=n,!t||!t.root||!Array.isArray(t.animations))return null;var e=ot(t);if(!e)return null;var r=t.animations.map((function(t){return et(e,t)})).filter((function(t){return!!t}));return r.length?{svg:e,animations:r,animationSettings:t.animationSettings,options:t.options||void 0}:null}function at(t){var n=arguments.length>1&&void 0!==arguments[1]?arguments[1]:null,e=arguments.length>2&&void 0!==arguments[2]?arguments[2]:Number,r=arguments.length>3&&void 0!==arguments[3]?arguments[3]:"undefined"!=typeof BigInt&&BigInt,i="0x"+(t.replace(/[^0-9a-fA-F]+/g,"")||27);return n&&r&&e.isSafeInteger&&!e.isSafeInteger(+i)?e(r(i))%n+n:+i}function lt(t,n,e){return!t||!e||n>t.length?t:t.substring(0,n)+lt(t.substring(n+1),e,e)}function st(t){var n=arguments.length>1&&void 0!==arguments[1]?arguments[1]:27;return!t||t%n?t%n:[0,1].includes(n)?n:st(t/n,n)}function ft(t,n,e){if(t&&t.length){var r=at(e),i=st(r)+5,o=lt(t,st(r,5),i);return o=o.replace(/\x7c$/g,"==").replace(/\x2f$/g,"="),o=function(t,n,e){var r=+("0x"+t.substring(0,4));t=t.substring(4);for(var i=at(n,r)%r+e%27,o=[],u=0;u<t.length;u+=2)if("|"!==t[u]){var a=+("0x"+t[u]+t[u+1])-i;o.push(a)}else{var l=+("0x"+t.substring(u+1,u+1+4))-i;u+=3,o.push(l)}return String.fromCharCode.apply(String,o)}(o=(o=atob(o)).replace(/[\x41-\x5A]/g,""),n,r),o=JSON.parse(o)}}var ct=[{key:"alternate",def:!1},{key:"fill",def:1},{key:"iterations",def:0},{key:"direction",def:1},{key:"speed",def:1},{key:"fps",def:100}],ht=function(){function t(n,e){var i=this,o=arguments.length>2&&void 0!==arguments[2]?arguments[2]:null;r(this,t),this._id=0,this._running=!1,this._rollingBack=!1,this._animations=n,this._settings=e,(!o||o<"2022-05-02")&&delete this._settings.speed,ct.forEach((function(t){i._settings[t.key]=i._settings[t.key]||t.def})),this.duration=e.duration,this.offset=e.offset||0,this.rollbackStartOffset=0}return o(t,[{key:"alternate",get:function(){return this._settings.alternate}},{key:"fill",get:function(){return this._settings.fill}},{key:"iterations",get:function(){return this._settings.iterations}},{key:"direction",get:function(){return this._settings.direction}},{key:"speed",get:function(){return this._settings.speed}},{key:"fps",get:function(){return this._settings.fps}},{key:"maxFiniteDuration",get:function(){return this.iterations>0?this.iterations*this.duration:this.duration}},{key:"_apply",value:function(t){for(var n=arguments.length>1&&void 0!==arguments[1]?arguments[1]:{},e=this._animations,r=e.length,i=0,o=0;o<r;o++)n[o]?i++:(n[o]=e[o](t,1),n[o]&&i++);return i}},{key:"_rollback",value:function(t){var n=this,e=1/0,r=null;this.rollbackStartOffset=t,this._rollingBack=!0,this._running=!0;this._id=window.requestAnimationFrame((function i(o){if(n._rollingBack){null==r&&(r=o);var u=Math.round(t-(o-r)*n.speed);if(u>n.duration&&e!==1/0){var a=!!n.alternate&&u/n.duration%2>1,l=u%n.duration;u=(l+=a?n.duration:0)||n.duration}var s=(n.fps?1e3/n.fps:0)*n.speed,f=Math.max(0,u);f<=e-s&&(n.offset=f,e=f,n._apply(f));var c=n.iterations>0&&-1===n.fill&&u>=n.maxFiniteDuration;(u<=0||n.offset<u||c)&&n.stop(),n._id=window.requestAnimationFrame(i)}}))}},{key:"_start",value:function(){var t=this,n=arguments.length>0&&void 0!==arguments[0]?arguments[0]:0,e=-1/0,r=null,i={};this._running=!0;var o=function o(u){null==r&&(r=u);var a=Math.round((u-r)*t.speed+n),l=(t.fps?1e3/t.fps:0)*t.speed;if(a>=e+l&&!t._rollingBack&&(t.offset=a,e=a,t._apply(a,i)===t._animations.length))return void t.pause(!0);t._id=window.requestAnimationFrame(o)};this._id=window.requestAnimationFrame(o)}},{key:"_pause",value:function(){this._id&&window.cancelAnimationFrame(this._id),this._running=!1}},{key:"play",value:function(){if(!this._running)return this._rollingBack?this._rollback(this.offset):this._start(this.offset)}},{key:"stop",value:function(){this._pause(),this.offset=0,this.rollbackStartOffset=0,this._rollingBack=!1,this._apply(0)}},{key:"reachedToEnd",value:function(){return this.iterations>0&&this.offset>=this.iterations*this.duration}},{key:"restart",value:function(){var t=arguments.length>0&&void 0!==arguments[0]&&arguments[0];this.stop(t),this.play(t)}},{key:"pause",value:function(){this._pause()}},{key:"reverse",value:function(){this.direction=-this.direction}}],[{key:"build",value:function(t,n){delete t.animationSettings,t.options=ft(t.options,t.root,"5c7f360c"),t.animations.map((function(n){n.settings=ft(n.s,t.root,"5c7f360c"),delete n.s,t.animationSettings||(t.animationSettings=n.settings)}));var e=t.version;if(!(t=ut(t,n)))return null;var r=t.options||{},i=new this(t.animations,t.animationSettings,e);return{el:t.svg,options:r,player:i}}},{key:"push",value:function(t){return this.build(t)}},{key:"init",value:function(){var t=this,n=window.__SVGATOR_PLAYER__&&window.__SVGATOR_PLAYER__["5c7f360c"];Array.isArray(n)&&n.splice(0).forEach((function(n){return t.build(n)}))}}]),t}();function vt(t){return d(t)+""}function yt(t){var n=arguments.length>1&&void 0!==arguments[1]?arguments[1]:" ";return t&&t.length?t.map(vt).join(n):""}function gt(t){if(!t)return"transparent";if(null==t.a||t.a>=1){var n=function(t){return 1===(t=parseInt(t).toString(16)).length?"0"+t:t},e=function(t){return t.charAt(0)===t.charAt(1)},r=n(t.r),i=n(t.g),o=n(t.b);return e(r)&&e(i)&&e(o)&&(r=r.charAt(0),i=i.charAt(0),o=o.charAt(0)),"#"+r+i+o}return"rgba("+t.r+","+t.g+","+t.b+","+t.a+")"}function dt(t){return t?"url(#"+t+")":"none"}!function(){for(var t=0,n=["ms","moz","webkit","o"],e=0;e<n.length&&!window.requestAnimationFrame;++e)window.requestAnimationFrame=window[n[e]+"RequestAnimationFrame"],window.cancelAnimationFrame=window[n[e]+"CancelAnimationFrame"]||window[n[e]+"CancelRequestAnimationFrame"];window.requestAnimationFrame||(window.requestAnimationFrame=function(n){var e=Date.now(),r=Math.max(0,16-(e-t)),i=window.setTimeout((function(){n(e+r)}),r);return t=e+r,i},window.cancelAnimationFrame=window.clearTimeout)}();var pt={f:null,i:function(t,n,e){return 0===t?n:1===t?e:{x:B(t,n.x,e.x),y:B(t,n.y,e.y)}},u:function(t,n){return function(e){var r=n(e);t.setAttribute("rx",vt(r.x)),t.setAttribute("ry",vt(r.y))}}},mt={f:null,i:function(t,n,e){return 0===t?n:1===t?e:{width:B(t,n.width,e.width),height:B(t,n.height,e.height)}},u:function(t,n){return function(e){var r=n(e);t.setAttribute("width",vt(r.width)),t.setAttribute("height",vt(r.height))}}};Object.freeze({M:2,L:2,Z:0,H:1,V:1,C:6,Q:4,T:2,S:4,A:7});var bt={},wt=null;function At(t){var n=function(){if(wt)return wt;if("object"!==("undefined"==typeof document?"undefined":e(document))||!document.createElementNS)return{};var t=document.createElementNS("http://www.w3.org/2000/svg","svg");return t&&t.style?(t.style.position="absolute",t.style.opacity="0.01",t.style.zIndex="-9999",t.style.left="-9999px",t.style.width="1px",t.style.height="1px",wt={svg:t}):{}}().svg;if(!n)return function(t){return null};var r=document.createElementNS(n.namespaceURI,"path");r.setAttributeNS(null,"d",t),r.setAttributeNS(null,"fill","none"),r.setAttributeNS(null,"stroke","none"),n.appendChild(r);var i=r.getTotalLength();return function(t){var n=r.getPointAtLength(i*t);return{x:n.x,y:n.y}}}function _t(t){return bt[t]?bt[t]:bt[t]=At(t)}function xt(t,n,e,r){if(!t||!r)return!1;var i=["M",t.x,t.y];if(n&&e&&(i.push("C"),i.push(n.x),i.push(n.y),i.push(e.x),i.push(e.y)),n?!e:e){var o=n||e;i.push("Q"),i.push(o.x),i.push(o.y)}return n||e||i.push("L"),i.push(r.x),i.push(r.y),i.join(" ")}function kt(t,n,e,r){var i=arguments.length>4&&void 0!==arguments[4]?arguments[4]:1,o=xt(t,n,e,r),u=_t(o);try{return u(i)}catch(t){return null}}function St(t,n,e){return t+(n-t)*e}function Ot(t,n,e){var r=arguments.length>3&&void 0!==arguments[3]&&arguments[3],i={x:St(t.x,n.x,e),y:St(t.y,n.y,e)};return r&&(i.a=jt(t,n)),i}function jt(t,n){return Math.atan2(n.y-t.y,n.x-t.x)}function Et(t,n,e,r){var i=1-r;return i*i*t+2*i*r*n+r*r*e}function Mt(t,n,e,r){return 2*(1-r)*(n-t)+2*r*(e-n)}function Pt(t,n,e,r){var i=arguments.length>4&&void 0!==arguments[4]&&arguments[4],o=kt(t,n,null,e,r);return o||(o={x:Et(t.x,n.x,e.x,r),y:Et(t.y,n.y,e.y,r)}),i&&(o.a=It(t,n,e,r)),o}function It(t,n,e,r){return Math.atan2(Mt(t.y,n.y,e.y,r),Mt(t.x,n.x,e.x,r))}function Rt(t,n,e,r,i){var o=i*i;return i*o*(r-t+3*(n-e))+3*o*(t+e-2*n)+3*i*(n-t)+t}function Ft(t,n,e,r,i){var o=1-i;return 3*(o*o*(n-t)+2*o*i*(e-n)+i*i*(r-e))}function Nt(t,n,e,r,i){var o=arguments.length>5&&void 0!==arguments[5]&&arguments[5],u=kt(t,n,e,r,i);return u||(u={x:Rt(t.x,n.x,e.x,r.x,i),y:Rt(t.y,n.y,e.y,r.y,i)}),o&&(u.a=Tt(t,n,e,r,i)),u}function Tt(t,n,e,r,i){return Math.atan2(Ft(t.y,n.y,e.y,r.y,i),Ft(t.x,n.x,e.x,r.x,i))}function qt(t,n,e){var r=arguments.length>3&&void 0!==arguments[3]&&arguments[3];if(Dt(n)){if(Lt(e))return Pt(n,e.start,e,t,r)}else if(Dt(e)){if(Ct(n))return Pt(n,n.end,e,t,r)}else{if(Ct(n))return Lt(e)?Nt(n,n.end,e.start,e,t,r):Pt(n,n.end,e,t,r);if(Lt(e))return Pt(n,e.start,e,t,r)}return Ot(n,e,t,r)}function Bt(t,n,e){var r=qt(t,n,e,!0);return r.a=function(t){return arguments.length>1&&void 0!==arguments[1]&&arguments[1]?t+Math.PI:t}(r.a)/m,r}function Dt(t){return!t.type||"corner"===t.type}function Lt(t){return null!=t.start&&!Dt(t)}function Ct(t){return null!=t.end&&!Dt(t)}var Vt=new N;var Gt={f:vt,i:q},zt={f:vt,i:D};function Yt(t,n,e){return t.map((function(t){return function(t,n,e){var r=t.v;if(!r||"g"!==r.t||r.s||!r.v||!r.r)return t;var i=e.getElementById(r.r),o=i&&i.querySelectorAll("stop")||[];return r.s=r.v.map((function(t,n){var e=o[n]&&o[n].getAttribute("offset");return{c:t,o:e=d(parseInt(e)/100)}})),delete r.v,t}(t,0,e)}))}var $t={gt:"gradientTransform",c:{x:"cx",y:"cy"},rd:"r",f:{x:"x1",y:"y1"},to:{x:"x2",y:"y2"}};function Ut(t,n,r,i,o,u,a,l){return Yt(t,0,l),n=function(t,n,e){for(var r,i,o,u=t.length-1,a={},l=0;l<=u;l++)(r=t[l]).e&&(r.e=n(r.e)),r.v&&"g"===(i=r.v).t&&i.r&&(o=e.getElementById(i.r))&&(a[i.r]={e:o,s:o.querySelectorAll("stop")});return a}(t,i,l),function(i){var o=r(i,t,Qt);if(!o)return"none";if("c"===o.t)return gt(o.v);if("g"===o.t){if(!n[o.r])return dt(o.r);var u=n[o.r];return function(t,n){for(var e=t.s,r=e.length;r<n.length;r++){var i=e[e.length-1].cloneNode();i.id=Zt(i.id),t.e.appendChild(i),e=t.s=t.e.querySelectorAll("stop")}for(var o=0,u=e.length,a=n.length-1;o<u;o++)e[o].setAttribute("stop-color",gt(n[Math.min(o,a)].c)),e[o].setAttribute("offset",n[Math.min(o,a)].o)}(u,o.s),Object.keys($t).forEach((function(t){if(void 0!==o[t])if("object"!==e($t[t])){var n,r="gt"===t?(n=o[t],Array.isArray(n)?"matrix("+n.join(" ")+")":""):o[t],i=$t[t];u.e.setAttribute(i,r)}else Object.keys($t[t]).forEach((function(n){if(void 0!==o[t][n]){var e=o[t][n],r=$t[t][n];u.e.setAttribute(r,e)}}))})),dt(o.r)}return"none"}}function Qt(t,e,r){if(0===t)return e;if(1===t)return r;if(e&&r){var i=e.t;if(i===r.t)switch(e.t){case"c":return{t:i,v:V(t,e.v,r.v)};case"g":if(e.r===r.r){var o={t:i,s:Ht(t,e.s,r.s),r:e.r};return e.gt&&r.gt&&(o.gt=function(t,n,e){var r=n.length;if(r!==e.length)return T(t,n,e);for(var i=new Array(r),o=0;o<r;o++)i[o]=q(t,n[o],e[o]);return i}(t,e.gt,r.gt)),e.c?(o.c=L(t,e.c,r.c),o.rd=B(t,e.rd,r.rd)):e.f&&(o.f=L(t,e.f,r.f),o.to=L(t,e.to,r.to)),o}}if("c"===e.t&&"g"===r.t||"c"===r.t&&"g"===e.t){var u="c"===e.t?e:r,a="g"===e.t?n({},e):n({},r),l=a.s.map((function(t){return{c:u.v,o:t.o}}));return a.s="c"===e.t?Ht(t,l,a.s):Ht(t,a.s,l),a}}return T(t,e,r)}function Ht(t,n,e){if(n.length===e.length)return n.map((function(n,r){return Jt(t,n,e[r])}));for(var r=Math.max(n.length,e.length),i=[],o=0;o<r;o++){var u=Jt(t,n[Math.min(o,n.length-1)],e[Math.min(o,e.length-1)]);i.push(u)}return i}function Jt(t,n,e){return{o:D(t,n.o,e.o||0),c:V(t,n.c,e.c||{})}}function Zt(t){return t.replace(/-fill-([0-9]+)$/,(function(t,n){return"-fill-"+(+n+1)}))}var Kt={fill:Ut,"fill-opacity":zt,stroke:Ut,"stroke-opacity":zt,"stroke-width":Gt,"stroke-dashoffset":{f:vt,i:q},"stroke-dasharray":{f:function(t){var n=arguments.length>1&&void 0!==arguments[1]?arguments[1]:" ";return t&&t.length>0&&(t=t.map((function(t){return d(t,4)}))),yt(t,n)},i:function(t,n,e){var r,i,o,u=n.length,a=e.length;if(u!==a)if(0===u)n=G(u=a,0);else if(0===a)a=u,e=G(u,0);else{var l=(o=(r=u)*(i=a)/function(t,n){for(var e;n;)e=n,n=t%n,t=e;return t||1}(r,i))<0?-o:o;n=z(n,Math.floor(l/u)),e=z(e,Math.floor(l/a)),u=a=l}for(var s=[],f=0;f<u;f++)s.push(d(B(t,n[f],e[f])));return s}},opacity:zt,transform:function(t,n,r,i){if(!(t=function(t,n){if(!t||"object"!==e(t))return null;var r=!1;for(var i in t)t.hasOwnProperty(i)&&(t[i]&&t[i].length?(t[i].forEach((function(t){t.e&&(t.e=n(t.e))})),r=!0):delete t[i]);return r?t:null}(t,i)))return null;var o=function(e,i,o){var u=arguments.length>3&&void 0!==arguments[3]?arguments[3]:null;return t[e]?r(i,t[e],o):n&&n[e]?n[e]:u};return n&&n.a&&t.o?function(n){var e=r(n,t.o,Bt);return Vt.recomposeSelf(e,o("r",n,q,0)+e.a,o("k",n,L),o("s",n,L),o("t",n,L)).toString()}:function(t){return Vt.recomposeSelf(o("o",t,qt,null),o("r",t,q,0),o("k",t,L),o("s",t,L),o("t",t,L)).toString()}},r:Gt,"#size":mt,"#radius":pt,_:function(t,n){if(Array.isArray(t))for(var e=0;e<t.length;e++)this[t[e]]=n;else this[t]=n}},Wt=function(t){!function(t,n){if("function"!=typeof n&&null!==n)throw new TypeError("Super expression must either be null or a function");t.prototype=Object.create(n&&n.prototype,{constructor:{value:t,writable:!0,configurable:!0}}),n&&l(t,n)}(u,t);var n,e,i=(n=u,e=s(),function(){var t,r=a(n);if(e){var i=a(this).constructor;t=Reflect.construct(r,arguments,i)}else t=r.apply(this,arguments);return c(this,t)});function u(){return r(this,u),i.apply(this,arguments)}return o(u,null,[{key:"build",value:function(t){var n=h(a(u),"build",this).call(this,t,Kt);if(!n)return null;n.el,n.options,function(t,n,e){t.play()}(n.player)}}]),u}(ht);return Wt.init(),Wt}));
(function(s,i,o,w,d,a,b){w[o]=w[o]||{};w[o][s]=w[o][s]||[];w[o][s].push(i);})('5c7f360c',{"root":"eGaEeP7lCzV1","version":"2022-05-04","animations":[{"elements":{"eGaEeP7lCzV2":{"transform":{"data":{"t":{"x":-34.29885,"y":-7.948525}},"keys":{"o":[{"t":0,"v":{"x":34.298851,"y":16,"type":"corner"},"e":[0.42,0,0.58,1]},{"t":500,"v":{"x":34.298851,"y":9,"type":"corner"},"e":[0.42,0,0.58,1]},{"t":1000,"v":{"x":34.298851,"y":16,"type":"corner"},"e":[0.42,0,0.58,1]},{"t":1500,"v":{"x":34.298851,"y":9,"type":"corner"},"e":[0.42,0,0.58,1]},{"t":2000,"v":{"x":34.298851,"y":16,"type":"corner"}}]}}},"eGaEeP7lCzV3":{"transform":{"keys":{"o":[{"t":0,"v":{"x":0,"y":-28.765709,"type":"corner"},"e":[0.42,0,0.58,1]},{"t":500,"v":{"x":0,"y":-36.765709,"type":"corner"},"e":[0.42,0,0.58,1]},{"t":1000,"v":{"x":0,"y":-28.765709,"type":"corner"},"e":[0.42,0,0.58,1]},{"t":1500,"v":{"x":0,"y":-36.77,"type":"corner"},"e":[0.42,0,0.58,1]},{"t":2000,"v":{"x":0,"y":-28.765709,"type":"corner"}}]}}},"eGaEeP7lCzV5":{"transform":{"data":{"t":{"x":-34.50001,"y":-43.5}},"keys":{"o":[{"t":1500,"v":{"x":34.500011,"y":108.26571,"type":"corner"},"e":[0.42,0,0.58,1]},{"t":2000,"v":{"x":-34.500022,"y":108.26571,"type":"corner"}}]}}},"eGaEeP7lCzV6":{"transform":{"data":{"t":{"x":-34.50001,"y":-43.5}},"keys":{"o":[{"t":1000,"v":{"x":34.500011,"y":108.26571,"type":"corner"},"e":[0.42,0,0.58,1]},{"t":1500,"v":{"x":-34.500003,"y":108.26571,"type":"corner"}}]}}},"eGaEeP7lCzV7":{"transform":{"data":{"s":{"x":1.005865,"y":1},"t":{"x":-34.29885,"y":-43.5}},"keys":{"o":[{"t":500,"v":{"x":34.500001,"y":108.265712,"type":"corner"},"e":[0.42,0,0.58,1]},{"t":1000,"v":{"x":-34.500006,"y":108.265712,"type":"corner"}}]}}},"eGaEeP7lCzV8":{"transform":{"data":{"s":{"x":1.166395,"y":1},"t":{"x":-29.578325,"y":-43.5}},"keys":{"o":[{"t":0,"v":{"x":34.097691,"y":108.26571,"type":"corner"},"e":[0.42,0,0.58,1]},{"t":500,"v":{"x":-34.500009,"y":108.26571,"type":"corner"}}]}}}},"s":"MBDA1ZDkwMzc3OThhODWc3Njg5RzdlODQ4MzMV3RzRmNDdFNDg0NTQ1ONDEzN1M3OTdlODc3YWTc4ODk3ZTg0ODMzNzORmVDQ2NDEzNzdlODkL3YTg3NzY4OTdlODQ4KMzg4Mzc0ZjQ1NDEzNCzdiVDdlODE4MTM3NGRY0NjQxMzc3Nk5CODEA4OTdhODc4Mzc2ODk3GYUszNzRmN2I3NjgxOPDg3YTQxMzc4ODg1N2SE3YTc5Mzc0ZjQ2NDEMzNzdiODVXODgzNzRmDNDY0NTQ1OTI/"}],"options":"MXDAxMDg4MmZJODA4MTTZlN2Y4MTJmNDcyZlcA3OTdjNmU3MTJmOGE/S"},'__SVGATOR_PLAYER__',window,document)
]]></script>
</svg>
