<svg width="171" height="60" viewBox="0 0 171 60" fill="none" xmlns="http://www.w3.org/2000/svg">
<path d="M18.328 0.688C21.528 0.688 23.9387 1.30667 25.56 2.544C27.1813 3.76 27.992 5.552 27.992 7.92C27.992 9.09333 27.7787 10.448 27.352 11.984C26.648 14.4587 25.6987 16.4213 24.504 17.872C23.3093 19.3227 21.7307 20.3787 19.768 21.04C17.8267 21.7013 15.3307 22.0213 12.28 22L3.576 21.968C3.128 21.968 2.78667 21.8933 2.552 21.744C2.296 21.5947 2.168 21.392 2.168 21.136C2.168 21.008 2.2 20.8693 2.264 20.72C2.328 20.528 2.424 20.3893 2.552 20.304C2.65867 20.2187 2.82933 20.1013 3.064 19.952C3.40533 19.76 3.672 19.5467 3.864 19.312C4.07733 19.0773 4.25867 18.704 4.408 18.192L8.312 4.432C8.39733 4.15467 8.44 3.888 8.44 3.632C8.44 3.39733 8.39733 3.20533 8.312 3.056C8.248 2.88533 8.152 2.69333 8.024 2.48C7.832 2.20267 7.736 1.97867 7.736 1.808C7.736 1.744 7.75733 1.62667 7.8 1.456C7.88533 1.17867 8.06667 0.986666 8.344 0.879999C8.64267 0.752 9.09067 0.688 9.688 0.688H18.328ZM19.16 11.28C19.7147 9.27467 19.992 7.696 19.992 6.544C19.992 5.41333 19.7573 4.63467 19.288 4.208C18.8187 3.78133 18.1467 3.568 17.272 3.568H16.568L12.248 19.12H13.016C13.9973 19.12 14.8187 18.9173 15.48 18.512C16.1627 18.0853 16.792 17.3173 17.368 16.208C17.944 15.0773 18.5413 13.4347 19.16 11.28ZM43.4308 5.072C44.6254 5.072 45.5748 5.43467 46.2788 6.16C47.0041 6.88533 47.3668 7.78133 47.3668 8.848C47.3668 9.25333 47.3241 9.62667 47.2388 9.968C47.0254 10.8427 46.6201 11.5147 46.0228 11.984C45.4254 12.4533 44.7108 12.688 43.8787 12.688C43.0681 12.688 42.4494 12.496 42.0228 12.112C41.6174 11.728 41.2548 11.216 40.9348 10.576C40.7641 10.2133 40.6041 9.94667 40.4548 9.776C40.3054 9.60533 40.1348 9.52 39.9428 9.52C39.7294 9.52 39.5374 9.60533 39.3668 9.776C39.2174 9.94667 39.0788 10.2453 38.9508 10.672L36.4868 18.672C36.4441 18.7787 36.4228 18.9387 36.4228 19.152C36.4228 19.4293 36.4974 19.664 36.6468 19.856C36.8174 20.0267 37.0414 20.1973 37.3188 20.368C37.5748 20.5387 37.7454 20.6773 37.8308 20.784C37.9161 20.8907 37.9481 21.0293 37.9268 21.2C37.8841 21.4773 37.7241 21.68 37.4468 21.808C37.1908 21.936 36.7428 22 36.1028 22H27.9108C27.3561 22 26.9614 21.9147 26.7267 21.744C26.4707 21.552 26.3747 21.3067 26.4387 21.008C26.5241 20.752 26.7481 20.528 27.1107 20.336C27.4307 20.1653 27.6974 19.9627 27.9108 19.728C28.1241 19.4933 28.3054 19.12 28.4548 18.608L31.3028 9.36C31.3454 9.25333 31.3668 9.104 31.3668 8.912C31.3668 8.67733 31.3134 8.496 31.2068 8.368C31.1214 8.24 30.9721 8.08 30.7588 7.888C30.5454 7.71733 30.3961 7.568 30.3108 7.44C30.2254 7.312 30.2148 7.14133 30.2788 6.928C30.4068 6.43733 31.0788 6.01067 32.2948 5.648C33.5108 5.264 34.7801 5.072 36.1028 5.072C36.9774 5.072 37.7028 5.27467 38.2788 5.68C38.8548 6.064 39.2281 6.61867 39.3988 7.344C40.4228 5.82933 41.7668 5.072 43.4308 5.072ZM57.049 5.072C59.5023 5.072 61.465 5.53067 62.937 6.448C64.409 7.344 65.145 8.72 65.145 10.576C65.145 11.28 65.017 12.08 64.761 12.976L63.449 17.392C63.4277 17.4773 63.417 17.584 63.417 17.712C63.417 18.0533 63.5557 18.224 63.833 18.224C64.089 18.224 64.3023 18.1173 64.473 17.904C64.665 17.6693 64.793 17.552 64.857 17.552C64.9637 17.552 65.049 17.6267 65.113 17.776C65.1983 17.9253 65.241 18.096 65.241 18.288C65.2623 18.864 65.0383 19.4507 64.569 20.048C64.121 20.6453 63.513 21.136 62.745 21.52C61.977 21.904 61.1343 22.096 60.217 22.096C59.1077 22.096 58.1583 21.8933 57.369 21.488C56.5797 21.0827 56.0357 20.4853 55.737 19.696C55.097 20.464 54.3397 21.0613 53.465 21.488C52.5903 21.8933 51.6517 22.096 50.649 22.096C49.5183 22.096 48.569 21.8827 47.801 21.456C47.033 21.008 46.457 20.4427 46.073 19.76C45.7103 19.056 45.529 18.32 45.529 17.552C45.529 17.2107 45.561 16.88 45.625 16.56C45.9663 15.088 46.7023 13.9787 47.833 13.232C48.985 12.4853 50.3503 12.112 51.929 12.112C53.6997 12.112 55.4383 12.3893 57.145 12.944L57.945 10.832C58.2223 9.936 58.361 9.24267 58.361 8.752C58.3397 8.24 58.169 7.856 57.849 7.6C57.529 7.344 57.0383 7.216 56.377 7.216C56.505 7.55733 56.569 7.90933 56.569 8.272C56.569 9.06133 56.2703 9.744 55.673 10.32C55.0757 10.896 54.2223 11.184 53.113 11.184C52.0677 11.184 51.2463 10.96 50.649 10.512C50.073 10.0427 49.785 9.46667 49.785 8.784C49.785 7.71733 50.3823 6.832 51.577 6.128C52.7717 5.424 54.5957 5.072 57.049 5.072ZM55.257 14.768C54.6597 14.768 54.169 15.0027 53.785 15.472C53.4223 15.92 53.241 16.4107 53.241 16.944C53.241 17.2853 53.3157 17.5627 53.465 17.776C53.6357 17.9893 53.8703 18.096 54.169 18.096C54.4463 18.096 54.745 17.9893 55.065 17.776C55.4063 17.5413 55.6517 17.2 55.801 16.752L56.473 14.864C56.1103 14.8 55.705 14.768 55.257 14.768ZM95.9855 9.616C95.9855 11.5147 95.3242 13.456 94.0015 15.44C92.6788 17.424 91.0042 19.0667 88.9775 20.368C86.9722 21.648 84.9988 22.288 83.0575 22.288C81.5215 22.288 80.2202 22.0213 79.1535 21.488C78.0868 20.9547 77.3935 20.1867 77.0735 19.184C76.2842 20.144 75.4095 20.8693 74.4495 21.36C73.4895 21.8507 72.4868 22.096 71.4415 22.096C69.9908 22.096 68.8068 21.744 67.8895 21.04C66.9935 20.3147 66.5455 19.2587 66.5455 17.872C66.5455 17.1467 66.6628 16.4 66.8975 15.632L68.6895 9.36C68.7322 9.18933 68.7535 9.06133 68.7535 8.976C68.7535 8.76267 68.7002 8.58133 68.5935 8.432C68.4868 8.28267 68.3375 8.12267 68.1455 7.952C67.8255 7.67467 67.6655 7.42933 67.6655 7.216C67.6442 6.91733 67.8255 6.59733 68.2095 6.256C68.5935 5.91467 69.1268 5.63733 69.8095 5.424C70.5135 5.18933 71.3028 5.072 72.1775 5.072C73.6068 5.072 74.7162 5.424 75.5055 6.128C76.3162 6.81067 76.7215 7.70667 76.7215 8.816C76.7215 9.30667 76.6362 9.84 76.4655 10.416L74.8335 15.856C74.7482 16.1547 74.7055 16.3573 74.7055 16.464C74.7055 16.7413 74.7802 16.9547 74.9295 17.104C75.1002 17.2533 75.3242 17.328 75.6015 17.328C75.9855 17.328 76.3055 17.2 76.5615 16.944C76.8388 16.6667 77.1055 16.2293 77.3615 15.632L79.1855 9.36C79.2282 9.18933 79.2495 9.06133 79.2495 8.976C79.2495 8.76267 79.1962 8.58133 79.0895 8.432C78.9828 8.28267 78.8335 8.12267 78.6415 7.952C78.3215 7.67467 78.1615 7.42933 78.1615 7.216C78.1402 6.91733 78.3215 6.59733 78.7055 6.256C79.0895 5.91467 79.6228 5.63733 80.3055 5.424C81.0095 5.18933 81.7988 5.072 82.6735 5.072C84.1242 5.072 85.2442 5.41333 86.0335 6.096C86.8228 6.77867 87.2175 7.68533 87.2175 8.816C87.2175 9.264 87.1322 9.79733 86.9615 10.416L84.8815 17.264C84.8388 17.3707 84.8175 17.5307 84.8175 17.744C84.8175 18.0213 84.9135 18.2347 85.1055 18.384C85.2975 18.5333 85.5642 18.608 85.9055 18.608C86.3748 18.608 86.9188 18.4053 87.5375 18C88.1775 17.5733 88.7962 16.976 89.3935 16.208C90.0122 15.4187 90.5135 14.4907 90.8975 13.424C90.0442 12.6773 89.4362 11.9413 89.0735 11.216C88.7322 10.4907 88.5615 9.744 88.5615 8.976C88.5615 7.888 88.8602 6.97067 89.4575 6.224C90.0548 5.456 90.9188 5.072 92.0495 5.072C93.1802 5.072 94.1188 5.47733 94.8655 6.288C95.6122 7.09867 95.9855 8.208 95.9855 9.616ZM19.96 36.072C20.8987 36.072 21.6453 36.456 22.2 37.224C22.776 37.9707 23.064 38.9947 23.064 40.296C23.064 41.4267 22.8613 42.6427 22.456 43.944C21.6667 46.568 20.3973 49.0427 18.648 51.368C16.92 53.6933 14.9253 55.56 12.664 56.968C10.424 58.376 8.184 59.08 5.944 59.08C4.83467 59.08 3.87467 58.888 3.064 58.504C2.27467 58.12 1.67733 57.608 1.272 56.968C0.845333 56.328 0.632 55.6453 0.632 54.92C0.632 54.6 0.685333 54.248 0.792 53.864C0.984 53.2667 1.304 52.808 1.752 52.488C2.2 52.168 2.73333 52.008 3.352 52.008C4.33333 52.008 5.13333 52.3387 5.752 53C6.392 53.6827 6.79733 54.6107 6.968 55.784C8.33333 55.72 9.592 55.1333 10.744 54.024C9.656 53.832 8.84533 53.4693 8.312 52.936C7.8 52.3813 7.448 51.528 7.256 50.376L5.976 42.536C5.912 42.1307 5.816 41.8533 5.688 41.704C5.58133 41.5333 5.432 41.448 5.24 41.448C5.09067 41.448 4.90933 41.5227 4.696 41.672C4.504 41.8213 4.36533 41.896 4.28 41.896C4.10933 41.896 4.024 41.7147 4.024 41.352C4.024 41.0533 4.07733 40.7333 4.184 40.392C4.568 39.176 5.28267 38.152 6.328 37.32C7.37333 36.4667 8.58933 36.04 9.976 36.04C11.3413 36.04 12.344 36.4453 12.984 37.256C13.6453 38.0667 14.072 39.3147 14.264 41L15.224 48.04C15.288 48.5733 15.48 48.84 15.8 48.84C16.184 48.84 16.632 48.4987 17.144 47.816C17.656 47.112 18.1573 46.12 18.648 44.84C18.008 44.264 17.5173 43.6027 17.176 42.856C16.8347 42.1093 16.664 41.3093 16.664 40.456C16.664 39.7947 16.7493 39.1973 16.92 38.664C17.176 37.8107 17.5707 37.1707 18.104 36.744C18.6587 36.296 19.2773 36.072 19.96 36.072ZM35.2278 36.072C38.1291 36.072 40.2624 36.6587 41.6278 37.832C43.0144 39.0053 43.7078 40.5413 43.7078 42.44C43.7078 43.08 43.6224 43.7947 43.4518 44.584C43.0464 46.3333 42.2891 47.8693 41.1798 49.192C40.0704 50.4933 38.7051 51.5067 37.0838 52.232C35.4838 52.936 33.7451 53.288 31.8678 53.288C28.9024 53.288 26.7051 52.7013 25.2758 51.528C23.8678 50.3333 23.1638 48.7547 23.1638 46.792C23.1638 46.1307 23.2491 45.3947 23.4198 44.584C23.8251 42.92 24.5931 41.448 25.7238 40.168C26.8758 38.8667 28.2731 37.864 29.9158 37.16C31.5798 36.4347 33.3504 36.072 35.2278 36.072ZM35.1318 38.92C34.6838 38.92 34.2038 39.3253 33.6918 40.136C33.2011 40.9253 32.6144 42.4293 31.9318 44.648C31.2491 46.8667 30.9078 48.424 30.9078 49.32C30.9078 49.7893 30.9824 50.1093 31.1318 50.28C31.2811 50.4293 31.4838 50.504 31.7398 50.504C32.1878 50.5467 32.6464 50.1627 33.1158 49.352C33.6064 48.5413 34.2144 46.9627 34.9398 44.616C35.6011 42.5467 35.9318 41.0427 35.9318 40.104C35.9318 39.656 35.8571 39.3467 35.7078 39.176C35.5798 39.0053 35.3878 38.92 35.1318 38.92ZM62.8518 48.584C62.8091 48.7547 62.7878 48.8827 62.7878 48.968C62.7878 49.1173 62.8198 49.2347 62.8838 49.32C62.9691 49.4053 63.0758 49.448 63.2038 49.448C63.4598 49.448 63.6731 49.3413 63.8438 49.128C64.0358 48.8933 64.1638 48.776 64.2278 48.776C64.3344 48.776 64.4198 48.8507 64.4838 49C64.5691 49.128 64.6118 49.288 64.6118 49.48C64.6331 50.0773 64.4198 50.6747 63.9718 51.272C63.5238 51.848 62.8944 52.328 62.0838 52.712C61.2731 53.096 60.3664 53.288 59.3638 53.288C58.1051 53.288 57.1024 53.032 56.3558 52.52C55.6091 52.008 55.1291 51.336 54.9158 50.504C54.1478 51.3573 53.2944 52.008 52.3558 52.456C51.4384 52.8827 50.4998 53.096 49.5398 53.096C48.0464 53.096 46.7878 52.7333 45.7638 52.008C44.7611 51.2613 44.2598 50.2267 44.2598 48.904C44.2598 48.3067 44.3664 47.688 44.5798 47.048L46.6278 40.36C46.6918 40.168 46.7238 40.008 46.7238 39.88C46.7238 39.6453 46.6704 39.464 46.5638 39.336C46.4571 39.1867 46.2971 39.0373 46.0838 38.888C45.8704 38.7173 45.7211 38.568 45.6358 38.44C45.5504 38.312 45.5398 38.1413 45.6038 37.928C45.7318 37.4373 46.4038 37.0107 47.6198 36.648C48.8358 36.264 50.1051 36.072 51.4278 36.072C52.6651 36.072 53.5718 36.3067 54.1478 36.776C54.7238 37.2453 55.0118 37.8853 55.0118 38.696C55.0118 39.1867 54.9371 39.656 54.7878 40.104L52.7718 46.76C52.6864 46.9947 52.6438 47.2187 52.6438 47.432C52.6438 47.7307 52.7291 47.9547 52.8998 48.104C53.0704 48.2533 53.2944 48.328 53.5718 48.328C53.9771 48.328 54.3078 48.2107 54.5638 47.976C54.8198 47.7413 55.0758 47.3467 55.3318 46.792L57.2838 40.36C57.3478 40.168 57.3798 40.008 57.3798 39.88C57.3798 39.6453 57.3264 39.464 57.2198 39.336C57.1131 39.1867 56.9638 39.0373 56.7718 38.888C56.5584 38.7173 56.4091 38.568 56.3238 38.44C56.2384 38.312 56.2278 38.1413 56.2918 37.928C56.3984 37.4373 57.0598 37.0107 58.2758 36.648C59.4918 36.264 60.7611 36.072 62.0838 36.072C63.3211 36.072 64.2278 36.3067 64.8038 36.776C65.4011 37.2453 65.6998 37.8747 65.6998 38.664C65.6998 39.0693 65.6144 39.5493 65.4438 40.104L62.8518 48.584ZM81.4933 36.072C82.6879 36.072 83.6373 36.4347 84.3413 37.16C85.0666 37.8853 85.4293 38.7813 85.4293 39.848C85.4293 40.2533 85.3866 40.6267 85.3013 40.968C85.0879 41.8427 84.6826 42.5147 84.0853 42.984C83.4879 43.4533 82.7733 43.688 81.9412 43.688C81.1306 43.688 80.5119 43.496 80.0853 43.112C79.6799 42.728 79.3173 42.216 78.9973 41.576C78.8266 41.2133 78.6666 40.9467 78.5173 40.776C78.3679 40.6053 78.1973 40.52 78.0053 40.52C77.7919 40.52 77.5999 40.6053 77.4293 40.776C77.2799 40.9467 77.1413 41.2453 77.0133 41.672L74.5493 49.672C74.5066 49.7787 74.4853 49.9387 74.4853 50.152C74.4853 50.4293 74.5599 50.664 74.7093 50.856C74.8799 51.0267 75.1039 51.1973 75.3813 51.368C75.6373 51.5387 75.8079 51.6773 75.8933 51.784C75.9786 51.8907 76.0106 52.0293 75.9893 52.2C75.9466 52.4773 75.7866 52.68 75.5093 52.808C75.2533 52.936 74.8053 53 74.1653 53H65.9733C65.4186 53 65.0239 52.9147 64.7892 52.744C64.5332 52.552 64.4372 52.3067 64.5012 52.008C64.5866 51.752 64.8106 51.528 65.1732 51.336C65.4932 51.1653 65.7599 50.9627 65.9733 50.728C66.1866 50.4933 66.3679 50.12 66.5173 49.608L69.3653 40.36C69.4079 40.2533 69.4293 40.104 69.4293 39.912C69.4293 39.6773 69.3759 39.496 69.2693 39.368C69.1839 39.24 69.0346 39.08 68.8213 38.888C68.6079 38.7173 68.4586 38.568 68.3733 38.44C68.2879 38.312 68.2773 38.1413 68.3413 37.928C68.4693 37.4373 69.1413 37.0107 70.3573 36.648C71.5733 36.264 72.8426 36.072 74.1653 36.072C75.0399 36.072 75.7653 36.2747 76.3413 36.68C76.9173 37.064 77.2906 37.6187 77.4613 38.344C78.4853 36.8293 79.8293 36.072 81.4933 36.072ZM102.335 35.912C103.636 35.912 104.777 36.104 105.759 36.488C106.74 36.8507 107.497 37.3627 108.031 38.024C108.585 38.664 108.863 39.3787 108.863 40.168C108.863 41.0213 108.564 41.7253 107.967 42.28C107.391 42.8347 106.601 43.112 105.599 43.112C104.575 43.112 103.775 42.856 103.199 42.344C102.623 41.8107 102.335 41.096 102.335 40.2C102.335 39.7733 102.399 39.3253 102.527 38.856C101.631 39.0907 100.831 39.56 100.127 40.264C99.4441 40.9467 98.9854 41.8533 98.7508 42.984C98.6228 43.624 98.5588 44.2 98.5588 44.712C98.5588 45.864 98.8788 46.7387 99.5188 47.336C100.159 47.9333 101.076 48.232 102.271 48.232C102.953 48.232 103.54 48.168 104.031 48.04C104.521 47.8907 105.023 47.6987 105.535 47.464C105.961 47.2507 106.271 47.144 106.463 47.144C106.591 47.144 106.676 47.176 106.719 47.24C106.761 47.2827 106.783 47.3893 106.783 47.56C106.804 48.3493 106.473 49.1813 105.791 50.056C105.129 50.9093 104.201 51.6347 103.007 52.232C101.833 52.808 100.511 53.096 99.0388 53.096C97.5028 53.096 96.1374 52.8187 94.9427 52.264C93.7694 51.688 92.8521 50.8773 92.1908 49.832C91.5508 48.7653 91.2308 47.528 91.2308 46.12C91.2308 45.4587 91.3161 44.7227 91.4868 43.912C92.0628 41.2667 93.3321 39.272 95.2948 37.928C97.2788 36.584 99.6254 35.912 102.335 35.912ZM119.487 36.072C121.94 36.072 123.903 36.5307 125.375 37.448C126.847 38.344 127.583 39.72 127.583 41.576C127.583 42.28 127.455 43.08 127.199 43.976L125.887 48.392C125.865 48.4773 125.855 48.584 125.855 48.712C125.855 49.0533 125.993 49.224 126.271 49.224C126.527 49.224 126.74 49.1173 126.911 48.904C127.103 48.6693 127.231 48.552 127.295 48.552C127.401 48.552 127.487 48.6267 127.551 48.776C127.636 48.9253 127.679 49.096 127.679 49.288C127.7 49.864 127.476 50.4507 127.007 51.048C126.559 51.6453 125.951 52.136 125.183 52.52C124.415 52.904 123.572 53.096 122.655 53.096C121.545 53.096 120.596 52.8933 119.807 52.488C119.017 52.0827 118.473 51.4853 118.175 50.696C117.535 51.464 116.777 52.0613 115.903 52.488C115.028 52.8933 114.089 53.096 113.087 53.096C111.956 53.096 111.007 52.8827 110.239 52.456C109.471 52.008 108.895 51.4427 108.511 50.76C108.148 50.056 107.966 49.32 107.966 48.552C107.966 48.2107 107.998 47.88 108.062 47.56C108.404 46.088 109.14 44.9787 110.271 44.232C111.423 43.4853 112.788 43.112 114.367 43.112C116.137 43.112 117.876 43.3893 119.583 43.944L120.383 41.832C120.66 40.936 120.799 40.2427 120.799 39.752C120.777 39.24 120.607 38.856 120.287 38.6C119.967 38.344 119.476 38.216 118.815 38.216C118.943 38.5573 119.007 38.9093 119.007 39.272C119.007 40.0613 118.708 40.744 118.111 41.32C117.513 41.896 116.66 42.184 115.551 42.184C114.505 42.184 113.684 41.96 113.087 41.512C112.511 41.0427 112.223 40.4667 112.223 39.784C112.223 38.7173 112.82 37.832 114.015 37.128C115.209 36.424 117.033 36.072 119.487 36.072ZM117.695 45.768C117.097 45.768 116.607 46.0027 116.223 46.472C115.86 46.92 115.679 47.4107 115.679 47.944C115.679 48.2853 115.753 48.5627 115.903 48.776C116.073 48.9893 116.308 49.096 116.607 49.096C116.884 49.096 117.183 48.9893 117.503 48.776C117.844 48.5413 118.089 48.2 118.239 47.752L118.911 45.864C118.548 45.8 118.143 45.768 117.695 45.768ZM144.712 36.072C145.907 36.072 146.856 36.4347 147.56 37.16C148.285 37.8853 148.648 38.7813 148.648 39.848C148.648 40.2533 148.605 40.6267 148.52 40.968C148.307 41.8427 147.901 42.5147 147.304 42.984C146.707 43.4533 145.992 43.688 145.16 43.688C144.349 43.688 143.731 43.496 143.304 43.112C142.899 42.728 142.536 42.216 142.216 41.576C142.045 41.2133 141.885 40.9467 141.736 40.776C141.587 40.6053 141.416 40.52 141.224 40.52C141.011 40.52 140.819 40.6053 140.648 40.776C140.499 40.9467 140.36 41.2453 140.232 41.672L137.768 49.672C137.725 49.7787 137.704 49.9387 137.704 50.152C137.704 50.4293 137.779 50.664 137.928 50.856C138.099 51.0267 138.323 51.1973 138.6 51.368C138.856 51.5387 139.027 51.6773 139.112 51.784C139.197 51.8907 139.229 52.0293 139.208 52.2C139.165 52.4773 139.005 52.68 138.728 52.808C138.472 52.936 138.024 53 137.384 53H129.192C128.637 53 128.243 52.9147 128.008 52.744C127.752 52.552 127.656 52.3067 127.72 52.008C127.805 51.752 128.029 51.528 128.392 51.336C128.712 51.1653 128.979 50.9627 129.192 50.728C129.405 50.4933 129.587 50.12 129.736 49.608L132.584 40.36C132.627 40.2533 132.648 40.104 132.648 39.912C132.648 39.6773 132.595 39.496 132.488 39.368C132.403 39.24 132.253 39.08 132.04 38.888C131.827 38.7173 131.677 38.568 131.592 38.44C131.507 38.312 131.496 38.1413 131.56 37.928C131.688 37.4373 132.36 37.0107 133.576 36.648C134.792 36.264 136.061 36.072 137.384 36.072C138.259 36.072 138.984 36.2747 139.56 36.68C140.136 37.064 140.509 37.6187 140.68 38.344C141.704 36.8293 143.048 36.072 144.712 36.072ZM165.419 48.392C165.377 48.5627 165.355 48.68 165.355 48.744C165.355 48.8933 165.398 49.0107 165.483 49.096C165.569 49.1813 165.675 49.224 165.803 49.224C166.059 49.224 166.273 49.1173 166.443 48.904C166.635 48.6693 166.763 48.552 166.827 48.552C166.934 48.552 167.019 48.6267 167.083 48.776C167.147 48.9253 167.179 49.096 167.179 49.288C167.201 49.864 166.977 50.4507 166.507 51.048C166.059 51.6453 165.451 52.136 164.683 52.52C163.915 52.904 163.083 53.096 162.187 53.096C161.121 53.096 160.193 52.8933 159.403 52.488C158.614 52.0827 158.07 51.5493 157.771 50.888C157.195 51.6347 156.534 52.1893 155.787 52.552C155.041 52.9147 154.251 53.096 153.419 53.096C152.438 53.096 151.521 52.8507 150.667 52.36C149.835 51.8693 149.163 51.176 148.651 50.28C148.161 49.3627 147.915 48.328 147.915 47.176C147.915 45.2347 148.278 43.4107 149.003 41.704C149.75 39.976 150.785 38.5893 152.107 37.544C153.43 36.4773 154.934 35.944 156.619 35.944C157.537 35.944 158.315 36.0507 158.955 36.264C159.617 36.4773 160.214 36.7973 160.747 37.224L161.835 33.64C161.899 33.448 161.931 33.288 161.931 33.16C161.931 32.9253 161.867 32.7333 161.739 32.584C161.633 32.4347 161.483 32.2853 161.291 32.136C161.078 31.9653 160.918 31.816 160.811 31.688C160.726 31.56 160.715 31.3893 160.779 31.176C160.907 30.6853 161.579 30.2587 162.795 29.896C164.011 29.5333 165.281 29.352 166.603 29.352C167.841 29.352 168.747 29.5867 169.323 30.056C169.921 30.5253 170.219 31.1653 170.219 31.976C170.219 32.4453 170.145 32.904 169.995 33.352L165.419 48.392ZM160.075 39.4C159.734 39.1013 159.361 38.952 158.955 38.952C158.337 38.952 157.729 39.4107 157.131 40.328C156.534 41.2453 156.054 42.3547 155.691 43.656C155.329 44.9573 155.158 46.1307 155.179 47.176C155.179 48.3493 155.563 48.936 156.331 48.936C156.609 48.936 156.843 48.8293 157.035 48.616C157.227 48.3813 157.409 48.008 157.579 47.496L160.075 39.4Z" fill="#202530"/>
</svg>
