<svg width="94" height="23" viewBox="0 0 94 23" fill="none" xmlns="http://www.w3.org/2000/svg">
<path d="M16.328 0.688C19.528 0.688 21.9387 1.30667 23.56 2.544C25.1813 3.76 25.992 5.552 25.992 7.92C25.992 9.09333 25.7787 10.448 25.352 11.984C24.648 14.4587 23.6987 16.4213 22.504 17.872C21.3093 19.3227 19.7307 20.3787 17.768 21.04C15.8267 21.7013 13.3307 22.0213 10.28 22L1.576 21.968C1.128 21.968 0.786667 21.8933 0.552 21.744C0.296 21.5947 0.168 21.392 0.168 21.136C0.168 21.008 0.2 20.8693 0.264 20.72C0.328 20.528 0.424 20.3893 0.552 20.304C0.658667 20.2187 0.829333 20.1013 1.064 19.952C1.40533 19.76 1.672 19.5467 1.864 19.312C2.07733 19.0773 2.25867 18.704 2.408 18.192L6.312 4.432C6.39733 4.15467 6.44 3.888 6.44 3.632C6.44 3.39733 6.39733 3.20533 6.312 3.056C6.248 2.88533 6.152 2.69333 6.024 2.48C5.832 2.20267 5.736 1.97867 5.736 1.808C5.736 1.744 5.75733 1.62667 5.8 1.456C5.88533 1.17867 6.06667 0.986666 6.344 0.879999C6.64267 0.752 7.09067 0.688 7.688 0.688H16.328ZM17.16 11.28C17.7147 9.27467 17.992 7.696 17.992 6.544C17.992 5.41333 17.7573 4.63467 17.288 4.208C16.8187 3.78133 16.1467 3.568 15.272 3.568H14.568L10.248 19.12H11.016C11.9973 19.12 12.8187 18.9173 13.48 18.512C14.1627 18.0853 14.792 17.3173 15.368 16.208C15.944 15.0773 16.5413 13.4347 17.16 11.28ZM41.4308 5.072C42.6254 5.072 43.5748 5.43467 44.2788 6.16C45.0041 6.88533 45.3668 7.78133 45.3668 8.848C45.3668 9.25333 45.3241 9.62667 45.2388 9.968C45.0254 10.8427 44.6201 11.5147 44.0228 11.984C43.4254 12.4533 42.7108 12.688 41.8787 12.688C41.0681 12.688 40.4494 12.496 40.0228 12.112C39.6174 11.728 39.2548 11.216 38.9348 10.576C38.7641 10.2133 38.6041 9.94667 38.4548 9.776C38.3054 9.60533 38.1348 9.52 37.9428 9.52C37.7294 9.52 37.5374 9.60533 37.3668 9.776C37.2174 9.94667 37.0788 10.2453 36.9508 10.672L34.4868 18.672C34.4441 18.7787 34.4228 18.9387 34.4228 19.152C34.4228 19.4293 34.4974 19.664 34.6468 19.856C34.8174 20.0267 35.0414 20.1973 35.3188 20.368C35.5748 20.5387 35.7454 20.6773 35.8308 20.784C35.9161 20.8907 35.9481 21.0293 35.9268 21.2C35.8841 21.4773 35.7241 21.68 35.4468 21.808C35.1908 21.936 34.7428 22 34.1028 22H25.9108C25.3561 22 24.9614 21.9147 24.7267 21.744C24.4707 21.552 24.3747 21.3067 24.4387 21.008C24.5241 20.752 24.7481 20.528 25.1107 20.336C25.4307 20.1653 25.6974 19.9627 25.9108 19.728C26.1241 19.4933 26.3054 19.12 26.4548 18.608L29.3028 9.36C29.3454 9.25333 29.3668 9.104 29.3668 8.912C29.3668 8.67733 29.3134 8.496 29.2068 8.368C29.1214 8.24 28.9721 8.08 28.7588 7.888C28.5454 7.71733 28.3961 7.568 28.3108 7.44C28.2254 7.312 28.2148 7.14133 28.2788 6.928C28.4068 6.43733 29.0788 6.01067 30.2948 5.648C31.5108 5.264 32.7801 5.072 34.1028 5.072C34.9774 5.072 35.7028 5.27467 36.2788 5.68C36.8548 6.064 37.2281 6.61867 37.3988 7.344C38.4228 5.82933 39.7668 5.072 41.4308 5.072ZM55.049 5.072C57.5023 5.072 59.465 5.53067 60.937 6.448C62.409 7.344 63.145 8.72 63.145 10.576C63.145 11.28 63.017 12.08 62.761 12.976L61.449 17.392C61.4277 17.4773 61.417 17.584 61.417 17.712C61.417 18.0533 61.5557 18.224 61.833 18.224C62.089 18.224 62.3023 18.1173 62.473 17.904C62.665 17.6693 62.793 17.552 62.857 17.552C62.9637 17.552 63.049 17.6267 63.113 17.776C63.1983 17.9253 63.241 18.096 63.241 18.288C63.2623 18.864 63.0383 19.4507 62.569 20.048C62.121 20.6453 61.513 21.136 60.745 21.52C59.977 21.904 59.1343 22.096 58.217 22.096C57.1077 22.096 56.1583 21.8933 55.369 21.488C54.5797 21.0827 54.0357 20.4853 53.737 19.696C53.097 20.464 52.3397 21.0613 51.465 21.488C50.5903 21.8933 49.6517 22.096 48.649 22.096C47.5183 22.096 46.569 21.8827 45.801 21.456C45.033 21.008 44.457 20.4427 44.073 19.76C43.7103 19.056 43.529 18.32 43.529 17.552C43.529 17.2107 43.561 16.88 43.625 16.56C43.9663 15.088 44.7023 13.9787 45.833 13.232C46.985 12.4853 48.3503 12.112 49.929 12.112C51.6997 12.112 53.4383 12.3893 55.145 12.944L55.945 10.832C56.2223 9.936 56.361 9.24267 56.361 8.752C56.3397 8.24 56.169 7.856 55.849 7.6C55.529 7.344 55.0383 7.216 54.377 7.216C54.505 7.55733 54.569 7.90933 54.569 8.272C54.569 9.06133 54.2703 9.744 53.673 10.32C53.0757 10.896 52.2223 11.184 51.113 11.184C50.0677 11.184 49.2463 10.96 48.649 10.512C48.073 10.0427 47.785 9.46667 47.785 8.784C47.785 7.71733 48.3823 6.832 49.577 6.128C50.7717 5.424 52.5957 5.072 55.049 5.072ZM53.257 14.768C52.6597 14.768 52.169 15.0027 51.785 15.472C51.4223 15.92 51.241 16.4107 51.241 16.944C51.241 17.2853 51.3157 17.5627 51.465 17.776C51.6357 17.9893 51.8703 18.096 52.169 18.096C52.4463 18.096 52.745 17.9893 53.065 17.776C53.4063 17.5413 53.6517 17.2 53.801 16.752L54.473 14.864C54.1103 14.8 53.705 14.768 53.257 14.768ZM93.9855 9.616C93.9855 11.5147 93.3242 13.456 92.0015 15.44C90.6788 17.424 89.0042 19.0667 86.9775 20.368C84.9722 21.648 82.9988 22.288 81.0575 22.288C79.5215 22.288 78.2202 22.0213 77.1535 21.488C76.0868 20.9547 75.3935 20.1867 75.0735 19.184C74.2842 20.144 73.4095 20.8693 72.4495 21.36C71.4895 21.8507 70.4868 22.096 69.4415 22.096C67.9908 22.096 66.8068 21.744 65.8895 21.04C64.9935 20.3147 64.5455 19.2587 64.5455 17.872C64.5455 17.1467 64.6628 16.4 64.8975 15.632L66.6895 9.36C66.7322 9.18933 66.7535 9.06133 66.7535 8.976C66.7535 8.76267 66.7002 8.58133 66.5935 8.432C66.4868 8.28267 66.3375 8.12267 66.1455 7.952C65.8255 7.67467 65.6655 7.42933 65.6655 7.216C65.6442 6.91733 65.8255 6.59733 66.2095 6.256C66.5935 5.91467 67.1268 5.63733 67.8095 5.424C68.5135 5.18933 69.3028 5.072 70.1775 5.072C71.6068 5.072 72.7162 5.424 73.5055 6.128C74.3162 6.81067 74.7215 7.70667 74.7215 8.816C74.7215 9.30667 74.6362 9.84 74.4655 10.416L72.8335 15.856C72.7482 16.1547 72.7055 16.3573 72.7055 16.464C72.7055 16.7413 72.7802 16.9547 72.9295 17.104C73.1002 17.2533 73.3242 17.328 73.6015 17.328C73.9855 17.328 74.3055 17.2 74.5615 16.944C74.8388 16.6667 75.1055 16.2293 75.3615 15.632L77.1855 9.36C77.2282 9.18933 77.2495 9.06133 77.2495 8.976C77.2495 8.76267 77.1962 8.58133 77.0895 8.432C76.9828 8.28267 76.8335 8.12267 76.6415 7.952C76.3215 7.67467 76.1615 7.42933 76.1615 7.216C76.1402 6.91733 76.3215 6.59733 76.7055 6.256C77.0895 5.91467 77.6228 5.63733 78.3055 5.424C79.0095 5.18933 79.7988 5.072 80.6735 5.072C82.1242 5.072 83.2442 5.41333 84.0335 6.096C84.8228 6.77867 85.2175 7.68533 85.2175 8.816C85.2175 9.264 85.1322 9.79733 84.9615 10.416L82.8815 17.264C82.8388 17.3707 82.8175 17.5307 82.8175 17.744C82.8175 18.0213 82.9135 18.2347 83.1055 18.384C83.2975 18.5333 83.5642 18.608 83.9055 18.608C84.3748 18.608 84.9188 18.4053 85.5375 18C86.1775 17.5733 86.7962 16.976 87.3935 16.208C88.0122 15.4187 88.5135 14.4907 88.8975 13.424C88.0442 12.6773 87.4362 11.9413 87.0735 11.216C86.7322 10.4907 86.5615 9.744 86.5615 8.976C86.5615 7.888 86.8602 6.97067 87.4575 6.224C88.0548 5.456 88.9188 5.072 90.0495 5.072C91.1802 5.072 92.1188 5.47733 92.8655 6.288C93.6122 7.09867 93.9855 8.208 93.9855 9.616Z" fill="#CAD0D6"/>
</svg>
