<svg xmlns="http://www.w3.org/2000/svg" width="19" height="18" viewBox="0 0 19 18" fill="none">
<path d="M7.10986 6.06356C7.10986 5.17871 6.00445 4.94418 5.71117 5.77211C5.00176 7.77483 4.48486 9.5664 4.48486 10.535C4.48486 13.622 6.83537 16.1245 9.73486 16.1245C12.6344 16.1245 14.9849 13.622 14.9849 10.535C14.9849 9.49437 14.3882 7.50381 13.5972 5.32206C12.5726 2.49583 12.0602 1.08271 11.4278 1.0066C11.2254 0.982241 11.0047 1.02603 10.8241 1.12633C10.2599 1.4398 10.2599 2.98106 10.2599 6.06356C10.2599 6.98965 9.55471 7.74039 8.68486 7.74039C7.81501 7.74039 7.10986 6.98965 7.10986 6.06356Z" fill="white"/>
</svg>
