<svg width="16" height="21" viewBox="0 0 16 21" fill="none" xmlns="http://www.w3.org/2000/svg">
<path fill-rule="evenodd" clip-rule="evenodd" d="M0 4C0 1.79086 1.79086 0 4 0H12C14.2091 0 16 1.79086 16 4V17C16 19.2091 14.2091 21 12 21H4C1.79086 21 0 19.2091 0 17V4ZM7.99914 6.75C7.05242 6.75 6.24914 7.54542 6.24914 8.57143C6.24914 8.98564 5.91335 9.32143 5.49914 9.32143C5.08493 9.32143 4.74914 8.98564 4.74914 8.57143C4.74914 6.75711 6.18444 5.25 7.99914 5.25C9.81384 5.25 11.2491 6.75711 11.2491 8.57143C11.2491 10.0024 10.3609 11.2348 9.09717 11.6983C8.97271 11.744 8.87146 11.8138 8.81036 11.8818C8.75319 11.9455 8.74914 11.9844 8.74914 12C8.74914 12.4142 8.41335 12.75 7.99914 12.75C7.58493 12.75 7.24914 12.4142 7.24914 12C7.24914 11.0764 7.99259 10.5057 8.58069 10.29C9.25219 10.0438 9.74914 9.37471 9.74914 8.57143C9.74914 7.54542 8.94586 6.75 7.99914 6.75ZM8.99914 15C8.99914 15.5523 8.55142 16 7.99914 16C7.44686 16 6.99914 15.5523 6.99914 15C6.99914 14.4477 7.44686 14 7.99914 14C8.55142 14 8.99914 14.4477 8.99914 15Z" fill="#35CA89"/>
</svg>
