<svg width="20" height="17" viewBox="0 0 20 17" fill="none" xmlns="http://www.w3.org/2000/svg">
<path d="M6.4 1.25C3.61914 1.25 1.25 3.3293 1.25 6.0298C1.25 7.89275 2.12235 9.46118 3.27849 10.7604C4.43066 12.0552 5.91714 13.142 7.26097 14.0516L9.57959 15.6211C9.83351 15.793 10.1665 15.793 10.4204 15.6211L12.739 14.0516C14.0829 13.142 15.5693 12.0552 16.7215 10.7604C17.8777 9.46118 18.75 7.89275 18.75 6.0298C18.75 3.3293 16.3809 1.25 13.6 1.25C12.1665 1.25 10.9052 1.92214 10 2.79183C9.09484 1.92214 7.83347 1.25 6.4 1.25Z" stroke="#B1B8C0" stroke-linecap="round" stroke-linejoin="round"/>
</svg>
