<svg xmlns="http://www.w3.org/2000/svg" width="36" height="36" viewBox="0 0 36 36" fill="none">
  <rect width="36" height="36" rx="8" fill="#F5F0FF"/>
  <path d="M14.4 12.25C11.6191 12.25 9.25 14.3293 9.25 17.0298C9.25 18.8927 10.1223 20.4612 11.2785 21.7604C12.4307 23.0552 13.9171 24.142 15.261 25.0516L17.5796 26.6211C17.8335 26.793 18.1665 26.793 18.4204 26.6211L20.739 25.0516C22.0829 24.142 23.5693 23.0552 24.7215 21.7604C25.8777 20.4612 26.75 18.8927 26.75 17.0298C26.75 14.3293 24.3809 12.25 21.6 12.25C20.1665 12.25 18.9052 12.9221 18 13.7918C17.0948 12.9221 15.8335 12.25 14.4 12.25Z" fill="#9065DF" stroke="#9065DF" stroke-linecap="round" stroke-linejoin="round"/>
</svg>
