<svg xmlns="http://www.w3.org/2000/svg" width="64" height="64" viewBox="0 0 64 64" fill="none">
<style>
.st0 {
	animation: 2.6s linear 0s infinite normal forwards running st0;
		transform: translateX(0px) translateY(0px) rotate(0deg);
  transform-origin: center;
}
@keyframes st0 {
	0% {
		transform: translateX(0px) translateY(0px) rotate(0deg);
	}
	100% {
		transform: translateX(0px) translateY(0px) rotate(360deg);
	}
}
</style>
<path class="st0" d="M29.9727 3.8025C30.8375 2.1804 33.1625 2.1804 34.0273 3.8025L36.55 8.53414C37.1756 9.70766 38.6639 10.1065 39.7925 9.40298L44.3431 6.5666C45.9031 5.59423 47.9165 6.75671 47.8545 8.59391L47.6733 13.953C47.6284 15.2821 48.7179 16.3716 50.0471 16.3267L55.4061 16.1456C57.2433 16.0835 58.4058 18.0969 57.4334 19.657L54.597 24.2075C53.8936 25.3361 54.2923 26.8244 55.4659 27.45L60.1975 29.9727C61.8196 30.8375 61.8196 33.1625 60.1975 34.0273L55.4659 36.55C54.2923 37.1756 53.8936 38.6639 54.597 39.7925L57.4334 44.3431C58.4058 45.9031 57.2433 47.9165 55.4061 47.8545L50.0471 47.6733C48.7179 47.6284 47.6284 48.7179 47.6733 50.0471L47.8545 55.4061C47.9165 57.2433 45.9031 58.4058 44.3431 57.4334L39.7925 54.597C38.6639 53.8936 37.1756 54.2923 36.55 55.4659L34.0273 60.1975C33.1625 61.8196 30.8375 61.8196 29.9727 60.1975L27.45 55.4659C26.8244 54.2923 25.3361 53.8936 24.2075 54.597L19.6569 57.4334C18.0969 58.4058 16.0835 57.2433 16.1456 55.4061L16.3267 50.0471C16.3716 48.7179 15.2821 47.6284 13.953 47.6733L8.5939 47.8545C6.75671 47.9165 5.59423 45.9031 6.5666 44.3431L9.40298 39.7925C10.1065 38.6639 9.70766 37.1756 8.53414 36.55L3.8025 34.0273C2.1804 33.1625 2.1804 30.8375 3.8025 29.9727L8.53414 27.45C9.70766 26.8244 10.1065 25.3361 9.40298 24.2075L6.5666 19.6569C5.59423 18.0969 6.75671 16.0835 8.59391 16.1456L13.953 16.3267C15.2821 16.3716 16.3716 15.2821 16.3267 13.953L16.1456 8.5939C16.0835 6.75671 18.0969 5.59423 19.657 6.5666L24.2075 9.40298C25.3361 10.1065 26.8244 9.70766 27.45 8.53414L29.9727 3.8025Z" fill="#35CA89"/>
<path d="M31.77 36.5412C31.9764 36.7877 32.0693 36.9829 32.0486 37.1268C31.9867 37.3322 31.8113 37.5069 31.5224 37.6507C31.2335 37.774 30.9239 37.8357 30.5937 37.8357C29.6237 37.8357 28.8292 37.5994 28.2101 37.1268C27.6116 36.6336 27.3123 36.0069 27.3123 35.2467C27.3123 34.959 27.3536 34.6919 27.4362 34.4453C27.6219 33.7878 27.9727 33.2535 28.4887 32.8426C29.0252 32.4111 29.8095 31.8974 30.8414 31.3015C31.9558 30.6851 32.8122 30.12 33.4107 29.6063C34.0092 29.0927 34.422 28.4249 34.649 27.603C34.7109 27.3153 34.7418 27.0482 34.7418 26.8016C34.7418 26.103 34.5045 25.5687 34.0299 25.1989C33.5552 24.829 33.0496 24.6441 32.513 24.6441C31.9351 24.6441 31.4295 24.7263 30.9961 24.8907C31.2231 25.4866 31.3367 26.1133 31.3367 26.7708C31.3367 27.079 31.3057 27.3564 31.2438 27.603C31.0168 28.3838 30.604 28.9899 30.0055 29.4214C29.407 29.8529 28.6434 30.0687 27.7148 30.0687C26.6003 30.0687 25.7026 29.7707 25.0216 29.1748C24.3405 28.5584 24 27.7776 24 26.8324C24 26.5037 24.0413 26.1852 24.1238 25.877C24.4334 24.5619 25.3518 23.5551 26.8789 22.8565C28.4268 22.1373 30.377 21.7777 32.7297 21.7777C34.7315 21.7777 36.4857 22.0962 37.9923 22.7332C39.4988 23.3701 40.6545 24.2229 41.4594 25.2913C42.2642 26.3393 42.6667 27.4694 42.6667 28.6817C42.6667 29.0516 42.6151 29.4625 42.5119 29.9146C42.2642 30.9214 41.8308 31.733 41.2117 32.3494C40.6132 32.9453 39.7258 33.4487 38.5495 33.8597C37.3938 34.2501 35.784 34.62 33.7203 34.9693C32.9361 35.1131 32.3995 35.2467 32.1106 35.3699C31.8216 35.4932 31.6359 35.6576 31.5533 35.8631L31.5224 35.9864C31.5224 36.1097 31.6049 36.2946 31.77 36.5412ZM29.2935 38.5446C30.119 38.5446 30.8104 38.7808 31.3676 39.2534C31.9248 39.7055 32.2034 40.2705 32.2034 40.9486C32.2241 41.4418 32.0796 41.9246 31.77 42.3972C31.4811 42.8698 31.0684 43.2602 30.5318 43.5684C29.9952 43.8561 29.3967 43.9999 28.7363 43.9999C27.8902 43.9999 27.1885 43.7636 26.6313 43.291C26.0947 42.7979 25.8264 42.202 25.8264 41.5034C25.8264 41.0308 25.9709 40.5685 26.2598 40.1164C26.5694 39.6644 26.9821 39.2945 27.4981 39.0069C28.0346 38.6987 28.6331 38.5446 29.2935 38.5446Z" fill="white"/>
</svg>
