<?xml version="1.0" encoding="utf-8"?>
<!-- Generator: Adobe Illustrator 26.4.0, SVG Export Plug-In . SVG Version: 6.00 Build 0)  -->
<svg version="1.1" xmlns="http://www.w3.org/2000/svg" xmlns:xlink="http://www.w3.org/1999/xlink" x="0px" y="0px"
	 viewBox="0 0 80 81" style="enable-background:new 0 0 80 81;" xml:space="preserve">
<style type="text/css">
	.st0{fill:#4CE2A2;}
	.st1{fill:#FFFFFF;}
  .st0 {
	animation: 2.6s linear 0s infinite normal forwards running st0;
		transform: translateX(0px) translateY(0px) rotate(0deg);
  transform-origin: center;
}
@keyframes st0 {
	0% {
		transform: translateX(0px) translateY(0px) rotate(0deg);
	}
	100% {
		transform: translateX(0px) translateY(0px) rotate(360deg);
	}
}
</style>
<g id="레이어_1">
	<path class="st0" d="M42.6,5.2l3.1,6.1c0.8,1.5,2.7,2,4.1,1.1l5.7-3.7c2-1.3,4.6,0.2,4.4,2.6L59.5,18c-0.1,1.7,1.3,3.1,3,3l6.8-0.4
		c2.3-0.1,3.8,2.5,2.6,4.4l-3.7,5.7c-0.9,1.4-0.4,3.4,1.1,4.1l6.1,3.1c2.1,1.1,2.1,4.1,0,5.1l-6.1,3.1c-1.5,0.8-2,2.7-1.1,4.1
		l3.7,5.7c1.3,2-0.2,4.6-2.6,4.4L62.5,60c-1.7-0.1-3.1,1.3-3,3l0.4,6.8c0.1,2.3-2.5,3.8-4.4,2.6l-5.7-3.7c-1.4-0.9-3.4-0.4-4.1,1.1
		l-3.1,6.1c-1.1,2.1-4.1,2.1-5.1,0l-3.1-6.1c-0.8-1.5-2.7-2-4.1-1.1l-5.7,3.7c-2,1.3-4.6-0.2-4.4-2.6l0.4-6.8c0.1-1.7-1.3-3.1-3-3
		l-6.8,0.4c-2.3,0.1-3.8-2.5-2.6-4.4l3.7-5.7c0.9-1.4,0.4-3.4-1.1-4.1l-6.1-3.1c-2.1-1.1-2.1-4.1,0-5.1l6.1-3.1
		c1.5-0.8,2-2.7,1.1-4.1l-3.7-5.7c-1.3-2,0.2-4.6,2.6-4.4l6.8,0.4c1.7,0.1,3.1-1.3,3-3l-0.4-6.8c-0.1-2.3,2.5-3.8,4.4-2.6l5.7,3.7
		c1.4,0.9,3.4,0.4,4.1-1.1l3.1-6.1C38.5,3.1,41.5,3.1,42.6,5.2z"/>
</g>
<g id="레이어_2">
	<path class="st1" d="M39.7,44.9c0.3,0.3,0.4,0.6,0.3,0.7c-0.1,0.3-0.3,0.5-0.7,0.7c-0.4,0.2-0.7,0.2-1.2,0.2c-1.2,0-2.2-0.3-3-0.9
		c-0.7-0.6-1.1-1.4-1.1-2.4c0-0.4,0.1-0.7,0.2-1c0.2-0.8,0.7-1.5,1.3-2c0.7-0.5,1.7-1.2,2.9-1.9c1.4-0.8,2.5-1.5,3.2-2.1
		c0.7-0.6,1.3-1.5,1.5-2.5c0.1-0.4,0.1-0.7,0.1-1c0-0.9-0.3-1.5-0.9-2c-0.6-0.5-1.2-0.7-1.9-0.7c-0.7,0-1.4,0.1-1.9,0.3
		c0.3,0.7,0.4,1.5,0.4,2.4c0,0.4,0,0.7-0.1,1c-0.3,1-0.8,1.7-1.5,2.3c-0.7,0.5-1.7,0.8-2.9,0.8c-1.4,0-2.5-0.4-3.4-1.1
		C30.4,35,30,34,30,32.8c0-0.4,0.1-0.8,0.2-1.2c0.4-1.6,1.5-2.9,3.4-3.8c1.9-0.9,4.4-1.3,7.3-1.3c2.5,0,4.7,0.4,6.6,1.2
		c1.9,0.8,3.3,1.9,4.3,3.2c1,1.3,1.5,2.7,1.5,4.2c0,0.5-0.1,1-0.2,1.5c-0.3,1.3-0.9,2.3-1.6,3c-0.7,0.7-1.9,1.4-3.3,1.9
		c-1.4,0.5-3.5,1-6,1.4c-1,0.2-1.7,0.3-2,0.5c-0.4,0.2-0.6,0.4-0.7,0.6l0,0.2C39.4,44.4,39.5,44.6,39.7,44.9z M36.6,47.4
		c1,0,1.9,0.3,2.6,0.9c0.7,0.6,1,1.3,1,2.1c0,0.6-0.2,1.2-0.5,1.8c-0.4,0.6-0.9,1.1-1.5,1.5c-0.7,0.4-1.4,0.5-2.2,0.5
		c-1.1,0-1.9-0.3-2.6-0.9c-0.7-0.6-1-1.4-1-2.2c0-0.6,0.2-1.2,0.5-1.7c0.4-0.6,0.9-1,1.5-1.4C35,47.6,35.8,47.4,36.6,47.4z"/>
</g>
</svg>

