<svg width="90" height="90" viewBox="0 0 90 90" fill="none" xmlns="http://www.w3.org/2000/svg">
<rect width="90" height="90" rx="17.7778" fill="white"/>
<path d="M42.9727 16.8025C43.8375 15.1804 46.1625 15.1804 47.0273 16.8025L49.55 21.5341C50.1756 22.7077 51.6639 23.1064 52.7925 22.403L57.3431 19.5666C58.9031 18.5942 60.9165 19.7567 60.8544 21.5939L60.6733 26.953C60.6284 28.2821 61.7179 29.3716 63.0471 29.3267L68.4061 29.1456C70.2433 29.0835 71.4058 31.0969 70.4334 32.6569L67.597 37.2075C66.8935 38.3361 67.2923 39.8244 68.4659 40.45L73.1975 42.9727C74.8196 43.8375 74.8196 46.1625 73.1975 47.0273L68.4659 49.55C67.2923 50.1756 66.8936 51.6639 67.597 52.7925L70.4334 57.3431C71.4058 58.9031 70.2433 60.9165 68.4061 60.8544L63.047 60.6733C61.7179 60.6284 60.6284 61.7179 60.6733 63.0471L60.8544 68.4061C60.9165 70.2433 58.9031 71.4058 57.343 70.4334L52.7925 67.597C51.6639 66.8935 50.1756 67.2923 49.55 68.4659L47.0273 73.1975C46.1625 74.8196 43.8375 74.8196 42.9727 73.1975L40.45 68.4659C39.8244 67.2923 38.3361 66.8936 37.2075 67.597L32.6569 70.4334C31.0969 71.4058 29.0835 70.2433 29.1456 68.4061L29.3267 63.047C29.3716 61.7179 28.2821 60.6284 26.9529 60.6733L21.5939 60.8544C19.7567 60.9165 18.5942 58.9031 19.5666 57.3431L22.403 52.7925C23.1065 51.6639 22.7077 50.1756 21.5341 49.55L16.8025 47.0273C15.1804 46.1625 15.1804 43.8375 16.8025 42.9727L21.5341 40.45C22.7077 39.8244 23.1064 38.3361 22.403 37.2075L19.5666 32.6569C18.5942 31.0969 19.7567 29.0835 21.5939 29.1456L26.953 29.3267C28.2821 29.3716 29.3716 28.2821 29.3267 26.9529L29.1456 21.5939C29.0835 19.7567 31.0969 18.5942 32.6569 19.5666L37.2075 22.403C38.3361 23.1065 39.8244 22.7077 40.45 21.5341L42.9727 16.8025Z" fill="#4CE2A2"/>
<path d="M44.77 49.5413C44.9764 49.7879 45.0693 49.9831 45.0486 50.1269C44.9867 50.3324 44.8113 50.507 44.5224 50.6509C44.2335 50.7741 43.9239 50.8358 43.5937 50.8358C42.6237 50.8358 41.8292 50.5995 41.2101 50.1269C40.6116 49.6337 40.3123 49.007 40.3123 48.2468C40.3123 47.9591 40.3536 47.692 40.4362 47.4454C40.6219 46.7879 40.9727 46.2537 41.4887 45.8427C42.0252 45.4112 42.8095 44.8975 43.8413 44.3016C44.9558 43.6852 45.8122 43.1202 46.4107 42.6065C47.0092 42.0928 47.422 41.425 47.649 40.6031C47.7109 40.3154 47.7418 40.0483 47.7418 39.8017C47.7418 39.1031 47.5045 38.5689 47.0299 38.199C46.5552 37.8292 46.0496 37.6442 45.513 37.6442C44.9351 37.6442 44.4295 37.7264 43.9961 37.8908C44.2231 38.4867 44.3366 39.1134 44.3366 39.7709C44.3366 40.0791 44.3057 40.3565 44.2438 40.6031C44.0168 41.3839 43.604 41.99 43.0055 42.4215C42.407 42.853 41.6434 43.0688 40.7148 43.0688C39.6003 43.0688 38.7026 42.7708 38.0216 42.175C37.3405 41.5585 37 40.7777 37 39.8325C37 39.5038 37.0413 39.1853 37.1238 38.8771C37.4334 37.562 38.3518 36.5552 39.8789 35.8566C41.4268 35.1374 43.377 34.7778 45.7297 34.7778C47.7315 34.7778 49.4857 35.0963 50.9923 35.7333C52.4988 36.3703 53.6545 37.223 54.4594 38.2915C55.2642 39.3394 55.6667 40.4695 55.6667 41.6818C55.6667 42.0517 55.6151 42.4626 55.5119 42.9147C55.2642 43.9215 54.8308 44.7331 54.2117 45.3496C53.6132 45.9455 52.7258 46.4489 51.5495 46.8598C50.3938 47.2502 48.784 47.6201 46.7203 47.9694C45.9361 48.1132 45.3995 48.2468 45.1106 48.3701C44.8216 48.4934 44.6359 48.6577 44.5533 48.8632L44.5224 48.9865C44.5224 49.1098 44.6049 49.2947 44.77 49.5413ZM42.2935 51.5447C43.119 51.5447 43.8104 51.781 44.3676 52.2536C44.9248 52.7056 45.2034 53.2707 45.2034 53.9487C45.2241 54.4419 45.0796 54.9248 44.77 55.3973C44.4811 55.8699 44.0684 56.2603 43.5318 56.5686C42.9952 56.8562 42.3967 57.0001 41.7363 57.0001C40.8902 57.0001 40.1885 56.7638 39.6313 56.2912C39.0947 55.798 38.8264 55.2021 38.8264 54.5035C38.8264 54.0309 38.9709 53.5686 39.2598 53.1166C39.5694 52.6645 39.9821 52.2947 40.4981 52.007C41.0346 51.6988 41.6331 51.5447 42.2935 51.5447Z" fill="white"/>
</svg>
