<svg width="88" height="60" viewBox="0 0 88 60" fill="none" xmlns="http://www.w3.org/2000/svg">
<g id="My_illust">
<path id="Rectangle 12211" d="M22 35.9297C22 38.6897 24.2375 40.9271 26.9975 40.9271H56.4147C57.761 40.9271 59.0503 41.4703 59.9908 42.4337L65.0817 47.6488C65.5633 48.1422 66.4007 47.8012 66.4007 47.1118V17.4774C66.4007 14.7174 64.1633 12.4799 61.4032 12.4799H26.9975C24.2374 12.4799 22 14.7174 22 17.4774V35.9297Z" fill="#E6E8EB"/>
<path id="Union" fill-rule="evenodd" clip-rule="evenodd" d="M45.0001 22.7143C45.0001 22.3198 44.6803 22 44.2858 22H43.7144C43.3199 22 43.0001 22.3198 43.0001 22.7143V25.2857C43.0001 25.6802 42.6803 26 42.2858 26H39.7143C39.3198 26 39 26.3198 39 26.7143V27.2857C39 27.6802 39.3198 28 39.7143 28H42.2858C42.6803 28 43.0001 28.3198 43.0001 28.7143V31.2857C43.0001 31.6802 43.3199 32 43.7144 32H44.2858C44.6803 32 45.0001 31.6802 45.0001 31.2857V28.7143C45.0001 28.3198 45.3199 28 45.7144 28H48.2857C48.6802 28 49 27.6802 49 27.2857V26.7143C49 26.3198 48.6802 26 48.2857 26H45.7144C45.3199 26 45.0001 25.6802 45.0001 25.2857V22.7143Z" fill="white"/>
</g>
</svg>
