<svg width="442" height="443" viewBox="0 0 442 443" fill="none" xmlns="http://www.w3.org/2000/svg">
<rect x="64" width="378" height="281" rx="28" fill="#B770FF"/>
<path opacity="0.5" d="M181.816 67.1365C182.434 65.9771 184.096 65.9771 184.714 67.1365L186.977 71.3817C187.424 72.2205 188.488 72.5055 189.295 72.0027L193.377 69.4579C194.492 68.7629 195.932 69.5938 195.887 70.907L195.725 75.7151C195.693 76.6651 196.471 77.4438 197.421 77.4117L202.229 77.2492C203.543 77.2048 204.374 78.644 203.678 79.7591L201.134 83.8417C200.631 84.6484 200.916 85.7122 201.755 86.1594L206 88.4227C207.159 89.0409 207.159 90.7027 206 91.3209L201.755 93.5842C200.916 94.0314 200.631 95.0952 201.134 95.9019L203.678 99.9845C204.374 101.1 203.543 102.539 202.229 102.494L197.421 102.332C196.471 102.3 195.693 103.079 195.725 104.029L195.887 108.837C195.932 110.15 194.492 110.981 193.377 110.286L189.295 107.741C188.488 107.238 187.424 107.523 186.977 108.362L184.714 112.607C184.096 113.767 182.434 113.767 181.816 112.607L179.552 108.362C179.105 107.523 178.041 107.238 177.235 107.741L173.152 110.286C172.037 110.981 170.598 110.15 170.642 108.837L170.805 104.029C170.837 103.079 170.058 102.3 169.108 102.332L164.3 102.494C162.987 102.539 162.156 101.1 162.851 99.9845L165.396 95.9019C165.898 95.0952 165.613 94.0314 164.774 93.5842L160.529 91.3209C159.37 90.7027 159.37 89.0409 160.529 88.4227L164.774 86.1594C165.613 85.7122 165.898 84.6484 165.396 83.8417L162.851 79.7591C162.156 78.644 162.987 77.2048 164.3 77.2492L169.108 77.4117C170.058 77.4438 170.837 76.6651 170.805 75.7151L170.642 70.907C170.598 69.5938 172.037 68.7629 173.152 69.4579L177.235 72.0027C178.041 72.5055 179.105 72.2205 179.552 71.3817L181.816 67.1365Z" fill="white"/>
<g filter="url(#filter0_b_1232_3788)">
<rect x="196.845" y="49.6396" width="141.481" height="53.3697" rx="26.6848" transform="rotate(16.9561 196.845 49.6396)" fill="#FFA556"/>
</g>
<rect x="134" y="150.752" width="117.73" height="49.3429" rx="9.85286" transform="rotate(-9.69531 134 150.752)" fill="white"/>
<path d="M239.347 83.6209C239.633 83.7081 239.837 83.8222 239.957 83.9631C240.096 84.0946 240.14 84.2421 240.09 84.4054C240.069 84.4735 240.022 84.5557 239.948 84.6522C239.87 84.7623 239.78 84.8389 239.677 84.882C239.592 84.9157 239.461 84.9574 239.282 85.007C239.027 85.0631 238.808 85.1452 238.626 85.2535C238.458 85.3659 238.279 85.5641 238.088 85.8481L232.919 93.8687C232.811 94.0291 232.732 94.1909 232.682 94.3543C232.636 94.504 232.617 94.6396 232.625 94.7609C232.65 94.8728 232.683 95.0093 232.723 95.1704C232.757 95.255 232.782 95.3444 232.797 95.4386C232.818 95.5191 232.815 95.6002 232.79 95.6819C232.782 95.7091 232.748 95.773 232.687 95.8736C232.579 96.034 232.41 96.1238 232.181 96.1432C231.965 96.1668 231.674 96.1225 231.306 96.0104L226.508 94.547C226.222 94.4599 226.012 94.3437 225.877 94.1986C225.757 94.0576 225.721 93.9055 225.771 93.7421C225.796 93.6605 225.843 93.5782 225.913 93.4954C225.983 93.4125 226.063 93.3475 226.151 93.3001C226.258 93.2434 226.343 93.2097 226.405 93.1991C226.486 93.179 226.544 93.1595 226.58 93.1406C226.835 93.0845 227.053 93.0023 227.235 92.8941C227.417 92.7858 227.603 92.5897 227.794 92.3057L231.027 87.2657L223.739 92.2075C223.142 92.6055 222.676 92.8651 222.341 92.9863C222.025 93.098 221.696 93.102 221.356 92.9982C221.029 92.8985 220.802 92.7176 220.673 92.4553C220.563 92.1835 220.509 91.7729 220.513 91.2236L220.518 84.3286L217.394 89.1564C217.286 89.3168 217.207 89.4786 217.157 89.642C217.107 89.8054 217.086 89.9477 217.093 90.0691C217.115 90.1946 217.154 90.3331 217.212 90.4847C217.281 90.699 217.298 90.8607 217.265 90.9696C217.257 90.9968 217.223 91.0607 217.162 91.1613C217.05 91.3353 216.885 91.434 216.67 91.4576C216.459 91.4675 216.162 91.4144 215.781 91.2981L214.086 90.7813C213.801 90.6941 213.59 90.578 213.456 90.4328C213.336 90.2919 213.3 90.1397 213.35 89.9764C213.375 89.8947 213.422 89.8124 213.492 89.7296C213.592 89.5965 213.716 89.5077 213.863 89.4634C214.011 89.4191 214.1 89.3943 214.132 89.389C214.391 89.3193 214.609 89.2371 214.787 89.1425C214.969 89.0343 215.157 88.8314 215.352 88.5337L220.534 80.4722L220.537 79.2904C220.531 79.0654 220.557 78.8577 220.615 78.6671C220.69 78.422 220.819 78.2679 221.002 78.2047C221.198 78.1456 221.46 78.1659 221.787 78.2655L224.952 79.2307C225.36 79.3553 225.633 79.5351 225.769 79.7702C225.92 80.0094 225.989 80.3655 225.979 80.8385L225.954 88.2405L233.586 83.0467C234.073 82.719 234.507 82.539 234.889 82.5067C235.275 82.4607 235.747 82.5229 236.305 82.6931L239.347 83.6209ZM250.75 87.0984C251.676 87.3807 252.436 87.7686 253.029 88.262C253.64 88.746 254.048 89.287 254.253 89.885C254.475 90.4736 254.49 91.0809 254.299 91.7071C254.192 92.0611 254.044 92.3733 253.858 92.6437C253.044 93.8982 251.641 94.4228 249.651 94.2174C250.246 94.6073 250.666 95.0849 250.91 95.6504C251.158 96.2023 251.183 96.8049 250.983 97.4583C250.892 97.7578 250.73 98.0951 250.496 98.4703C249.873 99.4408 249.026 100.046 247.956 100.285C246.904 100.514 245.548 100.376 243.887 99.8695L235.393 97.279C235.107 97.1918 234.904 97.0777 234.783 96.9368C234.649 96.7917 234.606 96.6374 234.656 96.4741C234.681 96.3924 234.728 96.3101 234.798 96.2273C234.898 96.0942 235.022 96.0054 235.17 95.9611C235.317 95.9168 235.406 95.892 235.438 95.8867C235.697 95.817 235.916 95.7348 236.093 95.6402C236.275 95.532 236.463 95.3291 236.658 95.0314L241.834 86.9904C241.942 86.83 242.021 86.6681 242.071 86.5048C242.117 86.355 242.127 86.2242 242.101 86.1123C242.094 85.991 242.07 85.8498 242.03 85.6887C241.961 85.4744 241.943 85.3128 241.977 85.2039C241.989 85.163 242.025 85.0923 242.086 84.9917C242.194 84.8314 242.347 84.7441 242.545 84.73C242.761 84.7065 243.059 84.7528 243.44 84.8691L250.75 87.0984ZM248.692 90.5549C248.878 90.2845 249.011 90.02 249.09 89.7613C249.306 89.0535 249.012 88.5771 248.209 88.3321L247.29 88.0519L245.044 91.5403L245.942 91.8143C246.514 91.9886 247.004 91.9895 247.414 91.8169C247.842 91.6348 248.268 91.2142 248.692 90.5549ZM245.37 96.1037C245.565 95.806 245.704 95.5211 245.787 95.2488C246.012 94.5137 245.702 94.0175 244.858 93.7601L243.837 93.4487L241.446 97.1164L242.487 97.434C243.073 97.6125 243.586 97.6128 244.027 97.4348C244.472 97.2433 244.92 96.7996 245.37 96.1037ZM270.863 93.2321C271.612 93.4605 271.893 93.8809 271.706 94.4935C271.648 94.6841 271.534 94.9098 271.365 95.1708L270.371 96.6753C270.067 97.1333 269.776 97.4312 269.496 97.569C269.216 97.7068 268.871 97.7134 268.463 97.5888C268.123 97.4851 267.884 97.3156 267.748 97.0805C267.625 96.8496 267.54 96.5186 267.492 96.0876L267.401 95.1446C267.371 94.8527 267.309 94.6405 267.215 94.5078C267.122 94.3752 266.946 94.2694 266.687 94.1905L266.218 94.0473L260.841 102.384C260.746 102.548 260.678 102.699 260.636 102.835C260.586 102.998 260.565 103.141 260.573 103.262C260.594 103.387 260.634 103.526 260.692 103.678C260.756 103.906 260.77 104.081 260.732 104.203C260.724 104.23 260.69 104.294 260.629 104.395C260.507 104.551 260.332 104.639 260.102 104.658C259.887 104.682 259.595 104.638 259.228 104.526L254.429 103.062C254.143 102.975 253.933 102.859 253.799 102.714C253.678 102.573 253.645 102.414 253.699 102.237C253.724 102.155 253.769 102.08 253.835 102.011C253.927 101.905 254.015 101.835 254.1 101.801C254.202 101.758 254.343 101.712 254.522 101.662C254.763 101.602 254.975 101.517 255.157 101.409C255.338 101.301 255.525 101.105 255.715 100.821L261.072 92.478L260.602 92.3348C260.303 92.2435 260.043 92.2164 259.824 92.2536C259.604 92.2907 259.346 92.4054 259.049 92.5976L258.12 93.2293C257.695 93.5014 257.303 93.6871 256.946 93.7863C256.606 93.8761 256.266 93.8691 255.925 93.7653C255.612 93.6698 255.392 93.5134 255.265 93.2961C255.138 93.0788 255.118 92.8272 255.205 92.5413C255.247 92.4052 255.313 92.2617 255.403 92.1108L256.501 90.4145C256.726 90.0665 256.936 89.818 257.13 89.669C257.328 89.5063 257.563 89.4215 257.833 89.4145C258.12 89.3981 258.496 89.4605 258.958 89.6016L270.863 93.2321ZM279.067 95.7342C279.353 95.8213 279.556 95.9354 279.677 96.0764C279.815 96.2079 279.86 96.3553 279.81 96.5187C279.789 96.5867 279.742 96.669 279.668 96.7654C279.598 96.8483 279.51 96.9181 279.403 96.9748C279.314 97.0221 279.23 97.0558 279.149 97.0759C279.086 97.0865 279.037 97.1013 279.002 97.1202C278.746 97.1763 278.528 97.2585 278.346 97.3667C278.164 97.4749 277.978 97.6711 277.787 97.9551L272.633 106.002C272.524 106.163 272.445 106.325 272.395 106.488C272.345 106.651 272.324 106.794 272.332 106.915C272.353 107.041 272.393 107.179 272.451 107.331C272.519 107.545 272.537 107.707 272.504 107.815C272.495 107.843 272.461 107.907 272.401 108.007C272.288 108.181 272.124 108.28 271.909 108.304C271.697 108.313 271.401 108.26 271.02 108.144L266.221 106.681C265.935 106.594 265.732 106.479 265.611 106.338C265.477 106.193 265.435 106.039 265.485 105.876C265.51 105.794 265.557 105.712 265.627 105.629C265.727 105.496 265.851 105.407 265.998 105.363C266.146 105.319 266.235 105.294 266.266 105.288C266.526 105.219 266.744 105.137 266.922 105.042C267.104 104.934 267.292 104.731 267.487 104.433L272.662 96.3921C272.77 96.2317 272.85 96.0698 272.899 95.9065C272.945 95.7567 272.955 95.6259 272.93 95.514C272.922 95.3927 272.898 95.2515 272.858 95.0904C272.79 94.8761 272.772 94.7145 272.805 94.6056C272.818 94.5647 272.854 94.494 272.914 94.3934C273.023 94.2331 273.176 94.1458 273.374 94.1317C273.589 94.1082 273.887 94.1545 274.269 94.2708L279.067 95.7342Z" fill="white"/>
<path d="M188.433 170.517C188.406 170.724 188.409 170.926 188.443 171.123C188.471 171.289 188.519 171.429 188.585 171.543C188.648 171.641 188.709 171.724 188.768 171.792C188.839 171.842 188.884 171.881 188.905 171.909C189.082 172.034 189.184 172.173 189.209 172.324C189.215 172.355 189.212 172.433 189.203 172.559C189.178 172.782 189.068 172.956 188.872 173.083C188.688 173.193 188.384 173.284 187.96 173.356L182.577 174.276C182.259 174.331 182 174.32 181.8 174.245C181.615 174.168 181.507 174.038 181.476 173.857C181.461 173.766 181.467 173.663 181.494 173.55C181.519 173.421 181.564 173.319 181.629 173.246C181.707 173.155 181.814 173.051 181.95 172.934C182.169 172.756 182.34 172.571 182.463 172.379C182.586 172.186 182.668 171.892 182.709 171.495L182.966 169.441L179.423 170.047L179.031 171.446C178.869 172.05 178.815 172.511 178.87 172.829C178.901 173.011 178.957 173.157 179.038 173.268C179.117 173.364 179.227 173.462 179.369 173.562C179.496 173.665 179.582 173.76 179.628 173.845C179.686 173.913 179.712 174.018 179.705 174.159C179.683 174.397 179.582 174.578 179.4 174.702C179.231 174.809 178.943 174.897 178.534 174.967L175.15 175.546C174.801 175.605 174.526 175.59 174.324 175.5C174.119 175.395 173.998 175.236 173.962 175.024C173.92 174.782 173.979 174.577 174.137 174.41C174.278 174.23 174.508 174.027 174.828 173.801C175.243 173.496 175.569 173.214 175.806 172.956C176.039 172.682 176.221 172.331 176.35 171.904L178.961 162.832C179.359 161.424 179.925 160.361 180.66 159.643C181.407 158.907 182.469 158.422 183.847 158.186C185.392 157.922 186.642 158.036 187.599 158.527C188.553 159.003 189.126 159.801 189.317 160.921C189.398 161.391 189.405 161.888 189.339 162.414L188.433 170.517ZM183.259 167.053L183.779 162.85C183.809 162.658 183.807 162.463 183.773 162.266C183.724 161.979 183.605 161.781 183.415 161.673C183.237 161.548 183.005 161.509 182.717 161.559C182.354 161.621 182.061 161.78 181.84 162.036C181.619 162.292 181.426 162.714 181.262 163.303L180.079 167.597L183.259 167.053ZM201.95 154.788C202.435 154.705 202.922 154.731 203.413 154.865C203.916 154.982 204.342 155.197 204.692 155.511C205.054 155.808 205.27 156.161 205.34 156.57C205.493 157.463 204.964 158.013 203.752 158.22C203.404 158.28 203.128 158.304 202.923 158.292C202.731 158.262 202.496 158.209 202.218 158.132C202.19 158.246 202.194 158.401 202.227 158.598C202.269 158.84 202.356 159.121 202.488 159.441C202.636 159.759 202.795 160.051 202.966 160.318C203.364 160.733 203.619 161.266 203.73 161.918C203.779 162.205 203.801 162.56 203.795 162.982C203.748 163.8 203.469 164.588 202.96 165.345C202.465 166.1 201.766 166.749 200.862 167.294C199.97 167.82 198.949 168.182 197.798 168.378C196.92 168.528 196.084 168.609 195.291 168.62C195.097 168.855 195.025 169.117 195.074 169.405C195.108 169.602 195.227 169.753 195.432 169.858C195.635 169.948 195.948 169.957 196.372 169.884L199.779 169.302C200.945 169.103 201.888 169.152 202.609 169.449C203.328 169.732 203.75 170.244 203.877 170.986C203.924 171.258 203.926 171.546 203.885 171.85C203.804 172.471 203.481 173.087 202.915 173.698C202.367 174.322 201.537 174.892 200.426 175.41C199.314 175.927 197.925 176.328 196.26 176.613C194.776 176.866 193.497 176.952 192.423 176.871C191.35 176.79 190.524 176.565 189.947 176.196C189.357 175.845 189.015 175.396 188.922 174.851C188.902 174.73 188.901 174.543 188.92 174.291C188.981 173.828 189.231 173.419 189.669 173.064C190.089 172.696 190.836 172.373 191.911 172.096C191.488 171.81 191.235 171.425 191.152 170.94C191.124 170.774 191.117 170.596 191.131 170.406C191.239 169.577 191.851 168.873 192.967 168.292C191.726 167.866 191.003 167.054 190.798 165.858C190.741 165.525 190.727 165.169 190.756 164.79C190.803 163.971 191.082 163.191 191.595 162.449C192.104 161.692 192.811 161.041 193.715 160.497C194.62 159.953 195.647 159.582 196.798 159.385C198.6 159.077 200.056 159.07 201.166 159.364C200.879 159.054 200.634 158.714 200.431 158.344C200.24 157.956 200.116 157.595 200.059 157.262C199.96 156.687 200.058 156.163 200.351 155.692C200.66 155.219 201.193 154.917 201.95 154.788ZM198.4 163.694C198.51 162.88 198.53 162.269 198.46 161.86C198.372 161.345 198.109 161.125 197.669 161.2C197.291 161.265 196.99 161.511 196.767 161.939C196.557 162.349 196.389 163.055 196.265 164.059C196.157 164.887 196.138 165.506 196.208 165.915C196.293 166.415 196.548 166.628 196.972 166.556C197.35 166.491 197.651 166.245 197.874 165.817C198.097 165.389 198.272 164.682 198.4 163.694ZM195.242 172.439C194.818 172.511 194.428 172.554 194.072 172.568C193.93 172.827 193.89 173.145 193.955 173.524C194.035 173.899 194.233 174.146 194.549 174.264C194.88 174.378 195.357 174.383 195.977 174.277C196.734 174.147 197.328 173.929 197.759 173.621C198.205 173.311 198.391 172.944 198.319 172.52C198.288 172.339 198.195 172.207 198.041 172.124C197.886 172.041 197.68 172.022 197.423 172.066L195.242 172.439ZM210.917 156.949C212.84 156.62 214.286 156.692 215.255 157.166C216.222 157.624 216.786 158.33 216.95 159.284C216.999 159.572 217.014 159.842 216.995 160.094C216.938 161.133 216.425 161.96 215.456 162.578C214.498 163.178 213.316 163.599 211.907 163.839C211.196 163.961 210.522 164.029 209.885 164.045C210.005 164.835 210.311 165.351 210.805 165.594C211.298 165.837 211.939 165.891 212.726 165.756C213.089 165.694 213.431 165.597 213.751 165.464C214.069 165.317 214.471 165.115 214.957 164.861C215.355 164.637 215.63 164.512 215.782 164.486C215.948 164.458 216.048 164.542 216.082 164.739C216.188 165.266 216.087 165.86 215.779 166.52C215.468 167.166 214.947 167.761 214.214 168.307C213.481 168.853 212.547 169.223 211.412 169.418C209.731 169.705 208.28 169.516 207.06 168.852C205.84 168.188 205.092 167.046 204.815 165.426C204.737 164.971 204.707 164.431 204.725 163.805C204.785 161.877 205.371 160.336 206.482 159.18C207.606 158.006 209.084 157.262 210.917 156.949ZM209.811 162.655C209.875 162.659 209.959 162.653 210.065 162.635C210.701 162.526 211.135 162.148 211.367 161.5C211.6 160.853 211.646 160.167 211.507 159.443C211.419 159.021 211.262 158.83 211.034 158.869C210.868 158.897 210.694 159.067 210.514 159.379C210.331 159.675 210.171 160.107 210.034 160.676C209.913 161.242 209.839 161.902 209.811 162.655Z" fill="#C388FF"/>
<path d="M290.302 100.278C287.869 99.5361 285.222 100.786 284.476 103.23C283.962 104.917 284.292 106.569 284.945 108.054C285.596 109.533 286.597 110.914 287.522 112.096L289.117 114.135C289.292 114.358 289.583 114.447 289.853 114.36L292.315 113.558C293.742 113.093 295.343 112.506 296.708 111.641C298.079 110.774 299.275 109.587 299.789 107.9C300.535 105.456 299.036 102.942 296.602 102.199C295.348 101.817 294.059 102.089 293.027 102.634C292.475 101.606 291.557 100.661 290.302 100.278Z" fill="white"/>
<g filter="url(#filter1_b_1232_3788)">
<rect x="207.075" y="205.141" width="132.905" height="58.3973" rx="9.85286" transform="rotate(-49.1214 207.075 205.141)" fill="#202530" fill-opacity="0.8"/>
</g>
<path d="M253.082 207.027C252.408 207.805 251.627 208.368 250.737 208.715C249.846 209.041 248.908 209.103 247.924 208.902C246.929 208.69 245.967 208.182 245.038 207.378C244.329 206.765 243.645 205.959 242.985 204.961C241.589 202.818 241 200.846 241.219 199.044C241.448 197.231 242.125 195.674 243.251 194.373C244.277 193.188 245.631 192.491 247.315 192.283L247.263 191.323C247.27 190.822 247.318 190.426 247.406 190.137C247.494 189.847 247.658 189.563 247.9 189.284C248.161 188.982 248.448 188.804 248.76 188.748C249.06 188.683 249.332 188.756 249.576 188.967C249.669 189.048 249.764 189.161 249.862 189.306L251.514 191.834C251.785 192.271 251.926 192.637 251.936 192.93C251.956 193.212 251.851 193.486 251.62 193.754C251.378 194.032 251.092 194.222 250.762 194.322C250.442 194.41 249.981 194.438 249.379 194.405C248.57 194.354 247.941 194.389 247.492 194.508C247.042 194.606 246.671 194.823 246.379 195.16C245.927 195.683 245.761 196.414 245.884 197.352C246.004 198.269 246.529 199.435 247.459 200.849C248.069 201.763 248.665 202.472 249.245 202.975C249.861 203.507 250.432 203.799 250.958 203.848C251.483 203.875 251.931 203.674 252.303 203.244C252.625 202.873 252.784 202.513 252.781 202.165C252.788 201.805 252.626 201.381 252.297 200.893L251.967 200.394C251.785 200.134 251.653 199.97 251.572 199.899C251.433 199.779 251.304 199.728 251.186 199.747C251.077 199.755 250.923 199.804 250.722 199.895L249.968 200.309C249.632 200.486 249.325 200.453 249.046 200.212C248.965 200.142 248.906 200.08 248.87 200.029C248.759 199.851 248.719 199.675 248.75 199.498C248.791 199.31 248.922 199.088 249.143 198.833L253.715 193.586C254.047 193.203 254.334 193.117 254.578 193.328C254.625 193.368 254.684 193.44 254.757 193.544C254.891 193.741 254.965 193.937 254.979 194.132C254.993 194.327 254.967 194.569 254.901 194.857L254.77 195.536C254.739 195.712 254.734 195.86 254.753 195.978C254.761 196.087 254.801 196.193 254.874 196.296L257.298 200.01C257.58 200.458 257.72 200.812 257.717 201.074C257.724 201.324 257.638 201.553 257.457 201.762L256.823 202.494C256.582 202.773 256.323 202.955 256.046 203.04C255.779 203.114 255.427 203.063 254.989 202.888L254.333 202.624C254.585 204.305 254.168 205.773 253.082 207.027ZM255.736 184.949C257.013 183.474 258.176 182.611 259.226 182.361C260.263 182.102 261.148 182.288 261.88 182.922C262.1 183.113 262.283 183.312 262.429 183.519C263.045 184.357 263.174 185.322 262.817 186.415C262.459 187.487 261.812 188.562 260.877 189.643C260.405 190.188 259.927 190.669 259.446 191.085C260.039 191.62 260.604 191.824 261.14 191.698C261.675 191.573 262.204 191.208 262.727 190.604C262.968 190.325 263.171 190.033 263.334 189.727C263.485 189.411 263.668 189.001 263.882 188.495C264.047 188.069 264.18 187.798 264.281 187.682C264.391 187.554 264.522 187.556 264.673 187.687C265.09 188.027 265.389 188.55 265.57 189.256C265.74 189.951 265.716 190.743 265.496 191.63C265.277 192.517 264.79 193.396 264.036 194.267C262.92 195.556 261.68 196.331 260.316 196.593C258.952 196.855 257.648 196.448 256.405 195.372C256.057 195.07 255.691 194.672 255.307 194.177C254.129 192.65 253.603 191.087 253.727 189.488C253.85 187.867 254.52 186.354 255.736 184.949ZM258.506 190.058C258.558 190.022 258.619 189.963 258.689 189.882C259.111 189.394 259.207 188.826 258.975 188.179C258.743 187.531 258.343 186.972 257.776 186.501C257.441 186.231 257.197 186.183 257.047 186.357C256.936 186.485 256.91 186.727 256.968 187.082C257.015 187.427 257.166 187.862 257.422 188.389C257.687 188.903 258.049 189.46 258.506 190.058ZM275.297 176.294C275.323 176.357 275.383 176.429 275.476 176.51C275.557 176.58 275.636 176.618 275.713 176.623C275.799 176.617 275.873 176.579 275.933 176.509C276.054 176.37 276.096 176.204 276.061 176.01C276.023 175.795 276.02 175.67 276.05 175.635C276.1 175.577 276.181 175.566 276.293 175.601C276.392 175.627 276.495 175.685 276.599 175.775C276.946 176.055 277.182 176.452 277.306 176.966C277.418 177.47 277.383 178.038 277.2 178.672C277.015 179.285 276.652 179.904 276.109 180.532C275.445 181.298 274.743 181.757 274.002 181.908C273.25 182.05 272.573 181.87 271.971 181.369C271.541 180.997 271.149 180.475 270.796 179.803L269.117 176.674C269.016 176.485 268.919 176.35 268.826 176.27C268.675 176.139 268.514 176.091 268.342 176.125C268.169 176.137 268.022 176.213 267.901 176.353C267.68 176.608 267.591 176.958 267.634 177.401C267.665 177.835 267.809 178.254 268.067 178.66L270.686 182.817C270.774 182.974 270.876 183.103 270.992 183.204C271.131 183.324 271.273 183.396 271.416 183.418C271.547 183.43 271.705 183.424 271.888 183.4C272.028 183.379 272.142 183.377 272.231 183.392C272.319 183.407 272.394 183.462 272.455 183.556C272.566 183.733 272.58 183.939 272.499 184.173C272.418 184.408 272.217 184.711 271.895 185.082L268.457 189.055C268.195 189.357 267.963 189.531 267.759 189.579C267.534 189.628 267.355 189.564 267.223 189.389C267.124 189.221 267.107 188.994 267.174 188.706C267.232 188.451 267.247 188.211 267.22 187.984C267.192 187.757 267.075 187.482 266.866 187.16L263.173 181.251C263.136 181.177 263.064 181.095 262.96 181.005C262.832 180.894 262.708 180.838 262.588 180.836C262.478 180.822 262.321 180.828 262.116 180.853C261.922 180.889 261.771 180.9 261.661 180.886C261.551 180.872 261.453 180.798 261.367 180.662C261.16 180.361 261.244 179.794 261.62 178.962C261.984 178.119 262.478 177.337 263.101 176.617C263.604 176.036 264.163 175.718 264.78 175.663C265.385 175.597 265.957 175.828 266.496 176.356C266.223 175.287 266.19 174.374 266.397 173.619C266.593 172.853 266.962 172.157 267.505 171.53C268.118 170.821 268.825 170.438 269.627 170.38C270.439 170.311 271.188 170.573 271.873 171.166C272.233 171.478 272.537 171.842 272.785 172.26L275.297 176.294ZM285.083 164.778C285.156 164.881 285.209 164.948 285.244 164.978C285.326 165.049 285.409 165.081 285.496 165.074C285.583 165.068 285.656 165.03 285.717 164.961C285.837 164.821 285.88 164.655 285.844 164.461C285.807 164.246 285.803 164.121 285.833 164.086C285.884 164.028 285.965 164.017 286.076 164.053C286.187 164.088 286.295 164.151 286.4 164.242C286.724 164.501 286.937 164.9 287.042 165.437C287.156 165.962 287.136 166.525 286.983 167.124C286.83 167.723 286.543 168.266 286.121 168.754C285.618 169.335 285.07 169.744 284.478 169.983C283.885 170.222 283.338 170.267 282.837 170.118C282.972 170.783 282.963 171.405 282.808 171.982C282.654 172.56 282.381 173.075 281.988 173.528C281.526 174.062 280.96 174.446 280.291 174.679C279.632 174.901 278.937 174.94 278.208 174.796C277.478 174.631 276.799 174.277 276.171 173.734C275.115 172.819 274.292 171.762 273.705 170.563C273.116 169.342 272.849 168.125 272.903 166.913C272.946 165.69 273.364 164.62 274.158 163.702C274.591 163.203 275.016 162.829 275.433 162.581C275.861 162.322 276.317 162.147 276.801 162.058L275.362 159.777C275.288 159.651 275.216 159.558 275.146 159.498C275.018 159.387 274.884 159.332 274.742 159.331C274.61 159.319 274.459 159.33 274.287 159.364C274.093 159.4 273.937 159.416 273.817 159.414C273.707 159.4 273.609 159.326 273.523 159.19C273.316 158.889 273.401 158.322 273.776 157.489C274.152 156.656 274.651 155.88 275.275 155.16C275.858 154.486 276.413 154.103 276.94 154.011C277.477 153.907 277.966 154.046 278.407 154.428C278.663 154.649 278.877 154.906 279.051 155.198L285.083 164.778ZM277.669 163.449C277.345 163.494 277.088 163.627 276.897 163.848C276.605 164.185 276.568 164.732 276.786 165.489C277.004 166.247 277.382 167.031 277.92 167.842C278.457 168.653 279.016 169.298 279.595 169.78C280.234 170.332 280.734 170.4 281.096 169.982C281.227 169.831 281.279 169.653 281.253 169.448C281.216 169.233 281.098 168.958 280.9 168.624L277.669 163.449ZM285.154 150.964C286.431 149.489 287.594 148.627 288.643 148.377C289.681 148.117 290.566 148.304 291.297 148.937C291.518 149.128 291.701 149.327 291.847 149.535C292.462 150.372 292.592 151.338 292.235 152.431C291.877 153.502 291.23 154.578 290.295 155.658C289.822 156.204 289.345 156.685 288.863 157.101C289.457 157.635 290.022 157.839 290.557 157.714C291.093 157.588 291.622 157.223 292.145 156.619C292.386 156.34 292.588 156.048 292.751 155.742C292.903 155.427 293.086 155.016 293.3 154.51C293.465 154.085 293.598 153.814 293.698 153.698C293.809 153.57 293.94 153.571 294.091 153.702C294.507 154.042 294.806 154.565 294.988 155.271C295.158 155.967 295.133 156.758 294.914 157.645C294.695 158.532 294.208 159.411 293.454 160.282C292.338 161.571 291.098 162.347 289.734 162.608C288.369 162.87 287.066 162.463 285.823 161.387C285.475 161.086 285.108 160.687 284.724 160.192C283.547 158.665 283.021 157.102 283.145 155.503C283.268 153.883 283.937 152.37 285.154 150.964ZM287.923 156.074C287.975 156.037 288.036 155.979 288.107 155.897C288.529 155.409 288.624 154.842 288.392 154.194C288.161 153.546 287.761 152.987 287.193 152.516C286.858 152.246 286.615 152.198 286.464 152.373C286.354 152.5 286.328 152.742 286.386 153.097C286.432 153.442 286.584 153.878 286.839 154.404C287.105 154.918 287.466 155.475 287.923 156.074ZM295.972 138.643C296.535 137.992 297.18 137.646 297.907 137.605C298.643 137.552 299.302 137.776 299.883 138.279C300.104 138.47 300.287 138.669 300.432 138.877C300.808 139.405 300.983 139.942 300.957 140.489C300.931 141.035 300.722 141.535 300.33 141.988C299.948 142.429 299.552 142.676 299.141 142.727C298.741 142.767 298.292 142.723 297.792 142.595C297.515 142.517 297.294 142.479 297.131 142.48C296.967 142.481 296.841 142.533 296.75 142.638C296.65 142.754 296.605 142.899 296.618 143.072C296.641 143.234 296.738 143.45 296.91 143.721L300.104 148.833C300.142 148.906 300.219 148.993 300.335 149.094C300.486 149.224 300.649 149.294 300.824 149.303C300.997 149.291 301.196 149.249 301.42 149.179C301.633 149.12 301.789 149.092 301.887 149.096C301.986 149.1 302.076 149.148 302.159 149.24C302.29 149.394 302.325 149.576 302.264 149.788C302.213 149.987 302.037 150.262 301.735 150.61L297.874 155.07C297.613 155.372 297.38 155.547 297.177 155.594C296.952 155.643 296.773 155.58 296.64 155.404C296.541 155.237 296.525 155.009 296.591 154.721C296.649 154.467 296.665 154.226 296.637 153.999C296.61 153.773 296.492 153.498 296.284 153.175L292.591 147.266C292.553 147.193 292.482 147.111 292.377 147.02C292.25 146.91 292.126 146.853 292.006 146.851C291.896 146.837 291.738 146.843 291.533 146.869C291.34 146.905 291.188 146.915 291.078 146.902C290.968 146.888 290.87 146.813 290.784 146.678C290.578 146.377 290.662 145.81 291.038 144.977C291.402 144.134 291.895 143.352 292.519 142.632C292.931 142.156 293.383 141.857 293.875 141.734C294.356 141.601 294.834 141.66 295.309 141.908C294.967 140.637 295.188 139.549 295.972 138.643Z" fill="#C388FF"/>
<rect y="295" width="146" height="148" rx="20" fill="#44D797"/>
<path d="M66.5246 311.519C68.0072 308.738 71.9928 308.738 73.4754 311.519L79.4304 322.688C80.5029 324.7 83.0543 325.383 84.9891 324.177L95.7309 317.482C98.4053 315.815 101.857 317.808 101.75 320.957L101.323 333.608C101.246 335.886 103.114 337.754 105.392 337.677L118.043 337.25C121.192 337.143 123.185 340.595 121.518 343.269L114.823 354.011C113.617 355.946 114.3 358.497 116.312 359.57L127.481 365.525C130.262 367.007 130.262 370.993 127.481 372.475L116.312 378.43C114.3 379.503 113.617 382.054 114.823 383.989L121.518 394.731C123.185 397.405 121.192 400.857 118.043 400.75L105.392 400.323C103.114 400.246 101.246 402.114 101.323 404.392L101.75 417.043C101.857 420.192 98.4053 422.185 95.7309 420.518L84.9891 413.823C83.0543 412.617 80.5029 413.3 79.4304 415.312L73.4754 426.481C71.9928 429.262 68.0072 429.262 66.5246 426.481L60.5696 415.312C59.4971 413.3 56.9457 412.617 55.0109 413.823L44.2691 420.518C41.5947 422.185 38.1431 420.192 38.2495 417.043L38.6771 404.392C38.7541 402.114 36.8864 400.246 34.6078 400.323L21.9573 400.75C18.8078 400.857 16.815 397.405 18.4819 394.731L25.1775 383.989C26.3834 382.054 25.6998 379.503 23.688 378.43L12.5186 372.475C9.73782 370.993 9.73783 367.007 12.5186 365.525L23.688 359.57C25.6998 358.497 26.3834 355.946 25.1775 354.011L18.4819 343.269C16.815 340.595 18.8078 337.143 21.9573 337.25L34.6078 337.677C36.8864 337.754 38.7541 335.886 38.6771 333.608L38.2495 320.957C38.1431 317.808 41.5947 315.815 44.2691 317.482L55.0109 324.177C56.9457 325.383 59.4971 324.7 60.5696 322.688L66.5246 311.519Z" fill="white"/>
<path d="M67.9038 374.099C68.2465 374.502 68.4008 374.82 68.3665 375.055C68.2637 375.39 67.9724 375.676 67.4925 375.91C67.0127 376.112 66.4986 376.212 65.9502 376.212C64.3394 376.212 63.0199 375.827 61.9917 375.055C60.9978 374.25 60.5008 373.227 60.5008 371.986C60.5008 371.517 60.5694 371.08 60.7065 370.678C61.0149 369.605 61.5976 368.733 62.4544 368.062C63.3455 367.357 64.6479 366.519 66.3615 365.546C68.2123 364.54 69.6346 363.618 70.6285 362.779C71.6224 361.941 72.3079 360.85 72.6849 359.509C72.7877 359.039 72.8391 358.603 72.8391 358.201C72.8391 357.06 72.445 356.188 71.6567 355.585C70.8684 354.981 70.0287 354.679 69.1376 354.679C68.178 354.679 67.3383 354.813 66.6186 355.081C66.9956 356.054 67.1841 357.077 67.1841 358.15C67.1841 358.654 67.1327 359.106 67.0299 359.509C66.6528 360.783 65.9674 361.773 64.9735 362.477C63.9795 363.182 62.7114 363.534 61.1692 363.534C59.3184 363.534 57.8275 363.047 56.6965 362.075C55.5655 361.069 55 359.794 55 358.251C55 357.714 55.0685 357.195 55.2056 356.691C55.7197 354.545 57.2449 352.901 59.7811 351.761C62.3516 350.587 65.5904 350 69.4975 350C72.822 350 75.7352 350.52 78.2371 351.56C80.7391 352.599 82.6584 353.991 83.995 355.735C85.3317 357.446 86 359.291 86 361.27C86 361.873 85.9143 362.544 85.743 363.282C85.3317 364.926 84.6119 366.251 83.5837 367.257C82.5898 368.229 81.1161 369.051 79.1625 369.722C77.2432 370.359 74.5699 370.963 71.1426 371.533C69.8402 371.768 68.9491 371.986 68.4693 372.187C67.9895 372.389 67.681 372.657 67.5439 372.992L67.4925 373.194C67.4925 373.395 67.6296 373.697 67.9038 374.099ZM63.791 378.095C65.162 378.095 66.3101 378.481 67.2355 379.252C68.1609 379.99 68.6235 380.912 68.6235 382.019C68.6578 382.824 68.4179 383.612 67.9038 384.384C67.424 385.155 66.7385 385.793 65.8474 386.296C64.9563 386.765 63.9624 387 62.8657 387C61.4605 387 60.2952 386.614 59.3698 385.843C58.4787 385.038 58.0332 384.065 58.0332 382.925C58.0332 382.153 58.2731 381.399 58.7529 380.661C59.267 379.923 59.9525 379.319 60.8093 378.85C61.7004 378.346 62.6943 378.095 63.791 378.095Z" fill="#44D797"/>
<path d="M160 321C160 306.641 171.641 295 186 295H339.046C346.051 295 352.759 292.174 357.651 287.162L384.138 260.03C386.643 257.463 391 259.237 391 262.824V417C391 431.359 379.359 443 365 443H186C171.641 443 160 431.359 160 417V321Z" fill="white"/>
<path opacity="0.4" d="M190.082 391.181C187.877 403.312 179.766 413.073 168.908 413.073C179.766 413.073 187.877 423.367 190.082 435.498C192.286 423.367 200.94 413.073 211.256 413.073C200.94 413.073 192.286 403.312 190.082 391.181Z" fill="#D9E1EA"/>
<path opacity="0.4" d="M317.39 391.181C315.186 403.312 307.075 413.073 296.216 413.073C307.075 413.073 315.186 423.367 317.39 435.498C319.595 423.367 328.248 413.073 338.564 413.073C328.248 413.073 319.595 403.312 317.39 391.181Z" fill="#D9E1EA"/>
<path opacity="0.4" d="M232.518 391.181C230.313 403.312 222.203 413.073 211.344 413.073C222.203 413.073 230.313 423.367 232.518 435.498C234.723 423.367 243.376 413.073 253.692 413.073C243.376 413.073 234.723 403.312 232.518 391.181Z" fill="#D9E1EA"/>
<path opacity="0.4" d="M359.826 391.181C357.622 403.312 349.511 413.073 338.653 413.073C349.511 413.073 357.622 423.367 359.826 435.498C362.031 423.367 370.685 413.073 381 413.073C370.685 413.073 362.031 403.312 359.826 391.181Z" fill="#D9E1EA"/>
<path opacity="0.4" d="M274.954 391.181C272.749 403.312 264.639 413.073 253.78 413.073C264.639 413.073 272.749 423.367 274.954 435.498C277.159 423.367 285.812 413.073 296.128 413.073C285.812 413.073 277.159 403.312 274.954 391.181Z" fill="#D9E1EA"/>
<path opacity="0.4" d="M190.082 346.816C187.877 358.947 179.766 368.708 168.908 368.708C179.766 368.708 187.877 379.002 190.082 391.133C192.286 379.002 200.94 368.708 211.256 368.708C200.94 368.708 192.286 358.947 190.082 346.816Z" fill="#D9E1EA"/>
<path opacity="0.4" d="M317.39 346.816C315.186 358.947 307.075 368.708 296.216 368.708C307.075 368.708 315.186 379.002 317.39 391.133C319.595 379.002 328.248 368.708 338.564 368.708C328.248 368.708 319.595 358.947 317.39 346.816Z" fill="#D9E1EA"/>
<path opacity="0.4" d="M232.518 346.816C230.313 358.947 222.203 368.708 211.344 368.708C222.203 368.708 230.313 379.002 232.518 391.133C234.723 379.002 243.376 368.708 253.692 368.708C243.376 368.708 234.723 358.947 232.518 346.816Z" fill="#D9E1EA"/>
<path opacity="0.4" d="M359.826 346.816C357.622 358.947 349.511 368.708 338.653 368.708C349.511 368.708 357.622 379.002 359.826 391.133C362.031 379.002 370.685 368.708 381 368.708C370.685 368.708 362.031 358.947 359.826 346.816Z" fill="#D9E1EA"/>
<path opacity="0.4" d="M274.954 346.816C272.749 358.947 264.639 368.708 253.78 368.708C264.639 368.708 272.749 379.002 274.954 391.133C277.159 379.002 285.812 368.708 296.128 368.708C285.812 368.708 277.159 358.947 274.954 346.816Z" fill="#D9E1EA"/>
<path opacity="0.4" d="M190.082 302.451C187.877 314.582 179.767 324.343 168.908 324.343C179.767 324.343 187.877 334.637 190.082 346.768C192.286 334.637 200.94 324.343 211.256 324.343C200.94 324.343 192.286 314.582 190.082 302.451Z" fill="#D9E1EA"/>
<path opacity="0.4" d="M317.39 302.451C315.186 314.582 307.075 324.343 296.216 324.343C307.075 324.343 315.186 334.637 317.39 346.768C319.595 334.637 328.248 324.343 338.564 324.343C328.248 324.343 319.595 314.582 317.39 302.451Z" fill="#D9E1EA"/>
<path opacity="0.4" d="M232.518 302.451C230.313 314.582 222.203 324.343 211.344 324.343C222.203 324.343 230.313 334.637 232.518 346.768C234.723 334.637 243.376 324.343 253.692 324.343C243.376 324.343 234.723 314.582 232.518 302.451Z" fill="#D9E1EA"/>
<path opacity="0.4" d="M359.826 302.451C357.622 314.582 349.511 324.343 338.653 324.343C349.511 324.343 357.622 334.637 359.826 346.768C362.031 334.637 370.685 324.343 381 324.343C370.685 324.343 362.031 314.582 359.826 302.451Z" fill="#D9E1EA"/>
<path opacity="0.4" d="M274.954 302.451C272.749 314.582 264.639 324.343 253.78 324.343C264.639 324.343 272.749 334.637 274.954 346.768C277.159 334.637 285.812 324.343 296.128 324.343C285.812 324.343 277.159 314.582 274.954 302.451Z" fill="#D9E1EA"/>
<circle cx="337.984" cy="391.786" r="24.0239" transform="rotate(16.2492 337.984 391.786)" fill="#89D2FF"/>
<circle cx="329.089" cy="383.279" r="1.74719" transform="rotate(16.2492 329.089 383.279)" fill="#050708"/>
<circle cx="339.991" cy="386.457" r="1.74719" transform="rotate(16.2492 339.991 386.457)" fill="#050708"/>
<path d="M329.299 388.8L336.847 391L334.525 398.968C333.918 401.052 331.736 402.25 329.651 401.642C327.567 401.035 326.369 398.852 326.977 396.768L329.299 388.8Z" fill="#050708"/>
<circle cx="253.024" cy="347.024" r="24.0239" fill="white"/>
<rect x="246.675" y="356.633" width="6.11517" height="2.62079" rx="1.31039" transform="rotate(-7.66543 246.675 356.633)" fill="#050708"/>
<rect x="259.404" y="352.966" width="6.11517" height="2.62079" rx="1.31039" transform="rotate(-31.0961 259.404 352.966)" fill="#050708"/>
<rect x="255.257" y="359.213" width="6.11517" height="4.529" rx="2.2645" transform="rotate(-19.5368 255.257 359.213)" fill="#050708"/>
<defs>
<filter id="filter0_b_1232_3788" x="184.611" y="52.9706" width="144.233" height="85.6491" filterUnits="userSpaceOnUse" color-interpolation-filters="sRGB">
<feFlood flood-opacity="0" result="BackgroundImageFix"/>
<feGaussianBlur in="BackgroundImageFix" stdDeviation="1.64214"/>
<feComposite in2="SourceAlpha" operator="in" result="effect1_backgroundBlur_1232_3788"/>
<feBlend mode="normal" in="SourceGraphic" in2="effect1_backgroundBlur_1232_3788" result="shape"/>
</filter>
<filter id="filter1_b_1232_3788" x="206.12" y="103.696" width="133.045" height="140.618" filterUnits="userSpaceOnUse" color-interpolation-filters="sRGB">
<feFlood flood-opacity="0" result="BackgroundImageFix"/>
<feGaussianBlur in="BackgroundImageFix" stdDeviation="2.5"/>
<feComposite in2="SourceAlpha" operator="in" result="effect1_backgroundBlur_1232_3788"/>
<feBlend mode="normal" in="SourceGraphic" in2="effect1_backgroundBlur_1232_3788" result="shape"/>
</filter>
</defs>
</svg>
