<svg width="470" height="443" viewBox="0 0 470 443" fill="none" xmlns="http://www.w3.org/2000/svg">
<rect x="76" width="378" height="281" rx="28" fill="#B770FF"/>
<path opacity="0.5" d="M185.815 67.1365C186.434 65.9771 188.095 65.9771 188.714 67.1365L190.977 71.3817C191.424 72.2205 192.488 72.5055 193.295 72.0027L197.377 69.4579C198.492 68.7629 199.931 69.5938 199.887 70.907L199.725 75.7151C199.692 76.6651 200.471 77.4438 201.421 77.4117L206.229 77.2492C207.542 77.2048 208.373 78.644 207.678 79.7591L205.134 83.8417C204.631 84.6484 204.916 85.7122 205.755 86.1594L210 88.4227C211.159 89.0409 211.159 90.7027 210 91.3209L205.755 93.5842C204.916 94.0314 204.631 95.0952 205.134 95.9019L207.678 99.9845C208.373 101.1 207.542 102.539 206.229 102.494L201.421 102.332C200.471 102.3 199.692 103.079 199.725 104.029L199.887 108.837C199.931 110.15 198.492 110.981 197.377 110.286L193.295 107.741C192.488 107.238 191.424 107.523 190.977 108.362L188.714 112.607C188.095 113.767 186.434 113.767 185.815 112.607L183.552 108.362C183.105 107.523 182.041 107.238 181.234 107.741L177.152 110.286C176.037 110.981 174.598 110.15 174.642 108.837L174.804 104.029C174.837 103.079 174.058 102.3 173.108 102.332L168.3 102.494C166.987 102.539 166.156 101.1 166.851 99.9845L169.395 95.9019C169.898 95.0952 169.613 94.0314 168.774 93.5842L164.529 91.3209C163.37 90.7027 163.37 89.0409 164.529 88.4227L168.774 86.1594C169.613 85.7122 169.898 84.6484 169.395 83.8417L166.851 79.7591C166.156 78.644 166.987 77.2048 168.3 77.2492L173.108 77.4117C174.058 77.4438 174.837 76.6651 174.804 75.7151L174.642 70.907C174.598 69.5938 176.037 68.7629 177.152 69.4579L181.234 72.0027C182.041 72.5055 183.105 72.2205 183.552 71.3817L185.815 67.1365Z" fill="white"/>
<g filter="url(#filter0_b_1309_4686)">
<rect x="200.845" y="49.6396" width="141.481" height="53.3697" rx="26.6848" transform="rotate(16.9561 200.845 49.6396)" fill="#FFA556"/>
</g>
<rect x="138" y="150.752" width="117.73" height="49.3429" rx="9.85286" transform="rotate(-9.69531 138 150.752)" fill="white"/>
<path d="M243.347 83.6209C243.633 83.7081 243.837 83.8222 243.957 83.9631C244.096 84.0946 244.14 84.242 244.09 84.4054C244.069 84.4735 244.022 84.5557 243.948 84.6522C243.87 84.7622 243.78 84.8388 243.677 84.882C243.592 84.9157 243.461 84.9573 243.282 85.007C243.027 85.0631 242.808 85.1452 242.626 85.2534C242.458 85.3658 242.279 85.564 242.088 85.8481L236.919 93.8687C236.811 94.0291 236.732 94.1909 236.682 94.3543C236.636 94.504 236.617 94.6396 236.625 94.7609C236.65 94.8728 236.683 95.0093 236.723 95.1703C236.757 95.255 236.782 95.3444 236.797 95.4385C236.818 95.519 236.815 95.6001 236.79 95.6818C236.782 95.709 236.748 95.773 236.687 95.8736C236.579 96.0339 236.41 96.1238 236.181 96.1432C235.965 96.1668 235.674 96.1225 235.306 96.0104L230.508 94.547C230.222 94.4598 230.012 94.3437 229.877 94.1986C229.757 94.0576 229.721 93.9055 229.771 93.7421C229.796 93.6604 229.843 93.5782 229.913 93.4953C229.983 93.4125 230.063 93.3474 230.151 93.3001C230.258 93.2433 230.343 93.2097 230.405 93.199C230.486 93.179 230.544 93.1594 230.58 93.1405C230.835 93.0844 231.053 93.0023 231.235 92.894C231.417 92.7858 231.603 92.5897 231.794 92.3056L235.027 87.2657L227.739 92.2075C227.142 92.6055 226.676 92.8651 226.341 92.9863C226.025 93.098 225.696 93.1019 225.356 92.9982C225.029 92.8985 224.802 92.7175 224.673 92.4552C224.563 92.1835 224.509 91.7729 224.513 91.2235L224.518 84.3286L221.394 89.1564C221.286 89.3168 221.207 89.4786 221.157 89.642C221.107 89.8053 221.086 89.9477 221.093 90.069C221.115 90.1946 221.154 90.3331 221.212 90.4847C221.281 90.699 221.298 90.8606 221.265 90.9695C221.257 90.9968 221.223 91.0607 221.162 91.1613C221.05 91.3352 220.885 91.434 220.67 91.4576C220.459 91.4675 220.162 91.4144 219.781 91.2981L218.086 90.7813C217.801 90.6941 217.59 90.5779 217.456 90.4328C217.336 90.2919 217.3 90.1397 217.35 89.9763C217.375 89.8947 217.422 89.8124 217.492 89.7296C217.592 89.5964 217.716 89.5077 217.863 89.4634C218.011 89.4191 218.1 89.3943 218.132 89.389C218.391 89.3193 218.609 89.2371 218.787 89.1425C218.969 89.0343 219.157 88.8313 219.352 88.5337L224.534 80.4722L224.537 79.2903C224.531 79.0654 224.557 78.8576 224.615 78.667C224.69 78.422 224.819 78.2679 225.002 78.2046C225.198 78.1456 225.46 78.1658 225.787 78.2655L228.952 79.2307C229.36 79.3552 229.633 79.5351 229.769 79.7701C229.92 80.0094 229.989 80.3655 229.979 80.8385L229.954 88.2404L237.586 83.0467C238.073 82.719 238.507 82.539 238.889 82.5067C239.275 82.4607 239.747 82.5228 240.305 82.693L243.347 83.6209ZM254.75 87.0984C255.676 87.3807 256.436 87.7686 257.029 88.262C257.64 88.746 258.048 89.287 258.253 89.885C258.475 90.4735 258.49 91.0809 258.299 91.7071C258.192 92.061 258.044 92.3732 257.858 92.6436C257.044 93.8982 255.641 94.4227 253.651 94.2174C254.246 94.6072 254.666 95.0849 254.91 95.6504C255.158 96.2022 255.183 96.8049 254.983 97.4583C254.892 97.7578 254.73 98.0951 254.496 98.4703C253.873 99.4407 253.026 100.046 251.956 100.285C250.904 100.514 249.548 100.376 247.887 99.8695L239.393 97.279C239.107 97.1918 238.904 97.0777 238.783 96.9367C238.649 96.7916 238.606 96.6374 238.656 96.4741C238.681 96.3924 238.728 96.3101 238.798 96.2273C238.898 96.0941 239.022 96.0054 239.17 95.9611C239.317 95.9168 239.406 95.892 239.438 95.8867C239.697 95.817 239.916 95.7348 240.093 95.6402C240.275 95.532 240.463 95.329 240.658 95.0314L245.834 86.9903C245.942 86.83 246.021 86.6681 246.071 86.5048C246.117 86.355 246.127 86.2242 246.101 86.1123C246.094 85.9909 246.07 85.8497 246.03 85.6887C245.961 85.4744 245.943 85.3128 245.977 85.2038C245.989 85.163 246.025 85.0923 246.086 84.9917C246.194 84.8313 246.347 84.7441 246.545 84.73C246.761 84.7064 247.059 84.7528 247.44 84.869L254.75 87.0984ZM252.692 90.5549C252.878 90.2845 253.011 90.02 253.09 89.7613C253.306 89.0534 253.012 88.577 252.209 88.3321L251.29 88.0519L249.044 91.5403L249.942 91.8143C250.514 91.9886 251.004 91.9895 251.414 91.8169C251.842 91.6348 252.268 91.2141 252.692 90.5549ZM249.37 96.1036C249.565 95.806 249.704 95.521 249.787 95.2488C250.012 94.5137 249.702 94.0174 248.858 93.76L247.837 93.4487L245.446 97.1163L246.487 97.4339C247.073 97.6124 247.586 97.6127 248.027 97.4348C248.472 97.2433 248.92 96.7995 249.37 96.1036ZM274.863 93.2321C275.612 93.4604 275.893 93.8809 275.706 94.4935C275.648 94.684 275.534 94.9098 275.365 95.1708L274.371 96.6753C274.067 97.1333 273.776 97.4312 273.496 97.569C273.216 97.7067 272.871 97.7134 272.463 97.5888C272.123 97.485 271.884 97.3156 271.748 97.0805C271.625 96.8496 271.54 96.5186 271.492 96.0876L271.401 95.1446C271.371 94.8527 271.309 94.6404 271.215 94.5078C271.122 94.3751 270.946 94.2694 270.687 94.1905L270.218 94.0473L264.841 102.384C264.746 102.548 264.678 102.699 264.636 102.835C264.586 102.998 264.565 103.141 264.573 103.262C264.594 103.387 264.634 103.526 264.692 103.678C264.756 103.905 264.77 104.081 264.732 104.203C264.724 104.23 264.69 104.294 264.629 104.395C264.507 104.551 264.332 104.639 264.102 104.658C263.887 104.682 263.595 104.638 263.228 104.526L258.429 103.062C258.143 102.975 257.933 102.859 257.799 102.714C257.678 102.573 257.645 102.414 257.699 102.237C257.724 102.155 257.769 102.08 257.835 102.011C257.927 101.905 258.015 101.835 258.1 101.801C258.202 101.758 258.343 101.712 258.522 101.662C258.763 101.602 258.975 101.517 259.157 101.409C259.338 101.301 259.525 101.105 259.715 100.821L265.072 92.478L264.602 92.3348C264.303 92.2434 264.043 92.2164 263.824 92.2535C263.604 92.2907 263.346 92.4054 263.049 92.5976L262.12 93.2293C261.695 93.5014 261.303 93.687 260.946 93.7863C260.606 93.8761 260.266 93.8691 259.925 93.7653C259.612 93.6698 259.392 93.5134 259.265 93.2961C259.138 93.0787 259.118 92.8271 259.205 92.5413C259.247 92.4051 259.313 92.2616 259.403 92.1107L260.501 90.4145C260.726 90.0665 260.936 89.818 261.13 89.6689C261.328 89.5063 261.563 89.4214 261.833 89.4145C262.12 89.3981 262.496 89.4605 262.958 89.6016L274.863 93.2321ZM283.067 95.7341C283.353 95.8213 283.556 95.9354 283.677 96.0763C283.815 96.2078 283.86 96.3553 283.81 96.5186C283.789 96.5867 283.742 96.6689 283.668 96.7654C283.598 96.8482 283.51 96.918 283.403 96.9748C283.314 97.0221 283.23 97.0558 283.149 97.0759C283.086 97.0865 283.037 97.1013 283.002 97.1202C282.746 97.1763 282.528 97.2584 282.346 97.3667C282.164 97.4749 281.978 97.671 281.787 97.9551L276.633 106.002C276.524 106.163 276.445 106.325 276.395 106.488C276.345 106.651 276.324 106.794 276.332 106.915C276.353 107.04 276.393 107.179 276.451 107.331C276.519 107.545 276.537 107.707 276.504 107.815C276.495 107.843 276.461 107.907 276.401 108.007C276.288 108.181 276.124 108.28 275.909 108.304C275.697 108.313 275.401 108.26 275.02 108.144L270.221 106.681C269.935 106.593 269.732 106.479 269.611 106.338C269.477 106.193 269.435 106.039 269.485 105.876C269.51 105.794 269.557 105.712 269.627 105.629C269.727 105.496 269.851 105.407 269.998 105.363C270.146 105.318 270.235 105.294 270.266 105.288C270.526 105.219 270.744 105.137 270.922 105.042C271.104 104.934 271.292 104.731 271.487 104.433L276.662 96.392C276.77 96.2317 276.85 96.0698 276.899 95.9065C276.945 95.7567 276.955 95.6259 276.93 95.514C276.922 95.3926 276.898 95.2514 276.858 95.0904C276.79 94.8761 276.772 94.7145 276.805 94.6055C276.818 94.5647 276.854 94.494 276.914 94.3934C277.023 94.233 277.176 94.1458 277.374 94.1317C277.589 94.1081 277.887 94.1545 278.269 94.2707L283.067 95.7341Z" fill="white"/>
<path d="M192.433 170.517C192.406 170.724 192.409 170.926 192.443 171.123C192.471 171.289 192.519 171.429 192.585 171.543C192.648 171.641 192.709 171.724 192.768 171.792C192.839 171.842 192.884 171.881 192.905 171.909C193.082 172.034 193.184 172.173 193.209 172.324C193.215 172.355 193.212 172.433 193.203 172.559C193.178 172.782 193.068 172.956 192.872 173.083C192.688 173.193 192.384 173.284 191.96 173.356L186.577 174.276C186.259 174.331 186 174.32 185.8 174.245C185.615 174.168 185.507 174.038 185.476 173.857C185.461 173.766 185.467 173.663 185.494 173.55C185.519 173.421 185.564 173.319 185.629 173.246C185.707 173.155 185.814 173.051 185.95 172.934C186.169 172.756 186.34 172.571 186.463 172.379C186.586 172.186 186.668 171.892 186.709 171.495L186.966 169.441L183.423 170.047L183.031 171.446C182.869 172.05 182.815 172.511 182.87 172.829C182.901 173.011 182.957 173.157 183.038 173.268C183.117 173.364 183.227 173.462 183.369 173.562C183.496 173.665 183.582 173.76 183.628 173.845C183.686 173.913 183.712 174.018 183.705 174.159C183.683 174.397 183.582 174.578 183.4 174.702C183.231 174.809 182.943 174.897 182.534 174.967L179.15 175.546C178.801 175.605 178.526 175.59 178.324 175.5C178.119 175.395 177.998 175.236 177.962 175.024C177.92 174.782 177.979 174.577 178.137 174.41C178.278 174.23 178.508 174.027 178.828 173.801C179.243 173.496 179.569 173.214 179.806 172.956C180.039 172.682 180.221 172.331 180.35 171.904L182.961 162.832C183.359 161.424 183.925 160.361 184.66 159.643C185.407 158.907 186.469 158.422 187.847 158.186C189.392 157.922 190.642 158.036 191.599 158.527C192.553 159.003 193.126 159.801 193.317 160.921C193.398 161.391 193.405 161.888 193.339 162.414L192.433 170.517ZM187.259 167.053L187.779 162.85C187.809 162.658 187.807 162.463 187.773 162.266C187.724 161.979 187.605 161.781 187.415 161.673C187.237 161.548 187.005 161.509 186.717 161.559C186.354 161.621 186.061 161.78 185.84 162.036C185.619 162.292 185.426 162.714 185.262 163.303L184.079 167.597L187.259 167.053ZM205.95 154.788C206.435 154.705 206.922 154.731 207.413 154.865C207.916 154.982 208.342 155.197 208.692 155.511C209.054 155.808 209.27 156.161 209.34 156.57C209.493 157.463 208.964 158.013 207.752 158.22C207.404 158.28 207.128 158.304 206.923 158.292C206.731 158.262 206.496 158.209 206.218 158.132C206.19 158.246 206.194 158.401 206.227 158.598C206.269 158.84 206.356 159.121 206.488 159.441C206.636 159.759 206.795 160.051 206.966 160.318C207.364 160.733 207.619 161.266 207.73 161.918C207.779 162.205 207.801 162.56 207.795 162.982C207.748 163.8 207.469 164.588 206.96 165.345C206.465 166.1 205.766 166.749 204.862 167.294C203.97 167.82 202.949 168.182 201.798 168.378C200.92 168.528 200.084 168.609 199.291 168.62C199.097 168.855 199.025 169.117 199.074 169.405C199.108 169.602 199.227 169.753 199.432 169.858C199.635 169.948 199.948 169.957 200.372 169.884L203.779 169.302C204.945 169.103 205.888 169.152 206.609 169.449C207.328 169.732 207.75 170.244 207.877 170.986C207.924 171.258 207.926 171.546 207.885 171.85C207.804 172.471 207.481 173.087 206.915 173.698C206.367 174.322 205.537 174.892 204.426 175.41C203.314 175.927 201.925 176.328 200.26 176.613C198.776 176.866 197.497 176.952 196.423 176.871C195.35 176.79 194.524 176.565 193.947 176.196C193.357 175.845 193.015 175.396 192.922 174.851C192.902 174.73 192.901 174.543 192.92 174.291C192.981 173.828 193.231 173.419 193.669 173.064C194.089 172.696 194.836 172.373 195.911 172.096C195.488 171.81 195.235 171.425 195.152 170.94C195.124 170.774 195.117 170.596 195.131 170.406C195.239 169.577 195.851 168.873 196.967 168.292C195.726 167.866 195.003 167.054 194.798 165.858C194.741 165.525 194.727 165.169 194.756 164.79C194.803 163.971 195.082 163.191 195.595 162.449C196.104 161.692 196.811 161.041 197.715 160.497C198.62 159.953 199.647 159.582 200.798 159.385C202.6 159.077 204.056 159.07 205.166 159.364C204.879 159.054 204.634 158.714 204.431 158.344C204.24 157.956 204.116 157.595 204.059 157.262C203.96 156.687 204.058 156.163 204.351 155.692C204.66 155.219 205.193 154.917 205.95 154.788ZM202.4 163.694C202.51 162.88 202.53 162.269 202.46 161.86C202.372 161.345 202.109 161.125 201.669 161.2C201.291 161.265 200.99 161.511 200.767 161.939C200.557 162.349 200.389 163.055 200.265 164.059C200.157 164.887 200.138 165.506 200.208 165.915C200.293 166.415 200.548 166.628 200.972 166.556C201.35 166.491 201.651 166.245 201.874 165.817C202.097 165.389 202.272 164.682 202.4 163.694ZM199.242 172.439C198.818 172.511 198.428 172.554 198.072 172.568C197.93 172.827 197.89 173.145 197.955 173.524C198.035 173.899 198.233 174.146 198.549 174.264C198.88 174.378 199.357 174.383 199.977 174.277C200.734 174.147 201.328 173.929 201.759 173.621C202.205 173.311 202.391 172.944 202.319 172.52C202.288 172.339 202.195 172.207 202.041 172.124C201.886 172.041 201.68 172.022 201.423 172.066L199.242 172.439ZM214.917 156.949C216.84 156.62 218.286 156.692 219.255 157.166C220.222 157.624 220.786 158.33 220.95 159.284C220.999 159.572 221.014 159.842 220.995 160.094C220.938 161.133 220.425 161.96 219.456 162.578C218.498 163.178 217.316 163.599 215.907 163.839C215.196 163.961 214.522 164.029 213.885 164.045C214.005 164.835 214.311 165.351 214.805 165.594C215.298 165.837 215.939 165.891 216.726 165.756C217.089 165.694 217.431 165.597 217.751 165.464C218.069 165.317 218.471 165.115 218.957 164.861C219.355 164.637 219.63 164.512 219.782 164.486C219.948 164.458 220.048 164.542 220.082 164.739C220.188 165.266 220.087 165.86 219.779 166.52C219.468 167.166 218.947 167.761 218.214 168.307C217.481 168.853 216.547 169.223 215.412 169.418C213.731 169.705 212.28 169.516 211.06 168.852C209.84 168.188 209.092 167.046 208.815 165.426C208.737 164.971 208.707 164.431 208.725 163.805C208.785 161.877 209.371 160.336 210.482 159.18C211.606 158.006 213.084 157.262 214.917 156.949ZM213.811 162.655C213.875 162.659 213.959 162.653 214.065 162.635C214.701 162.526 215.135 162.148 215.367 161.5C215.6 160.853 215.646 160.167 215.507 159.443C215.419 159.021 215.262 158.83 215.034 158.869C214.868 158.897 214.694 159.067 214.514 159.379C214.331 159.675 214.171 160.107 214.034 160.676C213.913 161.242 213.839 161.902 213.811 162.655Z" fill="#C388FF"/>
<path d="M294.302 100.278C291.869 99.5361 289.222 100.786 288.476 103.23C287.962 104.917 288.292 106.569 288.945 108.054C289.596 109.533 290.597 110.914 291.522 112.096L293.117 114.135C293.292 114.358 293.583 114.447 293.853 114.36L296.315 113.558C297.742 113.093 299.343 112.506 300.708 111.641C302.079 110.774 303.275 109.587 303.789 107.9C304.535 105.456 303.036 102.942 300.602 102.199C299.348 101.817 298.059 102.089 297.027 102.634C296.475 101.606 295.557 100.661 294.302 100.278Z" fill="white"/>
<g filter="url(#filter1_b_1309_4686)">
<rect x="211.075" y="205.141" width="132.905" height="58.3973" rx="9.85286" transform="rotate(-49.1214 211.075 205.141)" fill="#202530" fill-opacity="0.8"/>
</g>
<path d="M257.082 207.027C256.408 207.805 255.627 208.368 254.737 208.715C253.846 209.041 252.908 209.103 251.924 208.902C250.929 208.69 249.967 208.182 249.038 207.378C248.329 206.765 247.645 205.959 246.985 204.961C245.589 202.818 245 200.846 245.219 199.044C245.448 197.231 246.125 195.674 247.251 194.373C248.277 193.188 249.631 192.491 251.315 192.283L251.263 191.323C251.27 190.822 251.318 190.426 251.406 190.137C251.494 189.847 251.658 189.563 251.9 189.284C252.161 188.982 252.448 188.804 252.76 188.748C253.06 188.683 253.332 188.756 253.576 188.967C253.669 189.048 253.764 189.161 253.862 189.306L255.514 191.834C255.785 192.271 255.926 192.637 255.936 192.93C255.956 193.212 255.851 193.486 255.62 193.754C255.378 194.032 255.092 194.222 254.762 194.322C254.442 194.41 253.981 194.438 253.379 194.405C252.57 194.354 251.941 194.389 251.492 194.508C251.042 194.606 250.671 194.823 250.379 195.16C249.927 195.683 249.761 196.414 249.884 197.352C250.004 198.269 250.529 199.435 251.459 200.849C252.069 201.763 252.665 202.472 253.245 202.975C253.861 203.507 254.432 203.799 254.958 203.848C255.483 203.875 255.931 203.674 256.303 203.244C256.625 202.873 256.784 202.513 256.781 202.165C256.788 201.805 256.626 201.381 256.297 200.893L255.967 200.394C255.785 200.134 255.653 199.97 255.572 199.899C255.433 199.779 255.304 199.728 255.186 199.747C255.077 199.755 254.923 199.804 254.722 199.895L253.968 200.309C253.632 200.486 253.325 200.453 253.046 200.212C252.965 200.142 252.906 200.08 252.87 200.029C252.759 199.851 252.719 199.675 252.75 199.498C252.791 199.31 252.922 199.088 253.143 198.833L257.715 193.586C258.047 193.203 258.334 193.117 258.578 193.328C258.625 193.368 258.684 193.44 258.757 193.544C258.891 193.741 258.965 193.937 258.979 194.132C258.993 194.327 258.967 194.569 258.901 194.857L258.77 195.536C258.739 195.712 258.734 195.86 258.753 195.978C258.761 196.087 258.801 196.193 258.874 196.296L261.298 200.01C261.58 200.458 261.72 200.812 261.717 201.074C261.724 201.324 261.638 201.553 261.457 201.762L260.823 202.494C260.582 202.773 260.323 202.955 260.046 203.04C259.779 203.114 259.427 203.063 258.989 202.888L258.333 202.624C258.585 204.305 258.168 205.773 257.082 207.027ZM259.736 184.949C261.013 183.474 262.176 182.611 263.226 182.361C264.263 182.102 265.148 182.288 265.88 182.922C266.1 183.113 266.283 183.312 266.429 183.519C267.045 184.357 267.174 185.322 266.817 186.415C266.459 187.487 265.812 188.562 264.877 189.643C264.405 190.188 263.927 190.669 263.446 191.085C264.039 191.62 264.604 191.824 265.14 191.698C265.675 191.573 266.204 191.208 266.727 190.604C266.968 190.325 267.171 190.033 267.334 189.727C267.485 189.411 267.668 189.001 267.882 188.495C268.047 188.069 268.18 187.798 268.281 187.682C268.391 187.554 268.522 187.556 268.673 187.687C269.09 188.027 269.389 188.55 269.57 189.256C269.74 189.951 269.716 190.743 269.496 191.63C269.277 192.517 268.79 193.396 268.036 194.267C266.92 195.556 265.68 196.331 264.316 196.593C262.952 196.855 261.648 196.448 260.405 195.372C260.057 195.07 259.691 194.672 259.307 194.177C258.129 192.65 257.603 191.087 257.727 189.488C257.85 187.867 258.52 186.354 259.736 184.949ZM262.506 190.058C262.558 190.022 262.619 189.963 262.689 189.882C263.111 189.394 263.207 188.826 262.975 188.179C262.743 187.531 262.343 186.972 261.776 186.501C261.441 186.231 261.197 186.183 261.047 186.357C260.936 186.485 260.91 186.727 260.968 187.082C261.015 187.427 261.166 187.862 261.422 188.389C261.687 188.903 262.049 189.46 262.506 190.058ZM279.297 176.294C279.323 176.357 279.383 176.429 279.476 176.51C279.557 176.58 279.636 176.618 279.713 176.623C279.799 176.617 279.873 176.579 279.933 176.509C280.054 176.37 280.096 176.204 280.061 176.01C280.023 175.795 280.02 175.67 280.05 175.635C280.1 175.577 280.181 175.566 280.293 175.601C280.392 175.627 280.495 175.685 280.599 175.775C280.946 176.055 281.182 176.452 281.306 176.966C281.418 177.47 281.383 178.038 281.2 178.672C281.015 179.285 280.652 179.904 280.109 180.532C279.445 181.298 278.743 181.757 278.002 181.908C277.25 182.05 276.573 181.87 275.971 181.369C275.541 180.997 275.149 180.475 274.796 179.803L273.117 176.674C273.016 176.485 272.919 176.35 272.826 176.27C272.675 176.139 272.514 176.091 272.342 176.125C272.169 176.137 272.022 176.213 271.901 176.353C271.68 176.608 271.591 176.958 271.634 177.401C271.665 177.835 271.809 178.254 272.067 178.66L274.686 182.817C274.774 182.974 274.876 183.103 274.992 183.204C275.131 183.324 275.273 183.396 275.416 183.418C275.547 183.43 275.705 183.424 275.888 183.4C276.028 183.379 276.142 183.377 276.231 183.392C276.319 183.407 276.394 183.462 276.455 183.556C276.566 183.733 276.58 183.939 276.499 184.173C276.418 184.408 276.217 184.711 275.895 185.082L272.457 189.055C272.195 189.357 271.963 189.531 271.759 189.579C271.534 189.628 271.355 189.564 271.223 189.389C271.124 189.221 271.107 188.994 271.174 188.706C271.232 188.451 271.247 188.211 271.22 187.984C271.192 187.757 271.075 187.482 270.866 187.16L267.173 181.251C267.136 181.177 267.064 181.095 266.96 181.005C266.832 180.894 266.708 180.838 266.588 180.836C266.478 180.822 266.321 180.828 266.116 180.853C265.922 180.889 265.771 180.9 265.661 180.886C265.551 180.872 265.453 180.798 265.367 180.662C265.16 180.361 265.244 179.794 265.62 178.962C265.984 178.119 266.478 177.337 267.101 176.617C267.604 176.036 268.163 175.718 268.78 175.663C269.385 175.597 269.957 175.828 270.496 176.356C270.223 175.287 270.19 174.374 270.397 173.619C270.593 172.853 270.962 172.157 271.505 171.53C272.118 170.821 272.825 170.438 273.627 170.38C274.439 170.311 275.188 170.573 275.873 171.166C276.233 171.478 276.537 171.842 276.785 172.26L279.297 176.294ZM289.083 164.778C289.156 164.881 289.209 164.948 289.244 164.978C289.326 165.049 289.409 165.081 289.496 165.074C289.583 165.068 289.656 165.03 289.717 164.961C289.837 164.821 289.88 164.655 289.844 164.461C289.807 164.246 289.803 164.121 289.833 164.086C289.884 164.028 289.965 164.017 290.076 164.053C290.187 164.088 290.295 164.151 290.4 164.242C290.724 164.501 290.937 164.9 291.042 165.437C291.156 165.962 291.136 166.525 290.983 167.124C290.83 167.723 290.543 168.266 290.121 168.754C289.618 169.335 289.07 169.744 288.478 169.983C287.885 170.222 287.338 170.267 286.837 170.118C286.972 170.783 286.963 171.405 286.808 171.982C286.654 172.56 286.381 173.075 285.988 173.528C285.526 174.062 284.96 174.446 284.291 174.679C283.632 174.901 282.937 174.94 282.208 174.796C281.478 174.631 280.799 174.277 280.171 173.734C279.115 172.819 278.292 171.762 277.705 170.563C277.116 169.342 276.849 168.125 276.903 166.913C276.946 165.69 277.364 164.62 278.158 163.702C278.591 163.203 279.016 162.829 279.433 162.581C279.861 162.322 280.317 162.147 280.801 162.058L279.362 159.777C279.288 159.651 279.216 159.558 279.146 159.498C279.018 159.387 278.884 159.332 278.742 159.331C278.61 159.319 278.459 159.33 278.287 159.364C278.093 159.4 277.937 159.416 277.817 159.414C277.707 159.4 277.609 159.326 277.523 159.19C277.316 158.889 277.401 158.322 277.776 157.489C278.152 156.656 278.651 155.88 279.275 155.16C279.858 154.486 280.413 154.103 280.94 154.011C281.477 153.907 281.966 154.046 282.407 154.428C282.663 154.649 282.877 154.906 283.051 155.198L289.083 164.778ZM281.669 163.449C281.345 163.494 281.088 163.627 280.897 163.848C280.605 164.185 280.568 164.732 280.786 165.489C281.004 166.247 281.382 167.031 281.92 167.842C282.457 168.653 283.016 169.298 283.595 169.78C284.234 170.332 284.734 170.4 285.096 169.982C285.227 169.831 285.279 169.653 285.253 169.448C285.216 169.233 285.098 168.958 284.9 168.624L281.669 163.449ZM289.154 150.964C290.431 149.489 291.594 148.627 292.643 148.377C293.681 148.117 294.566 148.304 295.297 148.937C295.518 149.128 295.701 149.327 295.847 149.535C296.462 150.372 296.592 151.338 296.235 152.431C295.877 153.502 295.23 154.578 294.295 155.658C293.822 156.204 293.345 156.685 292.863 157.101C293.457 157.635 294.022 157.839 294.557 157.714C295.093 157.588 295.622 157.223 296.145 156.619C296.386 156.34 296.588 156.048 296.751 155.742C296.903 155.427 297.086 155.016 297.3 154.51C297.465 154.085 297.598 153.814 297.698 153.698C297.809 153.57 297.94 153.571 298.091 153.702C298.507 154.042 298.806 154.565 298.988 155.271C299.158 155.967 299.133 156.758 298.914 157.645C298.695 158.532 298.208 159.411 297.454 160.282C296.338 161.571 295.098 162.347 293.734 162.608C292.369 162.87 291.066 162.463 289.823 161.387C289.475 161.086 289.108 160.687 288.724 160.192C287.547 158.665 287.021 157.102 287.145 155.503C287.268 153.883 287.937 152.37 289.154 150.964ZM291.923 156.074C291.975 156.037 292.036 155.979 292.107 155.897C292.529 155.409 292.624 154.842 292.392 154.194C292.161 153.546 291.761 152.987 291.193 152.516C290.858 152.246 290.615 152.198 290.464 152.373C290.354 152.5 290.328 152.742 290.386 153.097C290.432 153.442 290.584 153.878 290.839 154.404C291.105 154.918 291.466 155.475 291.923 156.074ZM299.972 138.643C300.535 137.992 301.18 137.646 301.907 137.605C302.643 137.552 303.302 137.776 303.883 138.279C304.104 138.47 304.287 138.669 304.432 138.877C304.808 139.405 304.983 139.942 304.957 140.489C304.931 141.035 304.722 141.535 304.33 141.988C303.948 142.429 303.552 142.676 303.141 142.727C302.741 142.767 302.292 142.723 301.792 142.595C301.515 142.517 301.294 142.479 301.131 142.48C300.967 142.481 300.841 142.533 300.75 142.638C300.65 142.754 300.605 142.899 300.618 143.072C300.641 143.234 300.738 143.45 300.91 143.721L304.104 148.833C304.142 148.906 304.219 148.993 304.335 149.094C304.486 149.224 304.649 149.294 304.824 149.303C304.997 149.291 305.196 149.249 305.42 149.179C305.633 149.12 305.789 149.092 305.887 149.096C305.986 149.1 306.076 149.148 306.159 149.24C306.29 149.394 306.325 149.576 306.264 149.788C306.213 149.987 306.037 150.262 305.735 150.61L301.874 155.07C301.613 155.372 301.38 155.547 301.177 155.594C300.952 155.643 300.773 155.58 300.64 155.404C300.541 155.237 300.525 155.009 300.591 154.721C300.649 154.467 300.665 154.226 300.637 153.999C300.61 153.773 300.492 153.498 300.284 153.175L296.591 147.266C296.553 147.193 296.482 147.111 296.377 147.02C296.25 146.91 296.126 146.853 296.006 146.851C295.896 146.837 295.738 146.843 295.533 146.869C295.34 146.905 295.188 146.915 295.078 146.902C294.968 146.888 294.87 146.813 294.784 146.678C294.578 146.377 294.662 145.81 295.038 144.977C295.402 144.134 295.895 143.352 296.519 142.632C296.931 142.156 297.383 141.857 297.875 141.734C298.356 141.601 298.834 141.66 299.309 141.908C298.967 140.637 299.188 139.549 299.972 138.643Z" fill="#C388FF"/>
<mask id="mask0_1309_4686" style="mask-type:alpha" maskUnits="userSpaceOnUse" x="76" y="0" width="378" height="281">
<rect x="76" width="378" height="281" rx="28" fill="#B770FF"/>
</mask>
<g mask="url(#mask0_1309_4686)">
<path opacity="0.05" d="M446.642 48.6307C448.859 44.2313 455.141 44.2313 457.358 48.6307L464.761 63.3181C466.455 66.6794 470.789 67.6688 473.774 65.3754L486.816 55.3544C490.723 52.3527 496.382 55.078 496.471 60.0038L496.768 76.4486C496.836 80.2121 500.312 82.9843 503.996 82.213L520.095 78.8431C524.917 77.8337 528.833 82.7446 526.776 87.2212L519.908 102.166C518.337 105.586 520.266 109.592 523.92 110.496L539.886 114.445C544.669 115.628 546.066 121.751 542.271 124.892L529.599 135.377C526.699 137.777 526.699 142.223 529.599 144.623L542.271 155.108C546.066 158.249 544.669 164.372 539.886 165.555L523.92 169.504C520.266 170.408 518.337 174.414 519.908 177.834L526.776 192.779C528.833 197.255 524.917 202.166 520.095 201.157L503.996 197.787C500.312 197.016 496.836 199.788 496.768 203.551L496.471 219.996C496.382 224.922 490.723 227.647 486.816 224.646L473.774 214.625C470.789 212.331 466.455 213.321 464.761 216.682L457.358 231.369C455.141 235.769 448.859 235.769 446.642 231.369L439.239 216.682C437.545 213.321 433.211 212.331 430.226 214.625L417.184 224.646C413.277 227.647 407.618 224.922 407.529 219.996L407.232 203.551C407.164 199.788 403.688 197.016 400.004 197.787L383.905 201.157C379.083 202.166 375.167 197.255 377.224 192.779L384.092 177.834C385.663 174.414 383.734 170.408 380.08 169.504L364.114 165.555C359.331 164.372 357.934 158.249 361.729 155.108L374.401 144.623C377.301 142.223 377.301 137.777 374.401 135.377L361.729 124.892C357.934 121.751 359.331 115.628 364.114 114.445L380.08 110.496C383.734 109.592 385.663 105.586 384.092 102.166L377.224 87.2212C375.167 82.7446 379.083 77.8337 383.905 78.8431L400.004 82.213C403.688 82.9843 407.164 80.212 407.232 76.4486L407.529 60.0038C407.618 55.078 413.277 52.3527 417.184 55.3544L430.226 65.3754C433.211 67.6688 437.545 66.6794 439.239 63.3181L446.642 48.6307Z" fill="white"/>
</g>
<rect x="6" y="295" width="146" height="148" rx="20" fill="#44D797"/>
<path d="M72.5246 311.519C74.0072 308.738 77.9928 308.738 79.4754 311.519L85.4304 322.688C86.5029 324.7 89.0543 325.383 90.9891 324.177L101.731 317.482C104.405 315.815 107.857 317.808 107.75 320.957L107.323 333.608C107.246 335.886 109.114 337.754 111.392 337.677L124.043 337.25C127.192 337.143 129.185 340.595 127.518 343.269L120.823 354.011C119.617 355.946 120.3 358.497 122.312 359.57L133.481 365.525C136.262 367.007 136.262 370.993 133.481 372.475L122.312 378.43C120.3 379.503 119.617 382.054 120.823 383.989L127.518 394.731C129.185 397.405 127.192 400.857 124.043 400.75L111.392 400.323C109.114 400.246 107.246 402.114 107.323 404.392L107.75 417.043C107.857 420.192 104.405 422.185 101.731 420.518L90.9891 413.823C89.0543 412.617 86.5029 413.3 85.4304 415.312L79.4754 426.481C77.9928 429.262 74.0072 429.262 72.5246 426.481L66.5696 415.312C65.4971 413.3 62.9457 412.617 61.0109 413.823L50.2691 420.518C47.5947 422.185 44.1431 420.192 44.2495 417.043L44.6771 404.392C44.7541 402.114 42.8864 400.246 40.6078 400.323L27.9573 400.75C24.8078 400.857 22.815 397.405 24.4819 394.731L31.1775 383.989C32.3834 382.054 31.6998 379.503 29.688 378.43L18.5186 372.475C15.7378 370.993 15.7378 367.007 18.5186 365.525L29.688 359.57C31.6998 358.497 32.3834 355.946 31.1775 354.011L24.4819 343.269C22.815 340.595 24.8078 337.143 27.9573 337.25L40.6078 337.677C42.8864 337.754 44.7541 335.886 44.6771 333.608L44.2495 320.957C44.1431 317.808 47.5947 315.815 50.2691 317.482L61.0109 324.177C62.9457 325.383 65.4971 324.7 66.5696 322.688L72.5246 311.519Z" fill="white"/>
<path d="M73.9038 374.099C74.2465 374.502 74.4008 374.82 74.3665 375.055C74.2637 375.39 73.9724 375.676 73.4925 375.91C73.0127 376.112 72.4986 376.212 71.9502 376.212C70.3394 376.212 69.0199 375.827 67.9917 375.055C66.9978 374.25 66.5008 373.227 66.5008 371.986C66.5008 371.517 66.5694 371.08 66.7065 370.678C67.0149 369.605 67.5976 368.733 68.4544 368.062C69.3455 367.357 70.6479 366.519 72.3615 365.546C74.2123 364.54 75.6346 363.618 76.6285 362.779C77.6224 361.941 78.3079 360.85 78.6849 359.509C78.7877 359.039 78.8391 358.603 78.8391 358.201C78.8391 357.06 78.445 356.188 77.6567 355.585C76.8684 354.981 76.0287 354.679 75.1376 354.679C74.178 354.679 73.3383 354.813 72.6186 355.081C72.9956 356.054 73.1841 357.077 73.1841 358.15C73.1841 358.654 73.1327 359.106 73.0299 359.509C72.6528 360.783 71.9674 361.773 70.9735 362.477C69.9795 363.182 68.7114 363.534 67.1692 363.534C65.3184 363.534 63.8275 363.047 62.6965 362.075C61.5655 361.069 61 359.794 61 358.251C61 357.714 61.0685 357.195 61.2056 356.691C61.7197 354.545 63.2449 352.901 65.7811 351.761C68.3516 350.587 71.5904 350 75.4975 350C78.822 350 81.7352 350.52 84.2371 351.56C86.7391 352.599 88.6584 353.991 89.995 355.735C91.3317 357.446 92 359.291 92 361.27C92 361.873 91.9143 362.544 91.743 363.282C91.3317 364.926 90.6119 366.251 89.5837 367.257C88.5898 368.229 87.1161 369.051 85.1625 369.722C83.2432 370.359 80.5699 370.963 77.1426 371.533C75.8402 371.768 74.9491 371.986 74.4693 372.187C73.9895 372.389 73.681 372.657 73.5439 372.992L73.4925 373.194C73.4925 373.395 73.6296 373.697 73.9038 374.099ZM69.791 378.095C71.162 378.095 72.3101 378.481 73.2355 379.252C74.1609 379.99 74.6235 380.912 74.6235 382.019C74.6578 382.824 74.4179 383.612 73.9038 384.384C73.424 385.155 72.7385 385.793 71.8474 386.296C70.9563 386.765 69.9624 387 68.8657 387C67.4605 387 66.2952 386.614 65.3698 385.843C64.4787 385.038 64.0332 384.065 64.0332 382.925C64.0332 382.153 64.2731 381.399 64.7529 380.661C65.267 379.923 65.9525 379.319 66.8093 378.85C67.7004 378.346 68.6943 378.095 69.791 378.095Z" fill="#44D797"/>
<path d="M164 321C164 306.641 175.641 295 190 295H343.046C350.051 295 356.759 292.174 361.651 287.162L388.138 260.03C390.643 257.463 395 259.237 395 262.824V417C395 431.359 383.359 443 369 443H190C175.641 443 164 431.359 164 417V321Z" fill="white"/>
<path opacity="0.4" d="M194.082 391.181C191.877 403.312 183.766 413.073 172.908 413.073C183.766 413.073 191.877 423.367 194.082 435.498C196.286 423.367 204.94 413.073 215.256 413.073C204.94 413.073 196.286 403.312 194.082 391.181Z" fill="#D9E1EA"/>
<path opacity="0.4" d="M321.39 391.181C319.186 403.312 311.075 413.073 300.216 413.073C311.075 413.073 319.186 423.367 321.39 435.498C323.595 423.367 332.248 413.073 342.564 413.073C332.248 413.073 323.595 403.312 321.39 391.181Z" fill="#D9E1EA"/>
<path opacity="0.4" d="M236.518 391.181C234.313 403.312 226.203 413.073 215.344 413.073C226.203 413.073 234.313 423.367 236.518 435.498C238.723 423.367 247.376 413.073 257.692 413.073C247.376 413.073 238.723 403.312 236.518 391.181Z" fill="#D9E1EA"/>
<path opacity="0.4" d="M363.826 391.181C361.622 403.312 353.511 413.073 342.653 413.073C353.511 413.073 361.622 423.367 363.826 435.498C366.031 423.367 374.685 413.073 385 413.073C374.685 413.073 366.031 403.312 363.826 391.181Z" fill="#D9E1EA"/>
<path opacity="0.4" d="M278.954 391.181C276.749 403.312 268.639 413.073 257.78 413.073C268.639 413.073 276.749 423.367 278.954 435.498C281.159 423.367 289.812 413.073 300.128 413.073C289.812 413.073 281.159 403.312 278.954 391.181Z" fill="#D9E1EA"/>
<path opacity="0.4" d="M194.082 346.816C191.877 358.947 183.766 368.708 172.908 368.708C183.766 368.708 191.877 379.002 194.082 391.133C196.286 379.002 204.94 368.708 215.256 368.708C204.94 368.708 196.286 358.947 194.082 346.816Z" fill="#D9E1EA"/>
<path opacity="0.4" d="M321.39 346.816C319.186 358.947 311.075 368.708 300.216 368.708C311.075 368.708 319.186 379.002 321.39 391.133C323.595 379.002 332.248 368.708 342.564 368.708C332.248 368.708 323.595 358.947 321.39 346.816Z" fill="#D9E1EA"/>
<path opacity="0.4" d="M236.518 346.816C234.313 358.947 226.203 368.708 215.344 368.708C226.203 368.708 234.313 379.002 236.518 391.133C238.723 379.002 247.376 368.708 257.692 368.708C247.376 368.708 238.723 358.947 236.518 346.816Z" fill="#D9E1EA"/>
<path opacity="0.4" d="M363.826 346.816C361.622 358.947 353.511 368.708 342.653 368.708C353.511 368.708 361.622 379.002 363.826 391.133C366.031 379.002 374.685 368.708 385 368.708C374.685 368.708 366.031 358.947 363.826 346.816Z" fill="#D9E1EA"/>
<path opacity="0.4" d="M278.954 346.816C276.749 358.947 268.639 368.708 257.78 368.708C268.639 368.708 276.749 379.002 278.954 391.133C281.159 379.002 289.812 368.708 300.128 368.708C289.812 368.708 281.159 358.947 278.954 346.816Z" fill="#D9E1EA"/>
<path opacity="0.4" d="M194.082 302.451C191.877 314.582 183.767 324.343 172.908 324.343C183.767 324.343 191.877 334.637 194.082 346.768C196.286 334.637 204.94 324.343 215.256 324.343C204.94 324.343 196.286 314.582 194.082 302.451Z" fill="#D9E1EA"/>
<path opacity="0.4" d="M321.39 302.451C319.186 314.582 311.075 324.343 300.216 324.343C311.075 324.343 319.186 334.637 321.39 346.768C323.595 334.637 332.248 324.343 342.564 324.343C332.248 324.343 323.595 314.582 321.39 302.451Z" fill="#D9E1EA"/>
<path opacity="0.4" d="M236.518 302.451C234.313 314.582 226.203 324.343 215.344 324.343C226.203 324.343 234.313 334.637 236.518 346.768C238.723 334.637 247.376 324.343 257.692 324.343C247.376 324.343 238.723 314.582 236.518 302.451Z" fill="#D9E1EA"/>
<path opacity="0.4" d="M363.826 302.451C361.622 314.582 353.511 324.343 342.653 324.343C353.511 324.343 361.622 334.637 363.826 346.768C366.031 334.637 374.685 324.343 385 324.343C374.685 324.343 366.031 314.582 363.826 302.451Z" fill="#D9E1EA"/>
<path opacity="0.4" d="M278.954 302.451C276.749 314.582 268.639 324.343 257.78 324.343C268.639 324.343 276.749 334.637 278.954 346.768C281.159 334.637 289.812 324.343 300.128 324.343C289.812 324.343 281.159 314.582 278.954 302.451Z" fill="#D9E1EA"/>
<circle cx="341.984" cy="391.786" r="24.0239" transform="rotate(16.2492 341.984 391.786)" fill="#89D2FF"/>
<circle cx="333.089" cy="383.279" r="1.74719" transform="rotate(16.2492 333.089 383.279)" fill="#050708"/>
<circle cx="343.991" cy="386.457" r="1.74719" transform="rotate(16.2492 343.991 386.457)" fill="#050708"/>
<path d="M333.299 388.8L340.847 391L338.525 398.968C337.918 401.052 335.736 402.25 333.651 401.642C331.567 401.035 330.369 398.852 330.977 396.768L333.299 388.8Z" fill="#050708"/>
<circle cx="257.024" cy="347.024" r="24.0239" fill="white"/>
<rect x="250.675" y="356.633" width="6.11517" height="2.62079" rx="1.31039" transform="rotate(-7.66543 250.675 356.633)" fill="#050708"/>
<rect x="263.404" y="352.966" width="6.11517" height="2.62079" rx="1.31039" transform="rotate(-31.0961 263.404 352.966)" fill="#050708"/>
<rect x="259.257" y="359.213" width="6.11517" height="4.529" rx="2.2645" transform="rotate(-19.5368 259.257 359.213)" fill="#050708"/>
<defs>
<filter id="filter0_b_1309_4686" x="188.611" y="52.9706" width="144.233" height="85.6491" filterUnits="userSpaceOnUse" color-interpolation-filters="sRGB">
<feFlood flood-opacity="0" result="BackgroundImageFix"/>
<feGaussianBlur in="BackgroundImageFix" stdDeviation="1.64214"/>
<feComposite in2="SourceAlpha" operator="in" result="effect1_backgroundBlur_1309_4686"/>
<feBlend mode="normal" in="SourceGraphic" in2="effect1_backgroundBlur_1309_4686" result="shape"/>
</filter>
<filter id="filter1_b_1309_4686" x="210.12" y="103.696" width="133.045" height="140.618" filterUnits="userSpaceOnUse" color-interpolation-filters="sRGB">
<feFlood flood-opacity="0" result="BackgroundImageFix"/>
<feGaussianBlur in="BackgroundImageFix" stdDeviation="2.5"/>
<feComposite in2="SourceAlpha" operator="in" result="effect1_backgroundBlur_1309_4686"/>
<feBlend mode="normal" in="SourceGraphic" in2="effect1_backgroundBlur_1309_4686" result="shape"/>
</filter>
</defs>
</svg>
