<svg width="16" height="21" viewBox="0 0 16 21" fill="none" xmlns="http://www.w3.org/2000/svg">
<path fill-rule="evenodd" clip-rule="evenodd" d="M4 0C1.79086 0 0 1.79086 0 4V17C0 19.2091 1.79086 21 4 21H12C14.2091 21 16 19.2091 16 17V4C16 1.79086 14.2091 0 12 0H4ZM6.07729 7.69319C6.07729 8.02551 6.34669 8.29491 6.67901 8.29491H9.7648L4.26796 13.7917C4.03297 14.0267 4.03297 14.4077 4.26796 14.6427C4.50294 14.8777 4.88393 14.8777 5.11892 14.6427L10.6158 9.14587V12.2317C10.6158 12.564 10.8852 12.8334 11.2175 12.8334C11.5498 12.8334 11.8192 12.564 11.8192 12.2317V7.69319C11.8192 7.36087 11.5498 7.09147 11.2175 7.09147L6.67902 7.09147C6.34669 7.09147 6.07729 7.36087 6.07729 7.69319Z" fill="#B1B8C0"/>
</svg>
