<svg width="21" height="18" viewBox="0 0 21 18" fill="none" xmlns="http://www.w3.org/2000/svg">
<path d="M13.7301 1.71937L13.4571 2.13337L13.7301 1.71937C12.8568 1.1435 11.7439 1.75745 11.6727 2.76557L11.5968 3.83953C11.5569 4.40521 11.5235 4.97126 11.4967 5.53756H11.2624C7.09668 5.53756 3.29432 7.95481 1.42011 11.7745L0.610904 13.4237C0.413964 13.8251 0.482817 14.312 0.789945 14.6407C1.1002 14.9727 1.58753 15.0701 2.0014 14.873L4.77146 13.5536C6.88511 12.5469 9.17894 12.0527 11.48 12.0903C11.5092 12.7808 11.5481 13.4709 11.5968 14.1605L11.6727 15.2344C11.7439 16.2425 12.8568 16.8565 13.7301 16.2806C16.099 14.7185 18.1574 12.7064 19.7962 10.352L20.3063 9.6193C20.5646 9.24824 20.5646 8.75176 20.3063 8.3807L19.8959 8.66635L20.3063 8.3807L19.7963 7.64798C18.1574 5.29363 16.099 3.28147 13.7301 1.71937Z" stroke="#B1B8C0" stroke-linejoin="round"/>
</svg>
