<svg xmlns="http://www.w3.org/2000/svg" width="18" height="18" viewBox="0 0 18 18" fill="none">
<path d="M7.41671 4.34159C7.80078 3.68867 7.99282 3.3622 8.25206 3.2714C8.41257 3.21518 8.58743 3.21518 8.74794 3.2714C9.00718 3.3622 9.19922 3.68867 9.58329 4.34159L10.7303 6.29144C11.5318 7.65414 12.1573 9.11304 12.5916 10.6332C13.2974 13.1035 11.4426 15.5625 8.87344 15.5625H8.12656C5.55743 15.5625 3.70258 13.1035 4.40837 10.6332C4.8427 9.11304 5.46815 7.65414 6.26974 6.29144L7.41671 4.34159Z" fill="white" stroke="white" stroke-width="1.5"/>
<path d="M8.25 13.5C7.86477 13.5 7.4903 13.3729 7.18467 13.1384C6.87904 12.9039 6.65934 12.575 6.55963 12.2029" stroke="#202530" stroke-width="1.75" stroke-linecap="round"/>
</svg>
